<svg xmlns="http://www.w3.org/2000/svg" viewBox="0 0 35.19 47.93"><defs><style>.cls-1{fill:#fefefe;}.cls-2{fill:#2b2829;}.cls-3{fill:#282526;}.cls-4{fill:#d1d3d4;}.cls-5{fill:#e9e9ea;}.cls-6{fill:#696b6d;}</style></defs><title>employees</title><g id="Warstwa_2" data-name="Warstwa 2"><g id="Warstwa_1-2" data-name="Warstwa 1"><path class="cls-1" d="M32.56,9v1.39c-.74,1.11-2,.92-3,1.11s-2,.62-2.18,1.74c-.55,3.52-3.15,4.87-6.06,5.93-1.75.64-3.3,1.77-5.18,2.14a2.25,2.25,0,0,1-1.5-.64c-2.56-2.39-5.94-3.9-6.94-7.89-.54-2.14-3.8-.65-5.1-2.4V9C8.9,6.15,8.9,6.15,6.31,0h22.5a1.33,1.33,0,0,1-.3,1.33C25.77,5.45,26.3,6.92,31,8.16A3.06,3.06,0,0,1,32.56,9Z"/><path class="cls-2" d="M6.31,0c2.43,1.5,4,3.53,2.79,6.44S5.31,9.57,2.57,9C-.93,5.22-.76,3.2,3.31,0Z"/><path class="cls-2" d="M32.56,9c-2.74.57-5.35.45-6.54-2.55S26.37,1.49,28.81,0h3C35.89,3.21,36.05,5.2,32.56,9Z"/><path class="cls-3" d="M15.93,20.94c1.9-1.71,4.54-2,6.59-3.29,1.68-1.1,4.62-1.44,3.43-4.91-.35-1,1.21-2.09,2.53-2.25a40.79,40.79,0,0,1,4.09-.11,5.13,5.13,0,0,1,2.62,5c0,9.62,0,19.25,0,28.87,0,1.66,0,3.58-2.24,3.64-2.38.06-2.59-1.83-2.58-3.72a98.2,98.2,0,0,0-.52-12.74c-1.57,2.36-.86,4.92-1,7.38-.12,2.24,0,4.5,0,6.75,0,.85.78,2.21-.86,2.36a2.19,2.19,0,0,1-2.44-2.29c-.15-1.86-.1-3.74-.11-5.62q-.09-8.62-.16-17.23c.29-1.07-.1-1.45-1.17-1.16-2.75,0-4.81,3.46-8,1.63A1.65,1.65,0,0,1,15.93,20.94Z"/><path class="cls-3" d="M2.56,10.38c3.31,0,7.15-.89,6.79,4.68-.07,1.18,1.57,1.74,2.57,2.46s3,.81,3.33,2.64c-.51.92.47,2.21-.73,3-2.41-.35-4.09-2.26-6.61-2.89,2.23,1.64,1.85,3.93,1.85,6.14,0,5.61,0,11.22,0,16.83a13.25,13.25,0,0,1-.24,3A2,2,0,0,1,7,47.88c-1.32-.26-.69-1.38-.69-2.14,0-4.77,0-9.53,0-14.38-2,.25-1.49,1.35-1.5,2.08-.05,3.86,0,7.73,0,11.59,0,1.55-.66,2.75-2.3,2.87S0,46.79,0,45.27Q0,29.75,0,14.23C0,12.42,1.12,11.27,2.56,10.38Z"/><path class="cls-4" d="M14.53,23.13c.05-1-.5-2.22.73-3l.67.78.16,2.29C15.57,23.23,15,24.08,14.53,23.13Z"/><path class="cls-5" d="M24,21.61a3.57,3.57,0,0,1,2.52-1.11c.53,1.42-1.07,1.44-1.35,2.27Z"/><path class="cls-6" d="M32.24,14.79c.09,1-.38,1.77-1.11,1.56-1.15-.34,0-.83.2-1.17S31.89,14.93,32.24,14.79Z"/></g></g></svg>