<svg xmlns="http://www.w3.org/2000/svg" viewBox="0 0 48.08 45.6"><defs><style>.cls-1{fill:#2a2728;}.cls-2{fill:#262324;}.cls-3{fill:#2b282a;}.cls-4{fill:#3b3a3c;}</style></defs><title>notifications</title><g id="Warstwa_2" data-name="Warstwa 2"><g id="Warstwa_1-2" data-name="Warstwa 1"><path class="cls-1" d="M49,20c-3.53.72-4.88-.8-5.44-4.31A15,15,0,0,0,38,6.62c-1.3-1.08-1.32-1.78-.11-2.87,1-.93,1.69-1.83,3.27-.44C45.36,7,47.24,12,49,17Z" transform="translate(-0.92 -1.74)"/><path class="cls-2" d="M25.05,40.44c-5.74,0-11.47,0-17.21,0-.77,0-1.83.48-2.22-.72a1.91,1.91,0,0,1,.81-2.3c4.07-2.54,3.81-6.5,3.7-10.54-.09-3.1-.29-6.21.49-9.3A14.42,14.42,0,0,1,17,8.68C19.1,7.28,22.18,7,22.24,3.29c0-1.16,1.75-1.67,3.08-1.53,1.5.15,2.76,1,2.85,2.49.12,2.15,1.46,2.77,3.12,3.53,5.53,2.51,8.18,7.07,8.58,13a52.49,52.49,0,0,1,0,7.48c-.27,3.52.1,6.66,3.36,8.81a2.24,2.24,0,0,1,1.17,2.53c-.41,1.42-1.65.81-2.51.82C36.28,40.47,30.67,40.44,25.05,40.44Z" transform="translate(-0.92 -1.74)"/><path class="cls-3" d="M13.58,5.45A18.18,18.18,0,0,0,5.86,18.06C5.48,20.7,3.75,20,2.33,19.94c-2.28-.08-1.15-1.76-1-2.72a23.7,23.7,0,0,1,6-12.17C10.49,1.61,10.5,1.62,13.58,5.45Z" transform="translate(-0.92 -1.74)"/><path class="cls-4" d="M25,42.51c1.37.92,4-1.09,4.21,1.35.19,2-1.69,3.53-4,3.47s-4.64-1.24-4.44-3.53S23.63,43.44,25,42.51Z" transform="translate(-0.92 -1.74)"/></g></g></svg>