<svg xmlns="http://www.w3.org/2000/svg" viewBox="0 0 60 50.09"><defs><style>.cls-1{fill:#e8e9ef;}.cls-2{fill:#120e09;}.cls-3{fill:#050506;}.cls-4{fill:#0e0e0e;}.cls-5{fill:#f9d762;}.cls-6{fill:#090909;}.cls-7{fill:#24333f;}.cls-8{fill:#2b2922;}.cls-9{fill:#fcc652;}.cls-10{fill:#bfc3cc;}.cls-11{fill:#e8eaef;}.cls-12{fill:#309dcf;}.cls-13{fill:#252627;}.cls-14{fill:#191206;}.cls-15{fill:#eac759;}.cls-16{fill:#000c17;}.cls-17{fill:#d25a51;}.cls-18{fill:#ec685b;}.cls-19{fill:#5f5d68;}.cls-20{fill:#391d11;}</style></defs><title>o1</title><g id="Warstwa_2" data-name="Warstwa 2"><g id="Warstwa_1-2" data-name="Warstwa 1"><path class="cls-1" d="M1,22.72v-4c3.58-1.53,1.34-4.7,2-7.06,11.39-.12,22.78-.36,34.17-.31,5.26,0,10.56-.74,15.78.53,0,.91-.09,1.81,1.14,2L58,15.59c-7.81,0-15.63-.1-23.44,0-1.89,0-4-.73-5.6,1.09-3.12,2-2.14,4.87-1.61,7.64a2.36,2.36,0,0,1,.26,2.41c-1.51,5.56-.36,11.23-.67,16.84-1.66-.09-3.57,1.31-4.89-.81a1.2,1.2,0,0,0,.92-.22c2.85-2.88,3-6.43.17-8.53-1.09-.8-2-1-1.68-2.88.63-4.27-1.71-6.39-6.09-6.47-1.12,0-2.63.89-3.33-1-1.42-4-5.9-2.75-6.64-1.53C3.72,24.86,2.31,22.14,1,22.72Z" transform="translate(-1 -0.72)"/><path class="cls-2" d="M26.94,43.55c.31-5.61-.83-11.28.67-16.84,2.08.92,1.24,2.8,1.3,4.29.16,4.23.16,8.47.22,12.71-.76,3.76.87,5.15,4.58,5.07,6.66-.14,13.33-.23,20,0,4.27.17,5.49-1.58,5.39-5.61-.2-7.82,0-15.65,0-23.48l.86-2,1,0v31c-1.84.47-3,2.15-5.29,2.09-7.79-.23-15.58-.14-23.37-.06-2.21,0-4.42-.65-5-2.52-.73-2.52-2.22-2.28-4-2.33-6.45-.19-12.91.48-19.35-.37,2.64-2.18,6.4.73,8.93-2l.89-.92c2,1.41,4.06,4.33,6.16.07l.34-1c1,0,1.94-.1,2.63.78a1.2,1.2,0,0,1-.92.22C23.09,46.59,25.1,44.56,26.94,43.55Z" transform="translate(-1 -0.72)"/><path class="cls-3" d="M54.08,13.87c-1.23-.18-1.18-1.09-1.14-2-.82-1.88-2.52-1.3-3.91-1.3q-21.24-.06-42.48,0c-1.26,0-2.73-.43-3.56,1.09C2.34,14,4.58,17.19,1,18.72v-17c.67,0,1-.31,1-1H52l2.2,2.66-.26,10.18ZM3,8.76c.58,1.05,1.6,1.06,2.59,1.06H49.91c1.14,0,2.38.14,3-1.19.71-4.47-.93-6.18-5.69-6.07q-19.14.44-38.3,0C4.06,2.44,2.12,3.95,3,8.76Z" transform="translate(-1 -0.72)"/><path class="cls-4" d="M4,45.54c-1.48.19-1.77-1.62-3-1.82v-21c1.31-.58,2.72,2.14,4.4-.65.74-1.23,5.22-2.43,6.64,1.53.7,1.94,2.21,1,3.33,1,4.38.08,6.72,2.2,6.09,6.47-.28,1.91.59,2.07,1.68,2.88,2.84,2.1,2.69,5.64-.17,8.53-.69-.89-1.68-.77-2.63-.78,2.43-1.93,5.42-3.72.46-6.31a3.45,3.45,0,0,1-1.67-3.8c1.66-4.77-1.48-4.85-4.54-4.82-2.14,0-4,.22-3.68-2.82-1.55-2-3.2-1.73-4.91-.23,0,1-.22,2.24-1.18,2.56-1.91.63-2.29,2-1.62,3.44.76,1.59,2-.06,2.91-.2,7.34-1.05,12.12,3.88,10.79,11.28-.16.9-1.46,1.9-.44,2.65s2.51.32,3.54-.73c-2.1,4.26-4.12,1.34-6.16-.07a8,8,0,0,0,1.1-5.7c-.74-3.22-2.68-5.26-6.13-5.43-2.4-.11-4.78.22-5.72,2.85C.85,40.69,3.25,43.9,10,43.8c1,0,2-.14,3-.22C10.42,46.27,6.66,43.36,4,45.54Z" transform="translate(-1 -0.72)"/><path class="cls-5" d="M29.13,43.71c-.06-4.24-.06-8.48-.22-12.71-.06-1.49.78-3.37-1.3-4.29a2.36,2.36,0,0,0-.27-2.41c3.17-1.21.53-4.9,2.77-6.5H54l.07,8c-.1,1.88-.35,3.91-2.41,4.47-1.31.36-1.44-1.53-2.23-2.26-2.54-2.35.52-2.61,1.29-3.8a2.59,2.59,0,0,0-.4-3.61c-1.67,2.13-3.13,4.87-5.77,4.77S40,23,38.14,20.9c-.47,1.73-.75,3.16,1,4.1,1,.53,2.39.93.88,2.37-.94.9-1,2.79-2.48,2.91-1.19.09-1.82-1.19-2.29-2.3-.31-.74.29-2.21-1.59-1.94-2.16,4,3,5.23,3.38,8.43-1,.08-1.85.1-2.65.22s-2.11-.43-2.21,1.16c5,1.5,5,1.49,2.23,6.44a8.35,8.35,0,0,0-.49,1.41Z" transform="translate(-1 -0.72)"/><path class="cls-6" d="M54,17.8H30.12L29,16.66c1.57-1.82,3.71-1.07,5.6-1.09,7.81-.08,15.63,0,23.44,0,.76.63,1.79,1,2,2.15l-.86,2C58,17.52,56.11,17.32,54,17.8Z" transform="translate(-1 -0.72)"/><path class="cls-7" d="M3,11.66c.83-1.52,2.3-1.09,3.56-1.09q21.24,0,42.48,0c1.39,0,3.1-.58,3.91,1.3-5.22-1.27-10.52-.51-15.78-.53C25.77,11.3,14.38,11.53,3,11.66Z" transform="translate(-1 -0.72)"/><path class="cls-8" d="M29,16.66l1.16,1.13c-2.24,1.61.4,5.29-2.77,6.5C26.82,21.53,25.84,18.66,29,16.66Z" transform="translate(-1 -0.72)"/><path class="cls-4" d="M26.94,43.55c-1.84,1-3.86,3-4.89-.81C23.38,44.86,25.28,43.46,26.94,43.55Z" transform="translate(-1 -0.72)"/><path class="cls-9" d="M54,17.8c2.14-.48,4-.28,5.16,1.92,0,7.83-.24,15.66,0,23.48.1,4-1.12,5.78-5.39,5.61-6.65-.26-13.33-.17-20,0-3.71.08-5.34-1.32-4.58-5.07H33.9c.51,1,.7,2.73,2.33,1,1.2-.64,2-2,3.6-1.92a5.16,5.16,0,0,0,6.36.72c3.86-3.23,6.11-2.68,7.53,2.18,1.52-1.63,1.32-3.19.39-4-5.22-4.7-1.09-4.94,2.5-5.55.07,0,0-.58.06-.83-1.27-1.44-3.74.58-4.81-1.77a22.52,22.52,0,0,0,3.26-3.62c.83-1.43,2-3.43-1.08-4Z" transform="translate(-1 -0.72)"/><path class="cls-10" d="M20,42.73c-1,1-2.38,1.57-3.54.73s.27-1.74.44-2.65c1.33-7.4-3.45-12.33-10.79-11.28-.95.14-2.15,1.79-2.91.2-.67-1.41-.29-2.8,1.62-3.44C5.79,26,6,24.76,6,23.73a8.83,8.83,0,0,1,4.91.23c-.37,3,1.54,2.85,3.68,2.82,3.05,0,6.19.05,4.54,4.82a3.45,3.45,0,0,0,1.67,3.8c5,2.59,2,4.39-.46,6.31Z" transform="translate(-1 -0.72)"/><path class="cls-11" d="M13,43.58c-1,.07-2,.2-3,.22-6.75.1-9.14-3.11-6.89-9.41.94-2.63,3.32-3,5.72-2.85,3.46.16,5.39,2.21,6.13,5.43a8,8,0,0,1-1.1,5.7Z" transform="translate(-1 -0.72)"/><path class="cls-12" d="M3,8.76c-.89-4.81,1-6.32,5.91-6.2q19.14.46,38.3,0c4.76-.11,6.4,1.59,5.69,6.06C36.28,9.33,19.64,9.07,3,8.76ZM35.24,6.61l-.08-1.7C29.74,5,24.3,4.49,18.9,5.23l0,1.37Z" transform="translate(-1 -0.72)"/><path class="cls-7" d="M3,8.76c16.64.31,33.27.57,49.91-.13-.63,1.33-1.86,1.19-3,1.19H5.6C4.61,9.81,3.59,9.81,3,8.76Z" transform="translate(-1 -0.72)"/><path class="cls-7" d="M54.2,3.38c1.09,3.42,1.68,6.83-.26,10.18Z" transform="translate(-1 -0.72)"/><path class="cls-13" d="M10.91,24A8.83,8.83,0,0,0,6,23.73C7.71,22.24,9.36,22,10.91,24Z" transform="translate(-1 -0.72)"/><path class="cls-14" d="M36.23,44.67c-1.64,1.77-1.83,0-2.33-1a8.35,8.35,0,0,1,.49-1.41c2.75-4.95,2.76-4.95-2.23-6.44.1-1.6,1.36-1,2.21-1.16S36,34.56,37,34.47C36.62,31.27,31.47,30,33.63,26c1.87-.28,1.27,1.19,1.59,1.94.47,1.11,1.1,2.39,2.29,2.3,1.46-.12,1.53-2,2.48-2.91,1.52-1.45.09-1.85-.88-2.37-1.71-.94-1.43-2.36-1-4.1,1.87,2.1,3.8,4.42,6.39,4.51s4.09-2.65,5.77-4.77a2.59,2.59,0,0,1,.4,3.61c-.77,1.2-3.83,1.45-1.29,3.8.79.74.92,2.62,2.23,2.26,2.06-.56,2.31-2.59,2.41-4.47,3.12.58,1.91,2.57,1.08,4a22.52,22.52,0,0,1-3.26,3.62c1.07,2.35,3.53.34,4.81,1.77,0,.25,0,.82-.06.83-3.59.61-7.72.85-2.5,5.55.94.84,1.14,2.4-.39,4-1.42-4.86-3.67-5.41-7.53-2.18a5.16,5.16,0,0,1-6.36-.72c-.17-1-.69-2.13-1.79-1.72A3,3,0,0,0,36.23,44.67Zm7.86-10.73-.15-.3c3.19,1.84-.25,5.75,2.49,8,2.52-2.24,3.95-5.26,3-8s-4.4-1.2-6.74-1.47a9.82,9.82,0,0,0-2.87.53c-1.52,4-.06,6.85,3.21,9.1a1.31,1.31,0,0,0,.46.14c.13,0,.35-.14.35-.23C43.92,39.07,44,36.5,44.09,33.93Zm-2-5.29c1.58,1.42,2.84,1.59,4.18.72a.91.91,0,0,0,.15-.85C45.17,27.37,43.85,27.56,42.09,28.64Z" transform="translate(-1 -0.72)"/><path class="cls-15" d="M36.23,44.67A3,3,0,0,1,38,41c1.1-.41,1.61.68,1.79,1.72C38.24,42.64,37.43,44,36.23,44.67Z" transform="translate(-1 -0.72)"/><path class="cls-16" d="M35.24,6.61H18.94l0-1.37C24.3,4.49,29.74,5,35.15,4.9Z" transform="translate(-1 -0.72)"/><path class="cls-17" d="M39.79,32.63a9.82,9.82,0,0,1,2.87-.53c2.34.27,5.75-1.36,6.74,1.47s-.45,5.8-3,8c-2.74-2.22.7-6.14-2.49-8C42.79,32.33,41.16,33,39.79,32.63Z" transform="translate(-1 -0.72)"/><path class="cls-18" d="M39.79,32.63c1.37.4,3-.3,4.15,1l.15.3c-1.87,2.39-.31,5.26-1.08,7.8C39.73,39.48,38.27,36.58,39.79,32.63Z" transform="translate(-1 -0.72)"/><path class="cls-19" d="M42.09,28.64c1.76-1.08,3.08-1.26,4.32-.13a.91.91,0,0,1-.15.85C44.93,30.23,43.67,30.06,42.09,28.64Z" transform="translate(-1 -0.72)"/><path class="cls-20" d="M43,41.73c.77-2.54-.79-5.41,1.08-7.8-.08,2.57-.17,5.14-.27,7.71,0,.09-.22.22-.35.23A1.31,1.31,0,0,1,43,41.73Z" transform="translate(-1 -0.72)"/></g></g></svg>