<svg xmlns="http://www.w3.org/2000/svg" viewBox="0 0 54.06 50.08"><defs><style>.cls-1{fill:#6359a3;}.cls-2{fill:#09080a;}.cls-3{fill:#1c1829;}.cls-4{fill:#201e12;}.cls-5{fill:#262418;}.cls-6{fill:#232118;}.cls-7{fill:#211f25;}.cls-8{fill:#2f2c23;}.cls-9{fill:#2a271e;}.cls-10{fill:#0a0a0a;}.cls-11{fill:#010101;}.cls-12{fill:#020202;}.cls-13{fill:#201e13;}.cls-14{fill:#3e3a2f;}.cls-15{fill:#3e392e;}.cls-16{fill:#010104;}.cls-17{fill:#010103;}.cls-18{fill:#020010;}.cls-19{fill:#4f3d98;}.cls-20{fill:#5e53a3;}.cls-21{fill:#050019;}.cls-22{fill:#56479d;}.cls-23{fill:#23202e;}.cls-24{fill:#040018;}.cls-25{fill:#5f53a3;}.cls-26{fill:#030015;}.cls-27{fill:#5c4ea0;}.cls-28{fill:#56489d;}.cls-29{fill:#5c4fa1;}.cls-30{fill:#cfb336;}.cls-31{fill:#ceb236;}.cls-32{fill:#eac935;}</style></defs><title>o2</title><g id="Warstwa_2" data-name="Warstwa 2"><g id="Warstwa_1-2" data-name="Warstwa 1"><path class="cls-1" d="M40.25.72h2a2.39,2.39,0,0,0,2.84,2c1.28-.18,2.21.31,3.16,1.61v22.4l-2,1c-4.42,0-8.84,0-13.25,0-.72,0-1.74-.35-1.75,1a.85.85,0,0,0-1,1c-2.75,1.48-2.75,1.48-5.18-.66a2.8,2.8,0,0,0-.82-.34c0-1.37-1.07-1-1.79-1-2.16,0-4.33,0-6.49,0s-4.54.28-6.73-.23V3.72c.17-1.67,1.48-1,2.28-1Q24,2.67,36.4,2.73C38.08,2.74,39.69,2.78,40.25.72Zm-27,14c.12.28.23.81.35.81q4.15.07,8.3,0c.12,0,.23-.53.35-.81-.12-.28-.23-.81-.35-.81q-4.15-.07-8.3,0C13.48,13.91,13.37,14.44,13.25,14.72Zm30,4c-.12-.28-.23-.81-.35-.81q-4.15-.07-8.3,0c-.12,0-.23.53-.35.81-.16,0-.4-.07-.48,0a5.51,5.51,0,0,0-.53,1c3.61,0,7,0,10.44,0,.15,0,.29-.4.44-.62Zm-6-4a3,3,0,0,1-.47,0c-.09-.66-.69-.25-.37.34,0,.09,0,.27,0,.33,1.79,2,5.89,2,7.6,0,.34-.4-.3-.68-.78-.64A4.77,4.77,0,0,0,37.25,14.72Zm-24,4c-.07,1,.58,1,1.26,1,5.73,0,11.46,0,17.19,0,.14,0,.28-.4.42-.62l-.87-.35a.76.76,0,0,0-.79-1q-8.21,0-16.43,0A.76.76,0,0,0,13.25,18.72Zm11-4a2.19,2.19,0,0,0,1.87,1.95,59.35,59.35,0,0,0,7.47,0,2,2,0,0,0,1.48-1.59,4.11,4.11,0,0,0-.81-.34c0-.17,0-.47,0-.48a19.7,19.7,0,0,0-10,0S24.25,14.55,24.25,14.72Zm-11-4a2.36,2.36,0,0,0,2.37,2c3.16,0,6.31,0,9.47,0,1,0,1.48-.74,1.91-1.34s-.26-.69-.75-.67a.76.76,0,0,0-.78-1q-5.72-.05-11.43,0A.76.76,0,0,0,13.25,10.72Zm30,0a.76.76,0,0,0-.78-1q-6.22,0-12.43,0a.76.76,0,0,0-.78,1,2.64,2.64,0,0,1-.47,0c-.1-.66-.67-.25-.38.35a2.47,2.47,0,0,0,2.45,1.67c3.6-.05,7.21-.1,10.81,0A2.61,2.61,0,0,0,44,11.38C44.36,10.89,43.74,10.69,43.25,10.72Zm0,13c.16,0,.4.07.48,0a5.49,5.49,0,0,0,.52-1c-10.21,0-20.22,0-30.23,0a.76.76,0,0,0-.78,1,.76.76,0,0,0,.79,1q14.21,0,28.42,0A.76.76,0,0,0,43.25,23.72Zm0-17a.76.76,0,0,0-.79-1q-13.71,0-27.42,0a.76.76,0,0,0-.79,1c-1.28.08-1.06.88-.75,2,9.33,0,18.72,0,28.11,0A2.69,2.69,0,0,0,44,7.39C44.36,6.87,43.74,6.7,43.25,6.72Z" transform="translate(-1.19 -0.72)"/><path class="cls-2" d="M40.25.72c-.56,2.06-2.17,2-3.85,2q-12.43,0-24.87,0c-.8,0-2.1-.7-2.28,1h-2l2-3Z" transform="translate(-1.19 -0.72)"/><path class="cls-3" d="M48.25,25.72V4.32c-1-1.31-1.88-1.79-3.16-1.61a2.39,2.39,0,0,1-2.84-2h6c0,1,.83,1.34,1.38,1.82.74.65.61,1.4.62,2.18-1.37,0-1,1.06-1,1.78,0,5.81,0,11.62,0,17.43C49.23,24.66,49.62,25.71,48.25,25.72Z" transform="translate(-1.19 -0.72)"/><path class="cls-4" d="M50.25,39.72c.79,2.85,3.15,1.8,5,2v2l-2,1a.85.85,0,0,0-1-1,.77.77,0,0,0-.74-1,2.44,2.44,0,0,1-2.26-2A.85.85,0,0,1,50.25,39.72Z" transform="translate(-1.19 -0.72)"/><path class="cls-5" d="M50.25,39.72a.85.85,0,0,0-1,1,2.13,2.13,0,0,0-2.49,1c-.52,1.13-2.16.54-2.52,1.79s1.31,1.33,1.08,2.55c-.15.78-.58,1.9.48,2.58,1.4-2,3.74-.19,5.44-1.34l-.91-1.06c.44-1,1.78-1.31,1.92-2.55a.85.85,0,0,1,1,1v1c-.89-.06-1,.51-1,1.2q0,1.9,0,3.8c-1.7.48-2.76-1.53-4.59-1.07-1.33.33-2.42,1.79-4.21.8v-4.8c-.75-1.34-2.11-1.71-2.22-3,.16-.31.23-.74.45-.84,3.77-1.69,3.78-1.68,5.2-4.1C48.47,37.6,49.78,38,50.25,39.72Z" transform="translate(-1.19 -0.72)"/><path class="cls-6" d="M6.25,39.72V38.2c1-.76,2.32-1,2.94.07a6.54,6.54,0,0,0,6.36,3.59c-2.27,3.8-2.27,3.8-2.43,8.52a2.94,2.94,0,0,1-3.07-.23c-1.89-1-4-.6-5.8.57q0-1.9,0-3.8c0-.68-.11-1.26-1-1.2v-1a.85.85,0,0,1,1-1c1,1.09.86,2.6,1.3,3.85,1.83.47,3.82-.43,5.77,1.22A7.49,7.49,0,0,1,12.7,43c-2.39.26-2.86-1.9-4.45-2.26C8.16,39.22,7,39.87,6.25,39.72Z" transform="translate(-1.19 -0.72)"/><path class="cls-7" d="M8.25,3.72h1V27.48c2.19.51,4.48.16,6.73.23s4.32,0,6.49,0c.72,0,1.77-.39,1.79,1-4.09,0-8.17,0-12.26,0-.72,0-1.74-.35-1.74,1a5.42,5.42,0,0,1-3-3c1.35,0,1-1,1-1.76C8.26,17.88,8.25,10.8,8.25,3.72Z" transform="translate(-1.19 -0.72)"/><path class="cls-8" d="M33.25,44.72v5.64c-2.17,1.24-3.45-.85-5.25-.73-1.57.1-2.66,2.27-4.75.47V43.72c.61.12,1.32-.3,1.81.3.62,1.19-.43,2.65.5,3.54h5.36c1-1.25-.8-3.17,1.32-3.84A.85.85,0,0,1,33.25,44.72Z" transform="translate(-1.19 -0.72)"/><path class="cls-9" d="M33.25,44.72a.85.85,0,0,0-1-1L28,40.31c-1.15,2-3.67,1.55-4.71,3.41v1a3,3,0,0,1-2-1.86c.31-3.24,5.7-1.06,5.22-4.93,2.71-.92,3.49.85,4.2,2.69,1.62.4,3.81-.72,4.63,2.29C35.28,43.76,34.4,44.36,33.25,44.72Z" transform="translate(-1.19 -0.72)"/><path class="cls-10" d="M10.25,29.72c0-1.34,1-1,1.74-1,4.09,0,8.17,0,12.26,0a2.8,2.8,0,0,1,.82.34c2.43,2.14,2.43,2.14,5.18.66v1c.14.82-.85,1-1,1.57s.08,1.34-1.33,1.46l-4.32-4Z" transform="translate(-1.19 -0.72)"/><path class="cls-11" d="M48.25,25.72c1.37,0,1-1.06,1-1.78,0-5.81,0-11.62,0-17.43,0-.72-.39-1.77,1-1.78,0,6.56,0,13.13,0,19.69,0,1.58-.28,2.85-2,3.31v-2Z" transform="translate(-1.19 -0.72)"/><path class="cls-11" d="M8.25,3.72c0,7.08,0,14.16,0,21.24,0,.72.37,1.75-1,1.76v-23Z" transform="translate(-1.19 -0.72)"/><path class="cls-12" d="M48.25,26.72v1c-.45,1.71-1.69,2-3.27,2-3.74-.06-7.49.1-11.23-.08a7,7,0,0,0-3.5,1.06v-1a.85.85,0,0,1,1-1c4.42,0,8.84,0,13.25,0,.72,0,1.74.35,1.75-1Z" transform="translate(-1.19 -0.72)"/><path class="cls-13" d="M4.25,43.72a.85.85,0,0,0-1,1c-1-.18-1.52-1-2.06-1.85.49-1.13,1-2.39,2.57-2.1,1.18.22,1.49-1.13,2.49-1,.76.15,1.91-.5,2,1Z" transform="translate(-1.19 -0.72)"/><path class="cls-14" d="M3.25,45.72c.89-.06,1,.51,1,1.2q0,1.9,0,3.8c-.89.06-1-.51-1-1.2Q3.25,47.62,3.25,45.72Z" transform="translate(-1.19 -0.72)"/><path class="cls-15" d="M52.25,50.72q0-1.9,0-3.8c0-.68.11-1.26,1-1.2q0,1.9,0,3.8C53.25,50.21,53.14,50.78,52.25,50.72Z" transform="translate(-1.19 -0.72)"/><path class="cls-16" d="M43.25,6.72c.49,0,1.11.15.76.67a2.69,2.69,0,0,1-2.4,1.37c-9.39-.08-18.78,0-28.11,0-.31-1.12-.53-1.92.75-2Z" transform="translate(-1.19 -0.72)"/><path class="cls-17" d="M13.25,23.72a.76.76,0,0,1,.78-1c10,0,20,0,30.23,0a5.49,5.49,0,0,1-.52,1c-.07.08-.31,0-.48,0Z" transform="translate(-1.19 -0.72)"/><path class="cls-18" d="M43.25,10.72c.49,0,1.11.17.76.66a2.61,2.61,0,0,1-2.36,1.39c-3.6-.12-7.21-.08-10.81,0a2.47,2.47,0,0,1-2.45-1.67c-.29-.6.28-1,.38-.35a2.64,2.64,0,0,0,.47,0Z" transform="translate(-1.19 -0.72)"/><path class="cls-19" d="M13.25,23.72h30a.76.76,0,0,1-.79,1q-14.21,0-28.42,0A.76.76,0,0,1,13.25,23.72Z" transform="translate(-1.19 -0.72)"/><path class="cls-20" d="M43.25,6.72h-29a.76.76,0,0,1,.79-1q13.71,0,27.42,0A.76.76,0,0,1,43.25,6.72Z" transform="translate(-1.19 -0.72)"/><path class="cls-18" d="M26.25,10.72c.49,0,1.12.14.75.67s-.89,1.36-1.91,1.34c-3.16,0-6.31,0-9.47,0a2.36,2.36,0,0,1-2.37-2Z" transform="translate(-1.19 -0.72)"/><path class="cls-21" d="M34.25,14.72a4.11,4.11,0,0,1,.81.34,2,2,0,0,1-1.48,1.59,59.35,59.35,0,0,1-7.47,0,2.19,2.19,0,0,1-1.87-1.95Z" transform="translate(-1.19 -0.72)"/><path class="cls-11" d="M31.25,18.72l.87.35c-.14.22-.28.62-.42.62-5.73,0-11.46,0-17.19,0-.68,0-1.33,0-1.26-1Z" transform="translate(-1.19 -0.72)"/><path class="cls-22" d="M31.25,18.72h-18a.76.76,0,0,1,.79-1q8.21,0,16.43,0A.76.76,0,0,1,31.25,18.72Z" transform="translate(-1.19 -0.72)"/><path class="cls-23" d="M46.25,27.72c0,1.34-1,1-1.75,1-4.42,0-8.84,0-13.25,0,0-1.34,1-1,1.75-1C37.41,27.71,41.83,27.72,46.25,27.72Z" transform="translate(-1.19 -0.72)"/><path class="cls-20" d="M43.25,10.72h-14a.76.76,0,0,1,.78-1q6.22,0,12.43,0A.76.76,0,0,1,43.25,10.72Z" transform="translate(-1.19 -0.72)"/><path class="cls-24" d="M43.25,14.72c.49,0,1.12.24.78.64-1.71,2.06-5.81,2-7.6,0-.06-.07,0-.24,0-.33-.32-.59.28-1,.37-.34a3,3,0,0,0,.47,0Z" transform="translate(-1.19 -0.72)"/><path class="cls-25" d="M26.25,10.72h-13a.76.76,0,0,1,.78-1q5.72-.05,11.43,0A.76.76,0,0,1,26.25,10.72Z" transform="translate(-1.19 -0.72)"/><path class="cls-26" d="M43.25,18.72l.87.35c-.15.22-.29.62-.44.62-3.42,0-6.84,0-10.44,0a5.51,5.51,0,0,1,.53-1c.07-.08.31,0,.48,0Z" transform="translate(-1.19 -0.72)"/><path class="cls-27" d="M34.25,14.72h-10c0-.17,0-.47,0-.48a19.7,19.7,0,0,1,10,0S34.25,14.55,34.25,14.72Z" transform="translate(-1.19 -0.72)"/><path class="cls-11" d="M22.25,14.72c-.12.28-.23.81-.35.81q-4.15.07-8.3,0c-.12,0-.23-.53-.35-.81Z" transform="translate(-1.19 -0.72)"/><path class="cls-28" d="M43.25,18.72h-9c.12-.28.23-.81.35-.81q4.15-.07,8.3,0C43,17.91,43.13,18.44,43.25,18.72Z" transform="translate(-1.19 -0.72)"/><path class="cls-29" d="M22.25,14.72h-9c.12-.28.23-.81.35-.81q4.15-.07,8.3,0C22,13.91,22.13,14.44,22.25,14.72Z" transform="translate(-1.19 -0.72)"/><path class="cls-29" d="M43.25,14.72h-6A4.77,4.77,0,0,1,43.25,14.72Z" transform="translate(-1.19 -0.72)"/><path class="cls-30" d="M52.25,43.72c-.14,1.23-1.48,1.57-1.92,2.55l.91,1.06c-1.7,1.16-4-.67-5.44,1.34-1.06-.68-.63-1.8-.48-2.58.23-1.22-1.39-1.44-1.08-2.55s2-.66,2.52-1.79a2.13,2.13,0,0,1,2.49-1,2.44,2.44,0,0,0,2.26,2A.77.77,0,0,1,52.25,43.72Z" transform="translate(-1.19 -0.72)"/><path class="cls-31" d="M4.25,43.72l4-3c1.59.36,2.06,2.52,4.45,2.26a7.49,7.49,0,0,0-1.38,5.81c-2-1.65-3.94-.75-5.77-1.22C5.11,46.32,5.27,44.81,4.25,43.72Z" transform="translate(-1.19 -0.72)"/><path class="cls-32" d="M23.25,43.72c1-1.86,3.56-1.38,4.71-3.41l4.29,3.41c-2.12.67-.36,2.58-1.32,3.84H25.56c-.93-.89.12-2.35-.5-3.54C24.57,43.42,23.86,43.84,23.25,43.72Z" transform="translate(-1.19 -0.72)"/></g></g></svg>