<svg xmlns="http://www.w3.org/2000/svg" viewBox="0 0 50.05 50.01"><defs><style>.cls-1{fill:#1a0f11;}.cls-2{fill:#1f1e1f;}.cls-3{fill:#2d1e1e;}.cls-4{fill:#4e4d5a;}.cls-5{fill:#8b654b;}.cls-6{fill:#2b2723;}.cls-7{fill:#2c231d;}.cls-8{fill:#23181a;}.cls-9{fill:#25221f;}.cls-10{fill:#2b2b2c;}.cls-11{fill:#252325;}.cls-12{fill:#010101;}.cls-13{fill:#4a3b3b;}.cls-14{fill:#020202;}.cls-15{fill:#131313;}.cls-16{fill:#2e2a2b;}.cls-17{fill:#373738;}.cls-18{fill:#e2e3e9;}.cls-19{fill:#e9959c;}.cls-20{fill:#dee0e9;}.cls-21{fill:#eb7691;}.cls-22{fill:#2c171a;}.cls-23{fill:#111113;}.cls-24{fill:#c2c0c0;}.cls-25{fill:#edd0a6;}.cls-26{fill:#cacbd3;}.cls-27{fill:#2c2824;}.cls-28{fill:#3e3b3b;}.cls-29{fill:#403e3e;}.cls-30{fill:#f2f1f0;}.cls-31{fill:#eccda1;}.cls-32{fill:#322b22;}.cls-33{fill:#d6d8e0;}.cls-34{fill:#dfe1ea;}.cls-35{fill:#c4c5cd;}.cls-36{fill:#2a2b2b;}.cls-37{fill:#444545;}.cls-38{fill:#2b251e;}.cls-39{fill:#504739;}</style></defs><title>o3</title><g id="Warstwa_2" data-name="Warstwa 2"><g id="Warstwa_1-2" data-name="Warstwa 1"><path class="cls-1" d="M36,50.22v1c-11.33,0-22.67,0-34,0-.86,0-1.19-.16-1-1,1.65,0,3.3,0,4.95,0,.59,0,1-.24,1-.74.08-.67,0-1.35-1-1.27a.85.85,0,0,1-1-1H6c.87-.09,2,.44,2-1.23,0-3.59,0-7.18,0-10.77H9v14a.76.76,0,0,0,.79,1q9.21,0,18.43,0a.76.76,0,0,0,.79-1c0-4.12,0-8.25,0-12.37,0-1.3-.38-1.67-1.66-1.65-4.45.07-8.91,0-13.36,0v-1c3.32,0,6.63-.07,9.95,0,1.68,0,3.2.13,3.62-2a6.51,6.51,0,0,1,1.43,0c-.49,1.27.86,1.94,1,3,0,3.6-.06,7.2,0,10.8.07,3.27,1,4.16,4,4.2Z" transform="translate(-0.95 -1.24)"/><path class="cls-2" d="M51,13.22c-1.23.19-1.78,1.27-2.49,2.05a2.67,2.67,0,0,1-2.51.95H44c-.08-1,.62-.94,1.29-1A4,4,0,0,0,49,12a1.83,1.83,0,0,0-.18-1.39c-.56-.74-.74.19-1,.4-.64.52-1.18,1.17-1.79,1.73-.18.16-.6.35-.68.28-1.44-1.38-2.85-2.8-4.26-4.22A2.55,2.55,0,0,0,42,6.22c.08-.54,0-1.23.91-.6a9.66,9.66,0,0,0,1.09.6,2.48,2.48,0,0,0,0,1c.4.84-1.83,1.16-.32,2.3,1.25,1,2.48,1.13,3.36,0C48.19,8.17,49.53,8.19,51,8.22Z" transform="translate(-0.95 -1.24)"/><path class="cls-3" d="M6,48.22c1-.08,1.06.6,1,1.27-.06.51-.43.76-1,.74-1.65,0-3.3,0-4.95,0v-1H4.8C5.49,49.22,6.06,49.11,6,48.22Z" transform="translate(-0.95 -1.24)"/><path class="cls-4" d="M42,6.22a2.55,2.55,0,0,1-.94,2.56c1.41,1.41,2.82,2.83,4.26,4.22.07.07.5-.12.68-.28.61-.56,1.15-1.21,1.79-1.73.27-.22.45-1.14,1-.4A1.83,1.83,0,0,1,49,12a4,4,0,0,1-3.68,3.25c-.67.06-1.37,0-1.29,1-.79,0-1.58.15-2.18-.65-.46-.61-1.39-.64-1.6,0-1,3-3.74,4.3-5.59,6.45a2.94,2.94,0,0,0-.63,2.2,2.45,2.45,0,0,0-2,2c-.33,0-.8-.14-1,0-1.93,1.82-3.76-.07-5.62-.2-.76-.05,0-.73.26-1,.62-.56.2-1.25.33-1.86.6-.12,1.28.28,1.81-.31,2.34-2.62,5.26-4.69,7.19-7.69v-1c2.94-.13,3.23-.17,2.91-2.6-.27-2,1.26-3.51,1.09-5.4Z" transform="translate(-0.95 -1.24)"/><path class="cls-5" d="M23,4.22a.85.85,0,0,1,1,1l3,4a.85.85,0,0,1-1,1c-5.59,1.4-5.59,1.4-10-1-1.42-.79-3.43-1.76-2.84-3.4s2.79-2.47,4.77-2.57C19.67,3.16,21.5,2.89,23,4.22Z" transform="translate(-0.95 -1.24)"/><path class="cls-6" d="M16,9.22c4.41,2.4,4.41,2.4,10,1,0,2.38,0,2.37,2.65,3.19.18.06.24.53.35.81-.28.12-.77.18-.81.35-.24,1.08-2.22.06-1.86,1.36a2,2,0,0,0,2.37,1.3,8.06,8.06,0,0,1,1.48,0c2.11,0,2.2-.1,1.12-2.13-.36-.67-.16-1.25-.29-1.87l2-1a2.46,2.46,0,0,0,2,3c-1.93,3-4.85,5.07-7.19,7.69-.53.59-1.21.19-1.81.31v-2c.28-.11.76-.17.79-.34.14-.6-.31-.7-.79-.66a.85.85,0,0,0-1,1H24a16.63,16.63,0,0,0,1-7.43c-.07-1.37-1.08-2.28-2.08-1.48-1.62,1.3-2.76.15-4.15,0A4.67,4.67,0,0,1,15,10.22.85.85,0,0,0,16,9.22Z" transform="translate(-0.95 -1.24)"/><path class="cls-7" d="M16,9.22a.85.85,0,0,1-1,1c-.76.15-1.91-.5-2,1-1.94.59-.59,2.19-1,3.25s.94,2.42-1,2.75c0-1.16,0-2.32,0-3.48,0-.95-.11-1.46-1.26-1.57s-.91-1.37-.7-2c1.25-3.62,2.66-7,6.84-8.5,2.78-1,4.9-.28,7.08,1.07.22.14,0,.95,0,1.44-1.5-1.33-3.33-1.06-5.08-1-2,.1-4.15.84-4.77,2.57S14.58,8.43,16,9.22Z" transform="translate(-0.95 -1.24)"/><path class="cls-8" d="M6,47.22H5c-1.61-1-2-2.54-2-4.31,0-3.13.19-6.27-.07-9.38-.14-1.64,1-2.59,1.3-4,.15-.73,1.16-.22,1.77-.35.48,1.69-1.3,2.74-1.1,4.55a53.07,53.07,0,0,1,0,9.39c-.08,1.31.89,2,1.07,3.06Z" transform="translate(-0.95 -1.24)"/><path class="cls-9" d="M11,26.22c3.46-.94,3.92-1.94,2.06-4.45-.37-.5-1.18-.71-1.06-1.55s-.5-1.91,1-2c.51,2.57,1.43,3.49,4,4v2a2.46,2.46,0,0,0-2,3H13C12.24,27.07,11.09,27.72,11,26.22Z" transform="translate(-0.95 -1.24)"/><path class="cls-10" d="M29,14.22c-.11-.28-.17-.76-.35-.81C26,12.59,26,12.6,26,10.22a.85.85,0,0,0,1-1h1c1.06,1.22,2.06,1.67,4.28,2a.78.78,0,0,1,.72,1l-2,1c-.1-.26-.13-.68-.31-.77-.61-.28-.67.24-.68.64C30,13.78,29.81,14.27,29,14.22Z" transform="translate(-0.95 -1.24)"/><path class="cls-11" d="M42,6.22H39c.13-.61-.39-1.62.36-1.79,1.37-.3,2.36-1.77,4-1.23.86.28,2.24-.56,2.57.67s-.75,2-1.93,2.35a9.66,9.66,0,0,1-1.09-.6C42,5,42.08,5.68,42,6.22Z" transform="translate(-0.95 -1.24)"/><path class="cls-12" d="M39,6.22c.17,1.89-1.36,3.35-1.09,5.4.32,2.43,0,2.47-2.91,2.6,1.25-2.11,1.35-4.56,1.92-6.85C37.3,5.85,38.17,6.33,39,6.22Z" transform="translate(-0.95 -1.24)"/><path class="cls-13" d="M11,26.22c.09,1.5,1.24.85,2,1-.17,1.65-1.47.73-2.25,1s-2.42-.94-2.75,1H6c.11-.7-.4-1.69.67-2C8.1,26.85,9.39,25.82,11,26.22Z" transform="translate(-0.95 -1.24)"/><path class="cls-6" d="M13,18.22c-1.5.09-.85,1.24-1,2-1.93-.47-.62-2-1-3,1.93-.34.64-1.84,1-2.75s-.93-2.66,1-3.25Z" transform="translate(-0.95 -1.24)"/><path class="cls-14" d="M28,9.22H27l-3-4C26.57,5.73,27.49,6.65,28,9.22Z" transform="translate(-0.95 -1.24)"/><path class="cls-15" d="M34,24.22a2.94,2.94,0,0,1,.63-2.2c1.85-2.15,4.61-3.5,5.59-6.45.21-.64,1.15-.61,1.6,0,.6.8,1.4.64,2.18.65h2c-.76,2.14-2.5.66-3.74.94s-1.67.76-.91,1.9c.18.27.64.51.62.71-.15,1.23.25,2.42-.57,3.72-.71,1.12,1.88,1.45,1.61,2.93-.17.92.48,2.09-.49,2.73s-1.5-1-2.51-.93c-1-.54,2.88-1.69-.27-2-1.17-.13-.6-1.26-.73-2,0-.17,0-.33,0-.5,0-.65.14-1.38-.77-1.49-.71-.09-1.26.11-1.24,1,0,1.65,0,3.3,0,5a.85.85,0,0,1-1-1C36,24.41,36,24.41,34,24.22Z" transform="translate(-0.95 -1.24)"/><path class="cls-16" d="M36,27.22a.85.85,0,0,0,1,1v1a2.5,2.5,0,0,0-2,2.29c-.2,1.71.74,1.87,2,1.71a.78.78,0,0,1-.76,1c-.67.08-1.31.08-1.24,1a52.49,52.49,0,0,0,.06,6.32c.25,2-1.29,3.45-1.32,5.36,0,.62-1.13.2-1.74.32v-1c.33-.69,1-1.38,1-2.06-.15-5,.75-10.05-1-14.94,1.7.26,3.15.09,3.53-2A2.3,2.3,0,0,1,36,27.22Z" transform="translate(-0.95 -1.24)"/><path class="cls-3" d="M32,46.22v1c-.18,1.33.06,2.18,1.75,2.05.77-.06,2.08-.7,2.25.95H34c-3,0-3.95-.93-4-4.2-.08-3.6,0-7.2,0-10.8,1-.08,1,.6,1,1.28,0,2.81,0,5.63,0,8.44C31,45.62,31,46.3,32,46.22Z" transform="translate(-0.95 -1.24)"/><path class="cls-17" d="M35,35.22c-.07-.94.57-.94,1.24-1a.78.78,0,0,0,.76-1,5.35,5.35,0,0,1,1-4v-1h2c.66,1.25-2,2.8.4,3.94,1,.45.09.89-.19,1.37C39,35.68,36.9,35.18,35,35.22Z" transform="translate(-0.95 -1.24)"/><path class="cls-18" d="M14,34.22v1c-.08,1,.6,1,1.28,1,2.82,0,5.64,0,8.46,0,2.32,0,2.2,0,2.3,2.5a7,7,0,0,1-1.81,4.73c-2.52,3.18-6.06,4.48-9.95,4.73C10,48.45,10,48.32,10,44.25c0-1.49-.05-3,0-4.48.05-1.12-.46-2.39.33-3.32.61-.73,2,.28,2.64-.74.08-.11,0-.32,0-.49v-1Zm3,7c-1.59.37-1.19,1.22-.44,2s.27,2.44,2.08,2C20,44.89,21,44.31,21,42.71c0-.5,0-1,0-1.49A2.48,2.48,0,0,0,17,41.22Z" transform="translate(-0.95 -1.24)"/><path class="cls-19" d="M14,34.22H13c-1.73.22-2.62-.66-3-2.25-.12-.49-.39-.86-1-.75l-1-2c.33-1.93,1.83-.66,2.75-1s2.08.64,2.25-1h4a2.34,2.34,0,0,0,2.27,2,4,4,0,0,0,3.73-2,23.14,23.14,0,0,0,6.68,1.21c.12,0,.22.51.32.79-.14,1.06-1.49,1.73-1,3a6.51,6.51,0,0,0-1.43,0c-.42,2.15-1.94,2.07-3.62,2C20.63,34.15,17.32,34.22,14,34.22Z" transform="translate(-0.95 -1.24)"/><path class="cls-20" d="M13,35.22c0,.17.07.38,0,.49-.68,1-2,0-2.64.74-.78.93-.28,2.2-.33,3.32-.07,1.49,0,3,0,4.48,0,4.07,0,4.2,4.27,3.94,3.89-.24,7.43-1.55,9.95-4.73A7,7,0,0,0,26,38.73c-.09-2.45,0-2.48-2.3-2.5-2.82,0-5.64,0-8.46,0-.68,0-1.36,0-1.28-1,4.45,0,8.91,0,13.36,0,1.28,0,1.69.36,1.66,1.65C29,41,29,45.1,29,49.22H9v-14Z" transform="translate(-0.95 -1.24)"/><path class="cls-21" d="M29,32.22c-.49-1.27.86-1.94,1-3h2c1.7,4.89.8,10,1,14.94,0,.68-.62,1.37-1,2.06-1,.08-1-.6-1-1.28,0-2.81,0-5.63,0-8.44,0-.68,0-1.36-1-1.28C29.86,34.16,28.51,33.49,29,32.22Z" transform="translate(-0.95 -1.24)"/><path class="cls-3" d="M9,49.22H29a.76.76,0,0,1-.79,1q-9.21,0-18.43,0A.76.76,0,0,1,9,49.22Z" transform="translate(-0.95 -1.24)"/><path class="cls-3" d="M6,47.22v-1c1,.08,1-.6,1-1.28,0-2.81,0-5.63,0-8.44,0-.68,0-1.36,1-1.28C8,38.81,8,42.4,8,46,8,47.66,6.87,47.13,6,47.22Z" transform="translate(-0.95 -1.24)"/><path class="cls-22" d="M13,35.22H8c-.2-.82,1.77-1.46.12-2.5-.43-.27-.28-1.48.88-1.5.61-.11.87.26,1,.75.39,1.59,1.28,2.47,3,2.25Z" transform="translate(-0.95 -1.24)"/><path class="cls-23" d="M32,29.22H30c-.11-.27-.2-.78-.32-.79A23.14,23.14,0,0,1,23,27.22v-1a5.35,5.35,0,0,1,1-4h1a.85.85,0,0,0,1,1c-.13.61.29,1.3-.33,1.86-.26.23-1,.91-.26,1,1.85.13,3.68,2,5.62.2.18-.17.64,0,1,0Z" transform="translate(-0.95 -1.24)"/><path class="cls-24" d="M32,29.22v-3a2.45,2.45,0,0,1,2-2c2,.19,2,.19,2,3a2.3,2.3,0,0,0-.47,0C35.15,29.31,33.7,29.48,32,29.22Z" transform="translate(-0.95 -1.24)"/><path class="cls-25" d="M13,18.22v-7c.09-1.5,1.24-.85,2-1a4.67,4.67,0,0,0,3.77,2.06c1.4.19,2.53,1.33,4.15,0,1-.79,2,.12,2.08,1.48a16.63,16.63,0,0,1-1,7.43c-1.29-.51-2,.95-3,1-1.32.05-2.64,0-4,0C14.43,21.71,13.51,20.79,13,18.22Zm6.08,2A2.72,2.72,0,0,0,21,18.35a1.27,1.27,0,0,0-.24-.87c-.17-.3-.38-.12-.71.17s-1,.66-1.21.53c-1-.73-2.18-1-2.47.32-.24,1.11,1.82.59,2.18,1.72C18.54,20.26,18.84,20.22,19.08,20.22Z" transform="translate(-0.95 -1.24)"/><path class="cls-26" d="M29,14.22c.81.05,1-.44,1-1.12,0-.4.08-.92.68-.64.18.08.21.5.31.77.13.61-.06,1.19.29,1.87,1.08,2,1,2.09-1.12,2.13a8.06,8.06,0,0,0-1.48,0,2,2,0,0,1-2.37-1.3c-.36-1.31,1.62-.28,1.86-1.36C28.23,14.4,28.72,14.34,29,14.22Z" transform="translate(-0.95 -1.24)"/><path class="cls-27" d="M25,21.22a.85.85,0,0,1,1-1v1Z" transform="translate(-0.95 -1.24)"/><path class="cls-28" d="M25,22.22H24v-1h1Z" transform="translate(-0.95 -1.24)"/><path class="cls-29" d="M26,23.22a.85.85,0,0,1-1-1h1Z" transform="translate(-0.95 -1.24)"/><path class="cls-30" d="M26,22.22H25v-1h1Z" transform="translate(-0.95 -1.24)"/><path class="cls-21" d="M9,31.22c-1.16,0-1.31,1.22-.88,1.5,1.65,1-.32,1.69-.12,2.5-1-.08-1,.6-1,1.28,0,2.81,0,5.63,0,8.44,0,.68,0,1.36-1,1.28-.17-1.07-1.15-1.75-1.07-3.06a53.07,53.07,0,0,0,0-9.39C4.7,32,6.48,30.91,6,29.22H8Z" transform="translate(-0.95 -1.24)"/><path class="cls-31" d="M17,27.22H15a2.46,2.46,0,0,1,2-3c1.28,0,2.56,0,3.83,0,1.63,0,1.06,1.17,1.17,2s-.51,1-1.2,1Z" transform="translate(-0.95 -1.24)"/><path class="cls-32" d="M22,26.22c-.11-.83.46-2-1.17-2-1.28,0-2.55,0-3.83,0v-2c1.32,0,2.64,0,4,0,1.09,0,1.75-1.5,3-1v1a5.35,5.35,0,0,0-1,4Z" transform="translate(-0.95 -1.24)"/><path class="cls-33" d="M38,28.22v1H37v-1c0-1.65,0-3.3,0-5,0-.92.53-1.12,1.24-1,.92.11.79.85.77,1.49,0,.16,0,.33,0,.5-.87-.06-1,.49-1,1.18C38,26.34,38,27.28,38,28.22Z" transform="translate(-0.95 -1.24)"/><path class="cls-34" d="M38,28.22c0-.94,0-1.88,0-2.82,0-.68.13-1.24,1-1.18.13.71-.44,1.84.73,2,3.15.34-.74,1.5.27,2Z" transform="translate(-0.95 -1.24)"/><path class="cls-35" d="M37,29.22h1a5.35,5.35,0,0,0-1,4c-1.29.16-2.23,0-2-1.71A2.5,2.5,0,0,1,37,29.22Z" transform="translate(-0.95 -1.24)"/><path class="cls-36" d="M21,41.22c0,.5,0,1,0,1.49,0,1.6-1,2.17-2.35,2.52-1.82.46-1.44-1.28-2.08-2s-1.16-1.67.44-2c1.52-.11.67,2,1.46,1.86s1.37-1.21,2.07-1.85C20.62,41.15,20.84,41.22,21,41.22Z" transform="translate(-0.95 -1.24)"/><path class="cls-37" d="M21,41.22c-.16,0-.38-.07-.47,0-.7.64-1.3,1.71-2.07,1.85s.07-2-1.46-1.86A2.48,2.48,0,0,1,21,41.22Z" transform="translate(-0.95 -1.24)"/><path class="cls-38" d="M22,26.22h1v1a4,4,0,0,1-3.73,2,2.34,2.34,0,0,1-2.27-2h3.8C21.49,27.22,22.06,27.11,22,26.22Z" transform="translate(-0.95 -1.24)"/><path class="cls-39" d="M19.08,20.22c-.24,0-.54,0-.55,0-.35-1.13-2.42-.61-2.18-1.72.29-1.32,1.46-1.05,2.47-.32.19.14.88-.24,1.21-.53s.53-.47.71-.17a1.27,1.27,0,0,1,.24.87A2.72,2.72,0,0,1,19.08,20.22Z" transform="translate(-0.95 -1.24)"/></g></g></svg>