<svg xmlns="http://www.w3.org/2000/svg" viewBox="0 0 50.03 50.05"><defs><style>.cls-1{fill:#19191d;}.cls-2{fill:#0d0d0e;}.cls-3{fill:#202021;}.cls-4{fill:#d9dbe3;}.cls-5{fill:#504f5b;}.cls-6{fill:#1d1c1d;}.cls-7{fill:#262424;}.cls-8{fill:#010101;}.cls-9{fill:#242524;}.cls-10{fill:#323030;}.cls-11{fill:#0a0a0a;}.cls-12{fill:#f2f1f1;}.cls-13{fill:#adafb7;}.cls-14{fill:#1e1f20;}.cls-15{fill:#c0c3cb;}.cls-16{fill:#52515e;}.cls-17{fill:#38393b;}.cls-18{fill:#2d2d2f;}.cls-19{fill:#22361d;}.cls-20{fill:#2a2c2d;}.cls-21{fill:#090a0a;}.cls-22{fill:#080808;}.cls-23{fill:#121213;}.cls-24{fill:#050506;}.cls-25{fill:#b8b9c1;}.cls-26{fill:#8d8e93;}.cls-27{fill:#454648;}.cls-28{fill:#020202;}.cls-29{fill:#76c160;}.cls-30{fill:#72b95b;}.cls-31{fill:#994137;}.cls-32{fill:#ee6c60;}.cls-33{fill:#4d211c;}.cls-34{fill:#77c261;}.cls-35{fill:#7cb05e;}.cls-36{fill:#1f231f;}.cls-37{fill:#2b2423;}.cls-38{fill:#d76053;}</style></defs><title>o4</title><g id="Warstwa_2" data-name="Warstwa 2"><g id="Warstwa_1-2" data-name="Warstwa 1"><path class="cls-1" d="M51.13,47.72l-1.25,1-.79-1.06c.77-2.56-.47-3.09-2.78-3.07-14.72.12-29.44.15-44.16.2l-.77-1c.37-1.71,1.86-.57,2.71-1.06,13.09,0,26.18,0,39.27.09,2.62,0,3.9-.48,3.83-3.5C47,31.66,47.12,24,47.11,16.41c0-1,.2-2-1-2.51a10.42,10.42,0,0,0-9.43-.29l0,1.12H45.1c-.17,2,1,4.16-.78,5.94-.58-1.2-.3-2.46-.28-3.71-2.22-2.2-4.56-1.65-6.93-.31l-.06,0c-1.36.91-.9,2.32-.91,3.56,0,4.87,0,9.74,0,14.61,0,.67-.5.84-1,1l-.12-1.31.27-30.83q.4,0,.79,0l0,0c0,1.46-.07,2.91,0,4.37.1,4.06.63,4.33,5,2.67-.17-2.62.36-5.27-.41-7.86l1.39-.18h0c0,1.95.13,3.91,0,5.84-.21,2.72,1.07,3.48,3.5,3a2.3,2.3,0,0,1,2.56,2c0,8.45,0,16.9,0,25.34,0,1.26-.48,2.68.75,3.72.37,1.16,1.34,1,2.24,1Z" transform="translate(-1.1 -0.72)"/><path class="cls-2" d="M12.22,1.71A4,4,0,0,1,12,1.07c0-.1.09-.23.14-.35h28c-.26,1.06-1.61.88-2,1.77L36.93,3.71a7.1,7.1,0,0,0-.77,0l0,0C36,1,34,1.71,32.46,1.7,25.72,1.66,19,1.7,12.22,1.71Z" transform="translate(-1.1 -0.72)"/><path class="cls-3" d="M38.11,2.49c.41-.89,1.75-.71,2-1.77h1l1,2-1.39.18Z" transform="translate(-1.1 -0.72)"/><path class="cls-4" d="M35.33,3.72l-.27,30.83A5.45,5.45,0,0,1,32,35.76c-5.93-.09-11.86,0-17.79-.05a2.53,2.53,0,0,1-2.15-1c0-6.78,0-13.56,0-20.33,0-1.59.56-3.34-.88-4.69v-1c1.62-1.79.63-4,1.06-6l-.12.12c7.14-.87,14.3-.22,21.45-.38A1.66,1.66,0,0,1,35.33,3.72ZM14.19,4.82c-1.64,2.33-1.43,4.7-.15,7.09.1.59.55.83,1,1v1.59c-3,2.08-1.83,4.94-1.38,7.62a1.8,1.8,0,0,0,1.79,1.47c2.23-.07,4.63.92,6.62-.9l2-2c2.05,1.21,4,1.17,6.36-.53a15.83,15.83,0,0,0-6.2-.34c-1.4-.64-1.47-1.36-.13-2.16,2.91.79,5.79,1,8.58-.86H24.25l-1.94-1.1a1.77,1.77,0,0,0-1.15-1.18V12.91a1.69,1.69,0,0,0,1.13-1.83,5.82,5.82,0,0,0-.08-5.56.94.94,0,0,0-.65-1c-2.49-1.14-5-1.61-7.35.27Zm4,29.53c3.9-.05,4.62-.77,4.63-4.61,0-4.06-.89-5-4.89-4.92s-4.77,1-4.66,5.17C13.33,33.65,14.19,34.41,18.15,34.35ZM24.2,6.88a12.3,12.3,0,0,0,8.57,0A9.35,9.35,0,0,0,24.2,6.88Zm8.46,21.49a7.9,7.9,0,0,0-8.34,0ZM29.83,9.64c-1.9-.27-4-1.79-6,.84C26.19,10.72,28.07,11,29.83,9.64ZM24.38,31.19c1.88.56,3.69.9,5.47-.25C28,30.25,26.18,29.89,24.38,31.19Z" transform="translate(-1.1 -0.72)"/><path class="cls-5" d="M44.32,20.68c1.74-1.79.61-3.95.78-5.94l1-.83c1.23.47,1,1.55,1,2.51,0,7.62-.12,15.25.07,22.86.07,3-1.21,3.52-3.83,3.5-13.09-.11-26.18-.07-39.27-.09L4,40.81c1.89-1.13,1.06-3,1.08-4.52.09-6.49,0-13,.07-19.47.06-3.85.92-4.33,4.72-3C9.07,15.06,6.94,14.89,7,17.22c.25,7,.12,14,.07,21,0,1.92.8,2.64,2.68,2.63,10.82,0,21.64-.08,32.46,0,2.58,0,3.07-1.18,3-3.36-.13-4.66-.13-9.32-.19-14Z" transform="translate(-1.1 -0.72)"/><path class="cls-6" d="M45.05,23.51c.05,4.66.05,9.32.19,14,.06,2.18-.43,3.39-3,3.36-10.82-.1-21.64-.06-32.46,0-1.88,0-2.69-.71-2.68-2.63.05-7,.17-14-.07-21-.08-2.33,2-2.16,2.86-3.41-3.81-1.33-4.67-.84-4.72,3-.1,6.49,0,13-.07,19.47,0,1.53.82,3.39-1.08,4.52-1.37-1-.73-2.45-.74-3.68-.07-6.16,0-12.33,0-18.49,0-6.37.49-6.9,6.93-7.89a2.15,2.15,0,0,1,.94,2.1q0,9.58,0,19.17a2.12,2.12,0,0,1-.8,1.7L9.95,17.1l-1.13,0c0,6.27.12,12.55-.06,18.82-.08,2.78.72,3.75,3.62,3.69,8.14-.19,16.29-.06,24.44-.06,7.15,0,7,0,7.22-7C44.13,29.54,42.87,26.31,45.05,23.51Z" transform="translate(-1.1 -0.72)"/><path class="cls-7" d="M5.16,50.51a3,3,0,0,1-2.77-1.84l.77-1C4.62,49,6.43,49.08,8.28,49.08L47.13,49a5.73,5.73,0,0,1-.06.82c-12.56,0-25.12,0-37.68,0C8,49.81,6.39,49.21,5.16,50.51Z" transform="translate(-1.1 -0.72)"/><path class="cls-8" d="M5.16,50.51c1.22-1.3,2.81-.7,4.22-.7,12.56,0,25.12,0,37.68,0q0,.36,0,.71Q26.13,51,5.16,50.51Z" transform="translate(-1.1 -0.72)"/><path class="cls-9" d="M10.31,33.71a2.12,2.12,0,0,0,.8-1.7q0-9.58,0-19.17a2.15,2.15,0,0,0-.94-2.1,1,1,0,0,1,.94-1c1.44,1.34.86,3.1.88,4.69.06,6.78,0,13.56,0,20.33a1.24,1.24,0,0,0-.91,1A1.67,1.67,0,0,1,10.31,33.71Z" transform="translate(-1.1 -0.72)"/><path class="cls-3" d="M35.33,3.72A1.66,1.66,0,0,0,33.51,2.4c-7.15.17-14.31-.48-21.45.38l.16-1.07c6.75,0,13.49-.05,20.24,0,1.5,0,3.53-.67,3.66,2Q35.72,3.73,35.33,3.72Z" transform="translate(-1.1 -0.72)"/><path class="cls-10" d="M12.17,2.66c-.43,2,.56,4.24-1.06,6C9.4,5,9.66,3.56,12.17,2.66Z" transform="translate(-1.1 -0.72)"/><path class="cls-11" d="M3.16,47.63l-.77,1C.8,47.29,1,45.54,1.36,43.75l.77,1C1.62,46,2.61,46.74,3.16,47.63Z" transform="translate(-1.1 -0.72)"/><path class="cls-7" d="M47.11,50.5q0-.36,0-.71a5.73,5.73,0,0,0,.06-.82l2-1.35.79,1.06A3.09,3.09,0,0,1,47.11,50.5Z" transform="translate(-1.1 -0.72)"/><path class="cls-12" d="M10.31,33.71a1.67,1.67,0,0,0,.8,2c.57,1.47,1.91,1.77,3.19,1.79,6.07.07,12.15,0,18.23,0a2.37,2.37,0,0,0,2.65-1.7c.5-.17,1-.34,1-1,1.18-1.46.57-3.18.62-4.78.14-4.46.17-8.92.24-13.38l.06,0c2.31.07,4.65-.3,6.93.31,0,1.24-.3,2.51.28,3.71l.73,2.84c-2.19,2.79-.92,6-1,9-.21,7-.07,7-7.22,7-8.15,0-16.29-.12-24.44.06-2.9.07-3.7-.9-3.62-3.69.18-6.27.06-12.54.06-18.82l1.13,0Z" transform="translate(-1.1 -0.72)"/><path class="cls-13" d="M49.08,47.61l-2,1.35-38.85.11c-1.84,0-3.66-.1-5.12-1.45-.55-.89-1.54-1.61-1-2.88,14.72-.06,29.44-.08,44.16-.2C48.61,44.53,49.85,45,49.08,47.61Z" transform="translate(-1.1 -0.72)"/><path class="cls-14" d="M35.18,35.86a2.37,2.37,0,0,1-2.65,1.7c-6.08,0-12.15,0-18.23,0-1.28,0-2.62-.32-3.19-1.79a1.24,1.24,0,0,1,.91-1,2.53,2.53,0,0,0,2.15,1c5.93,0,11.86,0,17.79.05a5.45,5.45,0,0,0,3.08-1.21Z" transform="translate(-1.1 -0.72)"/><path class="cls-15" d="M38.11,2.49l2.61.42c.77,2.59.24,5.24.41,7.86-4,.23-4,.23-4.13-3.1,0-1.32-.05-2.64-.07-4Z" transform="translate(-1.1 -0.72)"/><path class="cls-3" d="M48.16,13.63c1,.68.85,1.72.85,2.69q0,13.19-.12,26.37c-1.23-1-.75-2.46-.75-3.72C48.11,30.53,48.15,22.08,48.16,13.63Z" transform="translate(-1.1 -0.72)"/><path class="cls-3" d="M37,16.69c-.07,4.46-.09,8.92-.24,13.38-.05,1.6.55,3.32-.62,4.78,0-4.87-.07-9.74,0-14.61C36.14,19,35.68,17.61,37,16.69Z" transform="translate(-1.1 -0.72)"/><path class="cls-16" d="M46.08,13.9l-1,.83H36.67l0-1.12A10.42,10.42,0,0,1,46.08,13.9Z" transform="translate(-1.1 -0.72)"/><path class="cls-3" d="M36.93,3.71c0,1.32,0,2.64.07,4,.11,3.33.12,3.33,4.13,3.1-4.37,1.66-4.9,1.39-5-2.67,0-1.46,0-2.91,0-4.37A7.1,7.1,0,0,1,36.93,3.71Z" transform="translate(-1.1 -0.72)"/><path class="cls-3" d="M42.11,2.74c1.59,1.64.94,3.72.82,5.54-.14,2.17,1.15,2.71,2.66,3.31-2.43.46-3.71-.29-3.5-3C42.24,6.65,42.12,4.69,42.11,2.74Z" transform="translate(-1.1 -0.72)"/><path class="cls-3" d="M44,17c-2.29-.61-4.62-.25-6.93-.31C39.48,15.32,41.82,14.77,44,17Z" transform="translate(-1.1 -0.72)"/><path class="cls-17" d="M18.15,34.35c-4,.05-4.82-.7-4.92-4.35-.11-4.13.78-5.12,4.66-5.17s4.91.86,4.89,4.92C22.76,33.59,22,34.3,18.15,34.35Zm2-7.43c-1.82.39-4.84-1.95-5,2.29-.09,3.45-.07,3.51,4.94,3.22A4,4,0,0,0,20.11,26.92Z" transform="translate(-1.1 -0.72)"/><path class="cls-18" d="M22.12,22.72c-2,1.83-4.39.83-6.62.9a1.8,1.8,0,0,1-1.79-1.47c-.45-2.68-1.57-5.54,1.38-7.62l6.07,0a1.77,1.77,0,0,1,1.15,1.18l-.45-.06-1,.08c-1.86.42-4.1-1.15-5.6,1.1l-.09,4.63c1.2,2.24,3.3.8,5,1.22l1.38,0,.31.06Z" transform="translate(-1.1 -0.72)"/><path class="cls-19" d="M21.57,4.5a.94.94,0,0,1,.65,1,17.25,17.25,0,0,0,.08,5.56,1.69,1.69,0,0,1-1.13,1.83l-6.09,0c-.49-.19-.94-.44-1-1l.15-7.09,0,0Zm-.81,6.19c.44-5,.31-5.11-3.14-5-4.33.12-1.94,3.15-2.25,5C17.16,12.25,19,12.14,20.76,10.69Z" transform="translate(-1.1 -0.72)"/><path class="cls-20" d="M24.2,6.88a9.35,9.35,0,0,1,8.57,0A12.3,12.3,0,0,1,24.2,6.88Z" transform="translate(-1.1 -0.72)"/><path class="cls-21" d="M32.66,28.37H24.31A7.9,7.9,0,0,1,32.66,28.37Z" transform="translate(-1.1 -0.72)"/><path class="cls-22" d="M24.25,16.85h8.48c-2.79,1.83-5.67,1.66-8.58.86A4.55,4.55,0,0,0,24.25,16.85Z" transform="translate(-1.1 -0.72)"/><path class="cls-23" d="M29.83,9.64c-1.76,1.34-3.64,1.09-6,.84C25.86,7.85,27.93,9.37,29.83,9.64Z" transform="translate(-1.1 -0.72)"/><path class="cls-24" d="M24.27,19.87a15.83,15.83,0,0,1,6.2.34c-2.38,1.7-4.31,1.74-6.36.53A2.22,2.22,0,0,0,24.27,19.87Z" transform="translate(-1.1 -0.72)"/><path class="cls-25" d="M15.08,12.94l6.09,0v1.65l-6.07,0Z" transform="translate(-1.1 -0.72)"/><path class="cls-26" d="M24.27,19.87a2.22,2.22,0,0,1-.16.87l-2,2-.3.09-.31-.06c1.15-2.3.71-4.68.35-7.06l.45.06,1.94,1.1a4.55,4.55,0,0,1-.11.86C22.8,18.51,22.87,19.23,24.27,19.87Z" transform="translate(-1.1 -0.72)"/><path class="cls-27" d="M21.57,4.5l-7.35.27C16.6,2.89,19.07,3.36,21.57,4.5Z" transform="translate(-1.1 -0.72)"/><path class="cls-27" d="M14.19,4.82,14,11.92C12.75,9.52,12.54,7.15,14.19,4.82Z" transform="translate(-1.1 -0.72)"/><path class="cls-28" d="M24.38,31.19c1.8-1.3,3.64-.94,5.47-.25C28.07,32.1,26.26,31.75,24.38,31.19Z" transform="translate(-1.1 -0.72)"/><path class="cls-27" d="M22.3,11.08a17.25,17.25,0,0,1-.08-5.56A5.82,5.82,0,0,1,22.3,11.08Z" transform="translate(-1.1 -0.72)"/><path class="cls-29" d="M20.1,32.43c-5,.3-5,.23-4.94-3.22.11-4.24,3.13-1.9,5-2.29l-.08,2c-1.26,0-3.1-1-3.4,1-.15,1,1.45.74,2.36.72A1.58,1.58,0,0,1,20.1,32.43Z" transform="translate(-1.1 -0.72)"/><path class="cls-30" d="M20.1,32.43A1.58,1.58,0,0,0,19,30.66l1-1.74.08-2A4,4,0,0,1,20.1,32.43Z" transform="translate(-1.1 -0.72)"/><path class="cls-31" d="M15.28,16.87c1.5-2.25,3.74-.68,5.6-1.1L21,16.84l-1.75.86a4.83,4.83,0,0,1-3-1A6,6,0,0,0,15.28,16.87Z" transform="translate(-1.1 -0.72)"/><path class="cls-8" d="M21,16.84l-.09-1.07,1-.08c.36,2.38.8,4.76-.35,7.06l-1.38,0q0-.39,0-.79C21.89,20.46,21,18.58,21,16.84Z" transform="translate(-1.1 -0.72)"/><path class="cls-32" d="M15.28,16.87a6,6,0,0,1,.92-.14,9.69,9.69,0,0,0,.9,5l-1.9-.22Z" transform="translate(-1.1 -0.72)"/><path class="cls-33" d="M15.18,21.5l1.9.22,2.16-.95c0,.66.42.93.93,1.17q0,.39,0,.79C18.49,22.3,16.38,23.74,15.18,21.5Z" transform="translate(-1.1 -0.72)"/><path class="cls-34" d="M15.37,10.69c.31-1.86-2.08-4.88,2.25-5,3.45-.1,3.57,0,3.14,5Z" transform="translate(-1.1 -0.72)"/><path class="cls-35" d="M15.37,10.69h5.39C19,12.14,17.16,12.25,15.37,10.69Z" transform="translate(-1.1 -0.72)"/><path class="cls-36" d="M20,28.91l-1,1.74c-.91,0-2.51.24-2.36-.72C16.93,28,18.76,28.94,20,28.91Z" transform="translate(-1.1 -0.72)"/><path class="cls-37" d="M19.25,20.77l-2.16.95a9.69,9.69,0,0,1-.9-5,4.83,4.83,0,0,0,3,1C18.71,18.73,20.63,19.73,19.25,20.77Z" transform="translate(-1.1 -0.72)"/><path class="cls-38" d="M19.25,20.77c1.38-1-.54-2,0-3.06L21,16.84c0,1.74.93,3.62-.79,5.09C19.67,21.7,19.22,21.42,19.25,20.77Z" transform="translate(-1.1 -0.72)"/></g></g></svg>