<svg xmlns="http://www.w3.org/2000/svg" viewBox="0 0 50.1 50.28"><defs><style>.cls-1{fill:#2e181a;}.cls-2{fill:#211b0f;}.cls-3{fill:#080702;}.cls-4{fill:#352d2e;}.cls-5{fill:#f19aa1;}.cls-6{fill:#1d1a19;}.cls-7{fill:#241f1a;}.cls-8{fill:#12100e;}.cls-9{fill:#0b0a0a;}.cls-10{fill:#302823;}.cls-11{fill:#312b2b;}.cls-12{fill:#1d1c1c;}.cls-13{fill:#010101;}.cls-14{fill:#ec7893;}.cls-15{fill:#ef7994;}.cls-16{fill:#eab84d;}.cls-17{fill:#d7ba92;}.cls-18{fill:#0f0908;}.cls-19{fill:#f6d8ac;}.cls-20{fill:#946c50;}.cls-21{fill:#825e46;}.cls-22{fill:#423a2f;}.cls-23{fill:#917c60;}.cls-24{fill:#f4d360;}.cls-25{fill:#35322e;}.cls-26{fill:#27220f;}.cls-27{fill:#655928;}</style></defs><title>o5</title><g id="Warstwa_2" data-name="Warstwa 2"><g id="Warstwa_1-2" data-name="Warstwa 1"><path class="cls-1" d="M1.5,51.47c.31-2.44-.84-5,.82-7.32l1,1.3c.6,1.31-1,3.31,1.29,4.09,2,.66,2.72-1,3.84-2a2.88,2.88,0,0,0,2.93,2.06c4.39-.09,8.8-.13,13.19,0,1.72.06,2.13-1.19,3-2.08,1.07,1.52,2.66,3,4.28,1.77,1.47-1.1,1-3.28-.08-4.82a9.73,9.73,0,0,0-2.25-1.72c-.66-.47-1.84-.09-2-1.29,3.61-.39,6.28.42,6.11,4.83l-.06,5.13Z" transform="translate(-1.4 -1.19)"/><path class="cls-2" d="M51.5,18.47c-4.91,1.76-10,.63-15,1l0,.1c-.06-1.86,1.17-1.85,2.59-2.06,3.45-.52,8.18,2,10.08-1.3,1.58-2.77.44-7.09.49-10.73,0-.66,0-1.32-.06-2l.76,0c.83,4.31-1.06,8.86,1.12,13.06Z" transform="translate(-1.4 -1.19)"/><path class="cls-3" d="M51.5,16.47c-2.18-4.2-.29-8.75-1.12-13.06a1.51,1.51,0,0,0,.08-.73l1-.21Z" transform="translate(-1.4 -1.19)"/><path class="cls-4" d="M33.5,51.47l.06-5.13c1.86,1.43.57,3.43.94,5.13Z" transform="translate(-1.4 -1.19)"/><path class="cls-5" d="M27.53,47.57c-.84.89-1.25,2.14-3,2.08-4.39-.15-8.79-.11-13.19,0a2.88,2.88,0,0,1-2.93-2.06c.29-2-1.9-3-2-4.81l6-1.47a2.3,2.3,0,0,0,2.8,0l1,1a6.2,6.2,0,0,0,6.24-1,6.29,6.29,0,0,0,4-.72l.93.84c.2,1.2,1.38.82,2,1.29C28.62,44.3,27.54,45.72,27.53,47.57Z" transform="translate(-1.4 -1.19)"/><path class="cls-6" d="M26.52,40.67a6.29,6.29,0,0,1-4,.72l-1-.93c.38-5.43-3.91-2.23-5.63-2.5-2.05-.33-1.76,1.91-.55,3.36a2.3,2.3,0,0,1-2.8,0l-1-1.68,1.22-1.19c1-.94.71-2.24.93-3.4l4.67,1.25c1.11.3,2.39-.18,2.33-1.08-.09-1.33-1.46-.49-2.29-.57l.11-.15,1.39-1.19c6.26.29,3.88-4.57,4.53-7.62L22.51,23.6l.92-.38c4.3-1.84.69-3.83.1-5.76l1-1c6.2,7.17,6.09,12.91-.21,18.81C20.5,38.81,25.27,39.06,26.52,40.67Z" transform="translate(-1.4 -1.19)"/><path class="cls-7" d="M22.51,23.6l1.91,2.07c-1.8-1.86-3.31,2.07-5.75.05-1.42-1.17-4.47-3.56-6.57-1.7-1.8,1.6-.62,4.7-.55,7.14a8.58,8.58,0,0,0,.75,2.32l-.87,1.2c-2-2.64-6.59-4-4.88-8.6,1.58-4.28,1.7-9.5,6.93-11.62l2,.88c-1.38,1-4,1.29-3.53,3.51.32,1.69,2.2,2.72,3.81,3.65C17.91,23.74,20.24,23.36,22.51,23.6Z" transform="translate(-1.4 -1.19)"/><path class="cls-8" d="M50.46,2.68a1.51,1.51,0,0,1-.08.73l-.76,0-1.16.09-18-.18-.89-.87C36.55.87,43.51.57,50.46,2.68Z" transform="translate(-1.4 -1.19)"/><path class="cls-9" d="M29.57,2.49l.89.87v.1c-1.73,4.28-1.35,8.6-.27,12.94l3.27,2.16c.27,2.75,2.14.35,3.07,1l0-.1c-3.24,4-6.54,3.66-7.64-1.7C27.86,12.86,27.09,7.45,29.57,2.49Z" transform="translate(-1.4 -1.19)"/><path class="cls-10" d="M15.49,15.34l-2-.88c4.23-2.38,7.92-1.8,11,2l-1,1c-1.43-.44-2.27-2.15-4-1.87Z" transform="translate(-1.4 -1.19)"/><path class="cls-11" d="M11.52,39.61l1,1.68-6,1.47-1.92.78-.06-1.94C6.57,40,9.14,40.15,11.52,39.61Z" transform="translate(-1.4 -1.19)"/><path class="cls-12" d="M11.42,34.67l.87-1.2L13.67,35c-.22,1.16.07,2.46-.93,3.4C13,36.93,12.08,35.85,11.42,34.67Z" transform="translate(-1.4 -1.19)"/><path class="cls-13" d="M4.48,41.61l.06,1.94L3.31,45.45l-1-1.3C2.7,43,3,41.85,4.48,41.61Z" transform="translate(-1.4 -1.19)"/><path class="cls-14" d="M27.53,47.57c0-1.85,1.08-3.27,2-4.77a9.73,9.73,0,0,1,2.25,1.72c1.11,1.54,1.54,3.71.08,4.82C30.19,50.56,28.61,49.09,27.53,47.57Z" transform="translate(-1.4 -1.19)"/><path class="cls-15" d="M3.31,45.45l1.24-1.91,1.92-.78c.08,1.84,2.27,2.82,2,4.81-1.13,1-1.88,2.63-3.84,2C2.29,48.77,3.9,46.76,3.31,45.45Z" transform="translate(-1.4 -1.19)"/><path class="cls-16" d="M36.53,19.52c-.93-.62-2.81,1.79-3.07-1,1.43-3.89,5.94-.42,7.81-3.27l0,0c5.47-1.25,7.19-4.05,7.23-11.78l1.16-.09c0,.66.07,1.32.06,2-.05,3.64,1.09,8-.49,10.73-1.9,3.32-6.63.78-10.08,1.3C37.7,17.67,36.47,17.65,36.53,19.52Z" transform="translate(-1.4 -1.19)"/><path class="cls-17" d="M15.29,41.32c-1.2-1.45-1.5-3.69.55-3.36,1.72.27,6-2.92,5.63,2.5-1.65.9-3.82.35-5.23,1.89Z" transform="translate(-1.4 -1.19)"/><path class="cls-18" d="M16.24,42.35c1.41-1.55,3.59-1,5.23-1.89l1,.93A6.2,6.2,0,0,1,16.24,42.35Z" transform="translate(-1.4 -1.19)"/><path class="cls-19" d="M13.67,35l-1.37-1.55a8.58,8.58,0,0,1-.75-2.32c-.07-2.44-1.25-5.54.55-7.14,2.09-1.86,5.15.53,6.57,1.7,2.44,2,4-1.91,5.75-.05-.65,3.05,1.73,7.91-4.53,7.62.2-2.55.15-2.56-5-1.35l3.6,2.54-.11.15,0,1.64Z" transform="translate(-1.4 -1.19)"/><path class="cls-20" d="M15.49,15.34l4,.26c1.69,2.35,3.41,4.68,3.93,7.63l-.92.38c-2.26-.24-4.6.14-6.74-1.1-1.61-.93-3.49-2-3.81-3.65C11.54,16.63,14.1,16.35,15.49,15.34Z" transform="translate(-1.4 -1.19)"/><path class="cls-21" d="M23.43,23.22c-.52-3-2.25-5.28-3.93-7.63,1.77-.28,2.6,1.43,4,1.87C24.11,19.4,27.73,21.38,23.43,23.22Z" transform="translate(-1.4 -1.19)"/><path class="cls-22" d="M18.49,34.48l-3.6-2.54c5.14-1.21,5.19-1.2,5,1.35Z" transform="translate(-1.4 -1.19)"/><path class="cls-23" d="M18.33,36.27l0-1.64c.83.08,2.2-.77,2.29.57C20.72,36.09,19.44,36.57,18.33,36.27Z" transform="translate(-1.4 -1.19)"/><path class="cls-24" d="M48.46,3.53c0,7.73-1.76,10.53-7.23,11.78.06-1,.11-2-1.33-1.9a1.21,1.21,0,0,0-.79.89c.14,1.47,1.21,1.13,2.15,1-1.87,2.85-6.38-.61-7.81,3.27l-3.27-2.16.27-12.94v-.1Zm-11,3.56c1.47.8,4-.39,3.67,2.38,2.78-.33,1.61-2,.8-3C40.62,4.85,39.09,5,37.44,7.1Z" transform="translate(-1.4 -1.19)"/><path class="cls-25" d="M30.45,3.46l-.27,12.94C29.1,12.06,28.72,7.74,30.45,3.46Z" transform="translate(-1.4 -1.19)"/><path class="cls-26" d="M37.44,7.1C39.09,5,40.62,4.85,41.9,6.45c.81,1,2,2.7-.8,3C41.4,6.71,38.9,7.9,37.44,7.1Z" transform="translate(-1.4 -1.19)"/><path class="cls-27" d="M41.27,15.28c-.94.15-2,.5-2.15-1a1.21,1.21,0,0,1,.79-.89c1.44-.14,1.38.91,1.33,1.9Z" transform="translate(-1.4 -1.19)"/></g></g></svg>