<svg xmlns="http://www.w3.org/2000/svg" viewBox="0 0 57.27 50.08"><defs><style>.cls-1{fill:#161517;}.cls-2{fill:#aad7ee;}.cls-3{fill:#dcdee7;}.cls-4{fill:#53515e;}.cls-5{fill:#655ba8;}.cls-6{fill:#14161f;}.cls-7{fill:#474756;}.cls-8{fill:#dbdde2;}.cls-9{fill:#2d2424;}.cls-10{fill:#1d1e1e;}.cls-11{fill:#1a1b1b;}.cls-12{fill:#181818;}.cls-13{fill:#080e12;}.cls-14{fill:#6c8ea0;}.cls-15{fill:#010101;}.cls-16{fill:#1c1b15;}.cls-17{fill:#ed979e;}</style></defs><title>o6</title><g id="Warstwa_2" data-name="Warstwa 2"><g id="Warstwa_1-2" data-name="Warstwa 1"><path class="cls-1" d="M58.5,41.72v6c-2.6,2.59-5.74,3.12-9.34,3.08-13.11-.17-26.23-.07-39.34-.07a23,23,0,0,1-3.48-.07A5.58,5.58,0,0,1,1.73,46.6c-.46-1.49-1-4,.49-4.54,2.47-.82,1.86-2.38,1.88-3.88.06-4.81,0-9.63,0-14.44,0-4.32-.12-8.64.07-12.95.17-3.83,1.47-5,5.33-5,5,0,9.94.13,14.91.21.08,1.23-.43,1.79-1.72,1.78-4,0-8-.05-12,0S6.51,8.14,6.48,12c0,7.47,0,14.94,0,22.41a30.1,30.1,0,0,0,.2,6.44c.4,1.76,3.37-.13,4,2.05-2.1,1.86-4.85,0-7,1.23.76,4.06,1.24,4.54,5.44,4.55,14,0,27.94,0,41.92,0a13.32,13.32,0,0,0,1.5,0c2.7-.31,3.28-1,4-5h-5c-11.48,0-23,0-34.43,0-1.53,0-3.35.86-4.58-.9.93-1.86,2.65-1,4-1,11-.07,22,0,33-.06,1.27,0,2.66.43,3.79-.51a3.94,3.94,0,0,0,.28-1c0-2.5,0-5,0-7.49v-24c-1.37,1.22-1,2.26-1,3.19,0,4.62-.07,9.24,0,13.86a9.83,9.83,0,0,1-1.06,5.21c-2.39.25-3.24,1.55-2.67,3.86a2.68,2.68,0,0,1-.15,1c-4.13,1.5-5.07.71-4.47-4-4,0-8,0-11.95,0-4.54,0-5-.53-5.1-5.23s0-9.56,0-14.76c-5.77.07-11.15-.32-16.56.21V37.71c13.13-.08,26,.3,38.95-.23,1.79-.34.42-2,1.11-2.75l1.88,0c0,5.38.44,4.94-4.66,4.95H18.93c-2.66,0-5.31-.09-8,0-2,.09-2.54-.8-2.52-2.66q.09-12.45,0-24.89c0-2,.81-2.55,2.67-2.52,4.31.09,8.63-.09,12.94.07,2.61.1,2.58-1.37,2.39-3.16C26.84,4.54,27,2.4,28.5.72h22C52.26,3,52.53,6.23,55.15,8c.51.35.54,1.54.61,2.35.11,1.33.07,2.66.07,4,0,8.16,0,16.33,0,24.49C55.79,40.84,56.06,42.22,58.5,41.72ZM29.37,10l.13,1.58a1.92,1.92,0,0,0-.74,1.73c0,4.33-.06,8.66,0,13,.06,3.2.27,3.22,3.44,3.47,4.6.37,9.21-.74,13.83.67,2.23.68,4.26-1.52,4.29-4,.07-4.83,0-9.66.06-14.49l0-2.41q0-2.46,0-4.93c0-1.15-.49-1.94-1.7-1.94-6.08,0-12.16,0-18.24,0a1.81,1.81,0,0,0-1.87,1.92C28.78,6.45,27.74,8.45,29.37,10Z" transform="translate(-1.23 -0.72)"/><path class="cls-2" d="M50.4,12c0,4.83,0,9.66-.06,14.49,0,2.52-2.06,4.72-4.29,4-4.62-1.41-9.23-.31-13.83-.67-3.16-.25-3.37-.27-3.44-3.47-.08-4.33,0-8.66,0-13a1.92,1.92,0,0,1,.74-1.73ZM34.56,18.64V20.8c0,.32-.06.85.09.92a8.54,8.54,0,0,0,8.18-.06c1-.6-.8-.69-1.25-1.09,1-1.69,2.68-.53,4-.85,1-.24,2.39.55,2.84-1.1C45.55,17,37.35,17,34.56,18.64Zm10.59-4.85H30.55C33.6,15.7,40.48,15.94,45.15,13.79Z" transform="translate(-1.23 -0.72)"/><path class="cls-3" d="M12.45,42.78c1.23,1.76,3.05.89,4.58.9,11.48.08,23,0,34.43,0h5c-.68,4-1.26,4.66-4,5a13.32,13.32,0,0,1-1.5,0c-14,0-27.94,0-41.92,0-4.2,0-4.68-.49-5.44-4.55,2.2-1.28,5,.63,7-1.23Z" transform="translate(-1.23 -0.72)"/><path class="cls-4" d="M12.45,42.78l-1.79.14c-.61-2.19-3.59-.29-4-2.05a30.1,30.1,0,0,1-.2-6.44c0-7.47,0-14.94,0-22.41,0-3.88.4-4.23,4.27-4.29s8,0,12,0c1.29,0,1.8-.55,1.72-1.78l2,.64c.19,1.79.22,3.26-2.39,3.16-4.31-.16-8.63,0-12.94-.07-1.86,0-2.68.52-2.67,2.52q.11,12.45,0,24.89C8.43,39,9,39.84,11,39.75c2.65-.12,5.31,0,8,0H47.8c5.1,0,4.7.43,4.66-4.95.07-.82-.13-1.78,1-2.06,0,2.5,0,5,0,7.49a3.94,3.94,0,0,1-.28,1c-1.13.94-2.52.51-3.79.51-11,0-22,0-33,.06C15.1,41.77,13.38,40.92,12.45,42.78Z" transform="translate(-1.23 -0.72)"/><path class="cls-5" d="M29.37,10c-1.63-1.6-.59-3.59-.72-5.4a1.81,1.81,0,0,1,1.87-1.92c6.08-.07,12.16-.06,18.24,0,1.21,0,1.7.79,1.7,1.94q0,2.46,0,4.93c-1.8.05-3.6.1-5.4.16C39.81,9.92,34.58,9.32,29.37,10ZM32.9,8.74a2.41,2.41,0,0,0,2.58-2.42,2.28,2.28,0,0,0-2.36-2.57,2.29,2.29,0,0,0-2.58,2.37C30.46,7.66,31.41,8.5,32.9,8.74Z" transform="translate(-1.23 -0.72)"/><path class="cls-6" d="M29.37,10c5.21-.73,10.45-.13,15.67-.32,1.8-.07,3.6-.11,5.4-.16l0,2.41L29.5,11.63Z" transform="translate(-1.23 -0.72)"/><path class="cls-7" d="M53.5,32.72c-1.16.28-1,1.24-1,2.06l-1.88,0a5.45,5.45,0,0,0,.86-3.79,9.83,9.83,0,0,0,1.06-5.21c-.07-4.62,0-9.24,0-13.86,0-.93-.37-2,1-3.19Z" transform="translate(-1.23 -0.72)"/><path class="cls-8" d="M51.44,30.95a5.45,5.45,0,0,1-.86,3.79c-.7.79.67,2.41-1.11,2.75,0-.7.06-1.45-.85-1.71a2.68,2.68,0,0,0,.15-1C48.2,32.5,49.05,31.2,51.44,30.95Z" transform="translate(-1.23 -0.72)"/><path class="cls-9" d="M12.75,14c1.18-.82,2.36-.5,3.48-.5,6.08,0,5.2-.45,5.22,5.35,0,3.5-.14,3.57-3.62,3.69-.5,0-1,0-1.49,0-3.83,0-3.87,0-3.88-3.78C12.47,17.15,12.15,15.49,12.75,14Zm6.53,1.84c-4.8-.36-4.76-.36-4.86,2.08-.07,1.74.26,2.83,2.43,2.7C19.41,20.48,19.41,20.63,19.28,15.84Z" transform="translate(-1.23 -0.72)"/><path class="cls-10" d="M21.1,28.79c-1.82,1.34-3.71.78-6.44,1C17.13,26.89,19.11,27.79,21.1,28.79Z" transform="translate(-1.23 -0.72)"/><path class="cls-11" d="M15,26c.93-1.36,1.59-1.36,2.23-1.32,1.3.07,2.65-.28,4.12.52C19.53,27.54,17.53,26.59,15,26Z" transform="translate(-1.23 -0.72)"/><path class="cls-12" d="M21.72,35.2c-2.39,1.93-4.25,1.62-7.26.27A10.56,10.56,0,0,1,21.72,35.2Z" transform="translate(-1.23 -0.72)"/><path class="cls-13" d="M45.15,13.79c-4.67,2.15-11.55,1.91-14.6,0Z" transform="translate(-1.23 -0.72)"/><path class="cls-14" d="M48.42,18.62c-.45,1.65-1.84.86-2.84,1.1-1.33.32-3-.84-4,.85l-7,.24V18.64Z" transform="translate(-1.23 -0.72)"/><path class="cls-13" d="M34.56,20.8l7-.24c.45.41,2.28.49,1.25,1.09a8.54,8.54,0,0,1-8.18.06C34.51,21.66,34.59,21.12,34.56,20.8Z" transform="translate(-1.23 -0.72)"/><path class="cls-15" d="M48.42,18.62l-13.86,0C37.35,17,45.55,17,48.42,18.62Z" transform="translate(-1.23 -0.72)"/><path class="cls-16" d="M32.9,8.74c-1.48-.24-2.43-1.08-2.35-2.62a2.29,2.29,0,0,1,2.58-2.37,2.28,2.28,0,0,1,2.36,2.57A2.41,2.41,0,0,1,32.9,8.74Z" transform="translate(-1.23 -0.72)"/><path class="cls-17" d="M19.28,15.84c.14,4.79.13,4.64-2.43,4.79-2.17.12-2.5-1-2.43-2.7C14.52,15.48,14.48,15.48,19.28,15.84Z" transform="translate(-1.23 -0.72)"/></g></g></svg>