<svg xmlns="http://www.w3.org/2000/svg" viewBox="0 0 54.45 34.98"><defs><style>.cls-1{fill:#fdfcfc;}.cls-2{fill:#e1efe3;}.cls-3{fill:#f5f7ea;}.cls-4{fill:#85cecf;}.cls-5{fill:#a6d9d7;}.cls-6{fill:#f7f7ea;}.cls-7{fill:#f7f9f8;}.cls-8{fill:#88cfcf;}.cls-9{fill:#d4e8dd;}.cls-10{fill:#c5e4dc;}.cls-11{fill:#bae1da;}.cls-12{fill:#95d4d2;}.cls-13{fill:#9dd6d1;}.cls-14{fill:#b6ded7;}.cls-15{fill:#c9e6dc;}.cls-16{fill:#addbd8;}.cls-17{fill:#cbe5d9;}.cls-18{fill:#d3e6db;}.cls-19{fill:#fbfcf9;}.cls-20{fill:#c1cc35;}.cls-21{fill:#d2e5d8;}.cls-22{fill:#bf3e2d;}.cls-23{fill:#a1c2b1;}.cls-24{fill:#087792;}.cls-25{fill:#2a5c69;}.cls-26{fill:#28565a;}.cls-27{fill:#f4f8f8;}.cls-28{fill:#f8f8f5;}.cls-29{fill:#badfd7;}.cls-30{fill:#f9fafa;}.cls-31{fill:#b3c33a;}.cls-32{fill:#b7dfd7;}.cls-33{fill:#1c7a8d;}.cls-34{fill:#f3ca23;}.cls-35{fill:#ebaf33;}.cls-36{fill:#0e768d;}</style></defs><title>pct1</title><g id="Warstwa_2" data-name="Warstwa 2"><g id="Warstwa_1-2" data-name="Warstwa 1"><path class="cls-1" d="M55,35.21H.5V.23H55Z" transform="translate(-0.5 -0.23)"/><path class="cls-2" d="M17.47,23.21a2.93,2.93,0,0,0-3.48,2c-2.4-.14-4.39-1.55-6.64-2.16-.79-.22-1.5-.79-.86-1.84,0-.73-.39-1-1.08-1-1.22-.05-1.78-1.1-2.48-1.85s-.42-1.63.55-2.15c1.21,1.52,2.78,1.69,4.63,1.54a16.67,16.67,0,0,1,8.06,1.83c1.56.7.62-.84,1.15-.8.88-.54,1.55.27,2.33.36,1,.35,1.91,1.69,3.2.43.22-.22.71,0,.84.3,1.11,2.28,2.2.48,3.29,0a1.38,1.38,0,0,1,1,.18c.8.94-.15,1.84-.1,2.78,1,.43,2.34.13,3.28,1.4.24-1.12.4-2.17,1.43-2.63a1.56,1.56,0,0,1,.63-.12A7.73,7.73,0,0,0,34.7,22a2.58,2.58,0,0,1,1.11.57,9.41,9.41,0,0,1,1.57,1.72,9.19,9.19,0,0,1,1.11,2.6,2.85,2.85,0,0,1-.12,1.43c-1.7,1.71-4,.95-6,1.4-1.06.24-2.27-.28-3.43-.26-.53,0-1.19-.18-.86-.79.59-1.07,0-1.21-.78-1.4A1.94,1.94,0,0,1,26,26.16c-1.27-1.29-2.86-1.38-4.53-1.17C19.85,25,18,25.53,17.47,23.21Z" transform="translate(-0.5 -0.23)"/><path class="cls-3" d="M26.5,25.72c.17,1.74,2.13.57,2.73,1.92.06.49-1,.63-.92,1.54.76-.26,1.55-1,2.26-.08,1-1,2,.45,3.2-.25.93-.55,2.43-.13,3.68-.19.19,0,.38-.29.56-.44.37-.21.9-.53,1.15-.3,1.83,1.62,4.52,1.26,6.36,2.82-1.42.93-2.67,2.11-4.62,2A3.8,3.8,0,0,1,37.4,30.9c-.72-1.31-1.37-1.49-2.43-.41-1.73,1.77-4.2,2.35-6.19,3.72a.73.73,0,0,1-1.07,0c-.06-.06-.15-.1-.19-.16-.66-1.19-2.62-.58-3-2.14-.3-1.24.8-2.29.57-3.59a2.93,2.93,0,0,0-2.43,1.07c-1,1.14-2.37,1.67-3.46,2.67-1.39,1.28-3.34.62-5.05.64-.5,0-.54-.51-.69-.9a16.9,16.9,0,0,0-.85-2.49c-.68-1.24.82-2,1.38-2.59,1.09-1.19,2-2.64,3.48-3.48.91,1.65,2.7.94,4,1.5-.46,1.9-2.27.62-3.37,1.48a4.85,4.85,0,0,0,4.89.42C24.14,26.21,25.15,25.3,26.5,25.72Z" transform="translate(-0.5 -0.23)"/><path class="cls-4" d="M19,7.24c-.51-.48-1.46-.47-1.54-1.45a1,1,0,0,0-1-1c-1.46,0-1.78-1.21-2.58-2.19,2.28-1.4,4.58-1,6.82-.72.72.1,1.22.86,1.43,1.61.39,1.41,1.19,1.31,2.27.81a7.09,7.09,0,0,1,2.14-.57c2.06-.24,3.31.62,4.36,3A60.07,60.07,0,0,1,41.56,2.92a4.38,4.38,0,0,1,4.18.83c.92.83.86,1.49-.34,1.69-1.92.31-3.59,1.62-5.64,1.34-.49-.07-1.06,0-1.2.59s.34.84.88.89c.91.09,1,1.07,1.55,1.47-.26,1.35-1.29,1.05-2.09.84-2-.53-4.09-.73-6.06-1.38-2.72-1.06-5.45-2-8.35-.56C22.44,9,20.76,7.9,19,7.24Z" transform="translate(-0.5 -0.23)"/><path class="cls-5" d="M47,17.25a.58.58,0,0,1-.47.49,2.45,2.45,0,0,1-2.14,1.58,6,6,0,0,1-2.67-.22A13.21,13.21,0,0,0,38,16.72c-.88-.82-2.09-.38-3.08-.81-1.14-.88-2.47-.79-3.79-.78-.9-.21-1.78-.8-2.71-.1-2.11.34-3.95-.8-5.93-1.17a5.26,5.26,0,0,0-2.87,0,1.82,1.82,0,0,1-1.5-.72c-1.08-1-1.92-2.36-3.68-2.27-.88-.77-.59-1.49.1-2.18h2c1.24.48,2.57.2,3.85.46,1,.21,1.83.15,2.6,1.32,1,1.54,2.67.17,4-.07a1.85,1.85,0,0,1,.68.15c2.5,1.51,5.18,1.41,7.91.89a1.26,1.26,0,0,1,1,.15,2.62,2.62,0,0,0,2.82,1.59,13.67,13.67,0,0,1,7,2.22C47,15.82,47.6,16.37,47,17.25Z" transform="translate(-0.5 -0.23)"/><path class="cls-6" d="M6.5,21.22a1.45,1.45,0,0,0,.42,1.11l4.92,1.5c1,0,1.5.84,2.16,1.39a46.22,46.22,0,0,0-5.1,4.56c-.92.93-4.2,1.32-5.3.7S1.85,27,2.83,25.78C4,24.26,4.93,22.46,6.5,21.22Z" transform="translate(-0.5 -0.23)"/><path class="cls-7" d="M45.52,30.73c-1-.11-1.84-.67-2.88-.52s-2.15,0-2.56-1.28-1.55,0-2.07-.71V26.78c3-.65,5.86-1.91,8.89-2.53,1.49-.23,2.74.5,4.06,1,.57,1,1.87.55,2.56,1.48s.54,1.63-.22,1.77c-1.52.27-2.56,1.38-3.85,2C48,31.12,46.77,30.16,45.52,30.73Z" transform="translate(-0.5 -0.23)"/><path class="cls-8" d="M36.5,11.72h-1c-1-.77-2.49-1-3.15-2.3A.78.78,0,0,1,33,8.72c1.55.22,3,.92,4.63.68.51-.08.68.21,1,.44A1.67,1.67,0,0,0,41,9.73a15.62,15.62,0,0,1,3.43.34,7.23,7.23,0,0,0,4.74-.89c.82-.4,1.54-.82,2.21-.05s1.55,1.56.78,2.84-1.27,2.31-2.59,2.85C45.25,13.59,41.07,11.84,36.5,11.72Z" transform="translate(-0.5 -0.23)"/><path class="cls-9" d="M17.57,18.59c0,.83-.05,1.66-.12,2.48a.64.64,0,0,1-.67.6c-.47,0-.55-.22-.44-.6.4-1.31-.4-1.41-1.34-1.29-.39.05-.9.46-1.15.07-1.27-2-3.43-.65-5-1.43a3,3,0,0,0-2-.11c-2.37.44-2.37.45-3.42-2.09a1.47,1.47,0,0,1,1-1.49c1.87-.12,3.73-.2,5.41.87.95.61,1.21-.55,1.86-.74a4.75,4.75,0,0,1,3.12,0,14.15,14.15,0,0,1,2.24,1.46A1.47,1.47,0,0,1,17.57,18.59Z" transform="translate(-0.5 -0.23)"/><path class="cls-10" d="M51,25.21c-1.54.31-2.94-.68-4.47-.49-3,.51-5.75-.86-8.56-1.56-1.05-.26-1.08-1.55-1.4-2.48a3.21,3.21,0,0,1,.17-2.26c1.41-.69,1.65,1.11,2.67,1.26a9.51,9.51,0,0,0,6.91,1.24c1.72.57,3.77.22,5.15,1.78a3.55,3.55,0,0,1-.66.93C49.86,24.31,50.56,24.73,51,25.21Z" transform="translate(-0.5 -0.23)"/><path class="cls-11" d="M5.5,12.73c-.74,0-1.49,0-2.23,0-1.43-.1-1.93-.7-1.78-2S2.37,9.09,3.6,9c1.67-.18,3.25.63,4.9.25,1.32,1.71,3.68,1,5.21,2.2-.21,2.45-2.49,2-3.88,2.79C8.19,14.27,6.94,13.22,5.5,12.73Z" transform="translate(-0.5 -0.23)"/><path class="cls-12" d="M36.5,11.72c.1-.46.12-1.21.83-.63.49.39,1.08.92,1.49.56,1.57-1.39,2.55,0,3.82.5a37.37,37.37,0,0,0,5.43,1.54,1.82,1.82,0,0,1,1.48,1.14A4.93,4.93,0,0,1,47,17.25c-.19-2-2.09-1.89-3.28-2.4-.92-.39-2-.53-3-1a2.79,2.79,0,0,0-1.64-.32C36.73,14.1,36.68,14.1,36.5,11.72Z" transform="translate(-0.5 -0.23)"/><path class="cls-13" d="M27.53,10.69c-1.77,1.32-3.74,1.19-5.79.87.69-1.82.68-1.87-.91-1.73A9.27,9.27,0,0,1,16.5,8.72c1-.11,2.24,0,2.47-1.47C19.55,7,20,6.6,20.75,7.17a5.2,5.2,0,0,0,3.69,1C25.49,9,27.33,8.83,27.53,10.69Z" transform="translate(-0.5 -0.23)"/><path class="cls-14" d="M51.45,22.71c-1.63-.56-3.45-.52-5-1.5-.11-1.28-2.29-.89-2-2.48.91.14,1.3-.8,2.05-1,.21.45.61.48,1,.48C50.48,18.23,52.1,19.6,51.45,22.71Z" transform="translate(-0.5 -0.23)"/><path class="cls-15" d="M5.5,12.73c.31-.61.7-.38,1.18-.18.94.4,1.74,1.12,2.82,1.17.53.69,1.52.77,2,1.51,0,1.05-.24,2.09-1.46,1.13-.82-.65-1.94-.32-2.61-1.19-.47-.6-.78.08-1.17.28-.81.4-1.61.55-1.76-.74C4.73,14,5.64,13.63,5.5,12.73Z" transform="translate(-0.5 -0.23)"/><path class="cls-16" d="M13.48,11.22c-.51.19-1.13.82-1.54.37-.65-.73-1.3-.5-2.07-.53A1.43,1.43,0,0,1,8.5,9.2c1.93-1.06,4,0,6-.49.05.65-.6,1.31,0,2A1,1,0,0,1,13.48,11.22Z" transform="translate(-0.5 -0.23)"/><path class="cls-17" d="M27.06,20.14c-.79.27-.43,1.45-1.6,1.65-1.72.3-1.59-1.17-2.19-1.85-1.25,0-.34,1.43-1.31,1.55-1-.26-1.22-1.72-2.45-1.77a1,1,0,0,1-.23-1,9.79,9.79,0,0,1,2.37-3.5c.63-.52,1.39-1.22,2.06-.28,1,1.35,2.48,1.77,3.77,2.57a1.66,1.66,0,0,1,.1,2.09C27.42,19.78,27.24,20,27.06,20.14Z" transform="translate(-0.5 -0.23)"/><path class="cls-18" d="M37,20.72c.56.27.46.81.52,1.28.09.72,1,1.13,1.18,1,1.17-.82,1.88.59,2.46.53,2-.2,3.48,1.23,5.33,1.17-2.06.95-4.31,1.37-6.38,2.33a2.58,2.58,0,0,1-2.1-.27c-.31-.87-1-1.58-1-2.56C36.39,23,36,21.88,37,20.72Z" transform="translate(-0.5 -0.23)"/><path class="cls-19" d="M26.5,25.72a36.26,36.26,0,0,1-4,1.87c-1.79.83-3.9,0-5.89-2,1.52-1,3.46.37,4.88-.88a4.67,4.67,0,0,1,.4-.6c.23-.25.73-.46.84-.24C23.54,25.46,25.95,23.7,26.5,25.72Z" transform="translate(-0.5 -0.23)"/><path class="cls-20" d="M35.15,15.7c.92.22,2-.71,2.79.47a4.63,4.63,0,0,1-.77,1.22c-1.12,1.2-.65,2.66-.59,4,0,.88.36,1.8-1.11,1.41l-.77-.6a.59.59,0,0,1-.55-.26c-.18-.54-.66-.86-.95-1.32-.31-1.07-1.11-1.91-1.42-3a1.47,1.47,0,0,1,.65-1.2A5.43,5.43,0,0,1,35.15,15.7Z" transform="translate(-0.5 -0.23)"/><path class="cls-21" d="M33,21.86c-1.43.53-.71,2.29-1.77,3.09-1-1.89-3-1-4.64-1.61a6.43,6.43,0,0,0,1.4-3c.35-.37,1,.1,1.27-.4,1.19,0,2.16.69,3.24,1A1,1,0,0,1,33,21.86Z" transform="translate(-0.5 -0.23)"/><path class="cls-22" d="M19.51,18.82v.89c-1.17.52-1.16-1-1.94-1.12-.23-.74.16-1.79-1.26-1.88A1.57,1.57,0,0,1,15,15.22a1.5,1.5,0,0,1,.66-.47c1.2-.12,2.4-.65,3.59.07A4.78,4.78,0,0,1,19.51,18.82Z" transform="translate(-0.5 -0.23)"/><path class="cls-23" d="M35.48,22.83c.58-.11,1.12-.13.83-1.07-.54-1.76-.72-3.55.66-5.09A1.08,1.08,0,0,1,37,18.24l0,2.48,0,3.49A3.11,3.11,0,0,1,35.48,22.83Z" transform="translate(-0.5 -0.23)"/><path class="cls-24" d="M33,21.86a.65.65,0,0,1-.59-.46c-.07-1,.43-1,1.13-.7.73,0,1.1.3.91,1.08a.7.7,0,0,1-.95,0Z" transform="translate(-0.5 -0.23)"/><path class="cls-25" d="M29,20.27c-.3.57-.69-.21-1,.07l-.94-.21a2.94,2.94,0,0,1,.08-.48c.68-.5,1.35-1,2,0A.57.57,0,0,1,29,20.27Z" transform="translate(-0.5 -0.23)"/><path class="cls-26" d="M33.51,21.75l.95,0,.25.45c-.15.39-.41.65-.84.48S33.54,22.11,33.51,21.75Z" transform="translate(-0.5 -0.23)"/><path class="cls-27" d="M27.53,10.69a1.91,1.91,0,0,0-1.48-1c-.74-.2-1.56-.44-1.61-1.46,3-1.93,5.76-.68,8.55.51l-.47.54c-1.37,1.5-2.94,2.33-5,1.43Z" transform="translate(-0.5 -0.23)"/><path class="cls-28" d="M15.51,15.09l-.54.14H11.5c-1.06,0-2-.14-2-1.51,1.16-.08,1.93-1.17,3.17-1.17.62,0,.85-.7.81-1.34.2-.45.61-.49,1-.54,2-.68,2.67,1.22,3.94,2A3.91,3.91,0,0,1,15.51,15.09Z" transform="translate(-0.5 -0.23)"/><path class="cls-29" d="M27.55,17.74c-1.76-.21-3.33-.52-4.2-2.48-.51-1.14-.86.58-1.46.43-.84-.34-1.85-.23-2.54-1a.81.81,0,0,1,.11-1c.61-1.64,2-1,2.87-.68a51.08,51.08,0,0,0,6.1,1.64C29,16,29.57,17.24,27.55,17.74Z" transform="translate(-0.5 -0.23)"/><path class="cls-30" d="M44.49,18.73c.34.81,1,.94,1.81,1,2.32.16.43.95.2,1.48-2.69,1.21-5.12.42-7.47-1,.12-1.65,1.05-2,2.48-1.53Z" transform="translate(-0.5 -0.23)"/><path class="cls-12" d="M27.52,10.69c1.82.05,3.36-.88,5-1.43.5.7,1.35.82,2,1.23.5.3,1,.53,1,1.24-.25,1.4-1.13,1.41-2.08.82-.79-.48-1.33-1-2.29-.07C30.48,13.1,28.36,11.92,27.52,10.69Z" transform="translate(-0.5 -0.23)"/><path class="cls-31" d="M27.55,17.74c1.59-.62.35-2.08.88-3,.72-1.37.72-1.37,2.46,0a4.36,4.36,0,0,1,1.62,2.18l-.51.73c-1,.78-1.54,2.09-3,2.15-.59-.53-1.23-.26-1.86-.13A4.77,4.77,0,0,0,27.55,17.74Z" transform="translate(-0.5 -0.23)"/><path class="cls-32" d="M41.51,18.69A3.1,3.1,0,0,0,39,20.22c-1.16-.16-1.41-1.24-2-2L37,16.67c.18-.45.56-.51,1-.49C39.22,16.88,41.11,16.72,41.51,18.69Z" transform="translate(-0.5 -0.23)"/><path class="cls-33" d="M32.51,16.91c-1.34-.13-1.53-1.12-1.62-2.18,1.53-.13,3.17-.8,4.26,1A4.88,4.88,0,0,1,32.51,16.91Z" transform="translate(-0.5 -0.23)"/><path class="cls-34" d="M19.46,13.76l0,.93a.36.36,0,0,1-.56.06c-1.08.74-2.27.3-3.42.33,1-.79,1.55-2.12,2.93-2.45A1.93,1.93,0,0,0,19.46,13.76Z" transform="translate(-0.5 -0.23)"/><path class="cls-35" d="M18.92,14.76l.56-.06c.87.16,2-.38,2.4,1-.65.84-1.48,1.56-1.58,2.74,0,.36-.52.27-.8.39A15,15,0,0,1,18.92,14.76Z" transform="translate(-0.5 -0.23)"/><path class="cls-36" d="M29,19.79c1.16-.49,1.19-2.57,3-2.15,1,.79,1.89,1.61,1.55,3.06-.51,0-1,.12-1.13.7-1.31.16-2.18-1-3.41-1.13A2.13,2.13,0,0,1,29,19.79Z" transform="translate(-0.5 -0.23)"/></g></g></svg>