<svg xmlns="http://www.w3.org/2000/svg" viewBox="0 0 54.42 34.84"><defs><style>.cls-1{fill:#faf9f8;}.cls-2{fill:#719dd1;}.cls-3{fill:#f4cb6b;}.cls-4{fill:#f3f3f3;}.cls-5{fill:#f0e4c0;}.cls-6{fill:#f6f6f5;}.cls-7{fill:#e6ab8c;}.cls-8{fill:#8db5db;}.cls-9{fill:#333855;}.cls-10{fill:#919f43;}.cls-11{fill:#ead39d;}.cls-12{fill:#1f232d;}.cls-13{fill:#b9c9d9;}.cls-14{fill:#476f3b;}.cls-15{fill:#313543;}.cls-16{fill:#2b2f35;}.cls-17{fill:#9ca448;}.cls-18{fill:#a6bdd5;}.cls-19{fill:#96c2e6;}.cls-20{fill:#b5bdc2;}.cls-21{fill:#75a1d2;}.cls-22{fill:#baada7;}.cls-23{fill:#89b2dd;}.cls-24{fill:#f6f8f7;}.cls-25{fill:#80add8;}.cls-26{fill:#6f9ad0;}.cls-27{fill:#507236;}.cls-28{fill:#bdb5af;}.cls-29{fill:#f7d05c;}.cls-30{fill:#35395a;}.cls-31{fill:#b57969;}.cls-32{fill:#d3c3cc;}.cls-33{fill:#e8a684;}.cls-34{fill:#f6c457;}.cls-35{fill:#dd7658;}.cls-36{fill:#e88265;}.cls-37{fill:#f5f6f6;}.cls-38{fill:#7794c0;}.cls-39{fill:#eff0f3;}</style></defs><title>pct2</title><g id="Warstwa_2" data-name="Warstwa 2"><g id="Warstwa_1-2" data-name="Warstwa 1"><path class="cls-1" d="M.5,35.14V.3H54.92V35.14ZM16.92,10.75c-1.47-1.21-1.94.69-2.94.94-.58-.29-1.37-.31-1.32.38.08,1.12-1.1,1.59-1,2.6a1,1,0,0,0-.13.48c-.82.1-1.94.16-1.85,1.18.14,1.59-.88,2.82-1,4.3l-.24,1A1.2,1.2,0,0,0,8,23.18H20.51c1.87,0,3.74,0,5.61.06.74,0,1.74-.31,1.83,1-.59,1.31.43,2.61,0,3.92a1.85,1.85,0,0,0-1,2.15,20.5,20.5,0,0,1,4,0c5.3,1.06,10.63-.38,15.93.31.51.07.87-.42,1.11-.88a1.77,1.77,0,0,0-.77-.9c-1.6-1-1.7-2-.28-3.17a1.32,1.32,0,0,0,.54-1c0-.33-.06-.73.1-1,1-1.57,1.9-2.8.31-4.9-.7-.93-.52-2.13-2.18-1.73-.74.17-1.11-.61-1.71-.86a1.08,1.08,0,0,0-1.64-.4c-1.08,1.22-2.64.82-3.88,1.42-.84,0-1.68-.87-2.51,0-1.17-.08-1.54.62-1.6,1.62-.86.52-1.07-.28-1.46-.72-.11-1.36-1.17-.81-1.87-.9-1.35-.18-2.79.32-4-.58-.33-.58-1-1-.88-1.8A4.27,4.27,0,0,0,29,13.51c-.43-.5-.95-.31-1.4-.4.34-.93,1.55-1.48,1.2-2.84a13.46,13.46,0,0,0-4.43,1,2.42,2.42,0,0,1-.92-1.62c.34-2.12-1.13-2-2.48-2-1.79,0-2.25,1-1.79,2.59a.21.21,0,0,0-.17.18C18.4,11.23,17.72,11.46,16.92,10.75Z" transform="translate(-0.5 -0.3)"/><path class="cls-2" d="M44,16.22c.59.24,1,1,1.71.86,1.66-.39,1.48.8,2.18,1.73,1.58,2.09.7,3.32-.31,4.9-.16.24-.07.65-.1,1a1.49,1.49,0,0,1-1.94.07c-.53-.44.11-1.75-1.21-1.59,2-2.36,1.65-3.71-1.31-4.51A2.8,2.8,0,0,1,44,16.22Z" transform="translate(-0.5 -0.3)"/><path class="cls-3" d="M8.69,20.62c.09-1.48,1.11-2.71,1-4.3-.09-1,1-1.08,1.85-1.18,1.87.43,3.64.95,3.15,3.5C12.9,20,11.14,21.35,8.69,20.62Z" transform="translate(-0.5 -0.3)"/><path class="cls-4" d="M28,28.14c.39-1.31-.63-2.61,0-3.92a2.6,2.6,0,0,1,2.27-1c.75.07,1.61.29,2.28-.37.61-.37,1,.33,1.49.33l0,.12a2,2,0,0,0,.09.48c-.29.28-.58.79-.87.79-2.76,0-2.38,1.69-2,3.45.12.56.21,1.12.31,1.68C30,29.91,28.73,29.63,28,28.14Z" transform="translate(-0.5 -0.3)"/><path class="cls-5" d="M28,28.14c.74,1.5,2,1.77,3.52,1.55a29.91,29.91,0,0,0,3.16,0c1.64-.16,3.38.58,4.92-.51L42,28.82c-.34.59-.23.88.52.9a35.11,35.11,0,0,1,5.44,0c-.24.46-.6,1-1.11.88-5.3-.69-10.63.75-15.93-.31a20.5,20.5,0,0,0-4,0A1.85,1.85,0,0,1,28,28.14Z" transform="translate(-0.5 -0.3)"/><path class="cls-6" d="M48,29.76a35.11,35.11,0,0,0-5.44,0c-.75,0-.85-.3-.52-.9,1.37-1.18-.42-2-.35-3,1.71,1.24,2.6-.57,3.85-1a1.49,1.49,0,0,0,1.94-.07,1.32,1.32,0,0,1-.54,1c-1.42,1.17-1.32,2.17.28,3.17A1.77,1.77,0,0,1,48,29.76Z" transform="translate(-0.5 -0.3)"/><path class="cls-7" d="M23.45,9.68a2.42,2.42,0,0,0,.92,1.62c-.62.6-2.22.25-1.78,1.86l0,.49c-.07.42,0,.91-.55,1.09l-.42,0-.64.42c-.61.12-.94-.08-.91-.76,0-.49.06-1-.53-1.25-.11-.89.32-1.88-.5-2.63a.21.21,0,0,1,.17-.18A12,12,0,0,1,23.45,9.68Z" transform="translate(-0.5 -0.3)"/><path class="cls-8" d="M44,16.22a2.8,2.8,0,0,0-1,2.43c-2.79.66-3.27,1.44-2.46,4l-.14.14-1.91-.07c.08-.83.47-1.66.09-2.51,1.19-1,.38-2-.12-3,1.24-.6,2.8-.19,3.88-1.42A1.08,1.08,0,0,1,44,16.22Z" transform="translate(-0.5 -0.3)"/><path class="cls-9" d="M22,14.75c.53-.19.48-.67.55-1.09,1.43-.29,2.27,1.17,3.59,1.22-.12.8.55,1.22.88,1.8-.71,1.33-2.21,0-3,.91l-1.45,0v-.83c.12-.49.11-.92-.52-1.05l0,0Z" transform="translate(-0.5 -0.3)"/><path class="cls-10" d="M22.59,13.17c-.44-1.61,1.16-1.27,1.78-1.86a13.46,13.46,0,0,1,4.43-1c.35,1.37-.86,1.92-1.2,2.84A7.74,7.74,0,0,0,22.59,13.17Z" transform="translate(-0.5 -0.3)"/><path class="cls-11" d="M8.69,20.62c2.45.73,4.21-.65,6-2l.64,0c.18.38.13.89.59,1.11-.87,1.42-2,2.18-3.75,1.59a2.7,2.7,0,0,0-2.6.34l-1.11-.1Z" transform="translate(-0.5 -0.3)"/><path class="cls-12" d="M23.45,9.68a12,12,0,0,0-4.27.62c-.46-1.6,0-2.57,1.79-2.59C22.32,7.69,23.78,7.56,23.45,9.68Z" transform="translate(-0.5 -0.3)"/><path class="cls-13" d="M8.45,21.64l1.11.1c0,.42.14.93.61.93,2.56,0,5.15.32,7.67-.45.73,1.07,1.81.08,2.65.45l0,.52H8A1.2,1.2,0,0,1,8.45,21.64Z" transform="translate(-0.5 -0.3)"/><path class="cls-14" d="M22.59,13.17a7.74,7.74,0,0,1,5-.05c.45.09,1-.1,1.4.4a4.27,4.27,0,0,1-2.85,1.36c-1.32,0-2.16-1.5-3.59-1.22Z" transform="translate(-0.5 -0.3)"/><path class="cls-15" d="M38.48,17.24c.5,1,1.31,1.94.12,3-.89-1.08-1.78-2.17-3.09-.47-.89-1,0-1.71.46-2.5C36.8,16.36,37.65,17.26,38.48,17.24Z" transform="translate(-0.5 -0.3)"/><path class="cls-16" d="M36,17.25c-.43.78-1.35,1.47-.46,2.5.29,1.36,1.12,2.79-.5,3.9a1.19,1.19,0,0,1-.47,0c-.09-.27-.25-.45-.57-.37l0-.12V21.66c1-.81.33-1.85.36-2.79S34.81,17.17,36,17.25Z" transform="translate(-0.5 -0.3)"/><path class="cls-17" d="M34.38,18.88c0,.94.65,2-.36,2.79-.4-1.25-1.87-.62-2.52-1.43.06-.85,0-1.74,1.1-2.06l.17,0,.16-.06C33.31,18.59,33.51,19.4,34.38,18.88Z" transform="translate(-0.5 -0.3)"/><path class="cls-18" d="M20.51,23.18l0-.52a2,2,0,0,1,1.42-.42c3.2,1,6.45.38,9.68.34l.92.26c-.67.66-1.53.44-2.28.37a2.6,2.6,0,0,0-2.27,1c-.09-1.29-1.09-1-1.83-1C24.25,23.19,22.38,23.19,20.51,23.18Z" transform="translate(-0.5 -0.3)"/><path class="cls-19" d="M11.65,14.67c-.08-1,1.1-1.48,1-2.6,0-.69.75-.67,1.32-.38l.52,1.57-.09,1.43Z" transform="translate(-0.5 -0.3)"/><path class="cls-20" d="M11.65,14.67h2.77a1.76,1.76,0,0,0,1,1l.18,1-.24,2-.64,0c.49-2.55-1.28-3.07-3.15-3.5A1,1,0,0,1,11.65,14.67Z" transform="translate(-0.5 -0.3)"/><path class="cls-21" d="M19,10.49c.82.75.39,1.74.5,2.63L18,13.37c-.14-.51-.57-.63-1-.75-1-.89-1-1.29-.1-1.87C17.72,11.46,18.4,11.23,19,10.49Z" transform="translate(-0.5 -0.3)"/><path class="cls-22" d="M32.92,18.15l-.16.06-.17,0c-.54-.72-1.32-.49-2-.5-2.2,0-4.39-.07-6.59-.1.83-.92,2.33.42,3-.91,1.24.91,2.68.4,4,.58C31.75,17.35,32.81,16.8,32.92,18.15Z" transform="translate(-0.5 -0.3)"/><path class="cls-23" d="M16.92,10.75c-.89.57-.87,1,.1,1.87a4.32,4.32,0,0,0-2.52.64L14,11.69C15,11.43,15.45,9.53,16.92,10.75Z" transform="translate(-0.5 -0.3)"/><path class="cls-24" d="M40.56,22.66c-.81-2.56-.32-3.35,2.46-4,3,.8,3.36,2.15,1.31,4.51A7.15,7.15,0,0,1,40.56,22.66Z" transform="translate(-0.5 -0.3)"/><path class="cls-25" d="M40.56,22.66a7.15,7.15,0,0,0,3.78.51c1.31-.16.68,1.16,1.21,1.59-1.25.46-2.15,2.27-3.85,1,.11-1.22-.91-2-1.27-3Z" transform="translate(-0.5 -0.3)"/><path class="cls-26" d="M34.54,23.66a1.19,1.19,0,0,0,.47,0l.91.57c.18.14.35.38.55.41,2.94.47,2.94.47,3,3.33,0,.41.05.81.08,1.22-1.54,1.09-3.28.35-4.92.51a29.91,29.91,0,0,1-3.16,0c-.1-.56-.19-1.12-.31-1.68-.39-1.76-.76-3.47,2-3.45.29,0,.58-.51.86-.79Z" transform="translate(-0.5 -0.3)"/><path class="cls-27" d="M32.51,22.84l-.92-.26c-.11-.54-.71-.7-.91-1.13-.35-.74-.21-1.31.81-1.22.65.81,2.12.18,2.52,1.43v1.51C33.48,23.16,33.11,22.47,32.51,22.84Z" transform="translate(-0.5 -0.3)"/><path class="cls-28" d="M34.54,23.66l-.48.11a2,2,0,0,1-.09-.48C34.29,23.22,34.45,23.39,34.54,23.66Z" transform="translate(-0.5 -0.3)"/><path class="cls-29" d="M39.6,29.18c0-.41-.07-.81-.08-1.22-.11-2.87-.11-2.86-3-3.33-.2,0-.37-.27-.55-.41.71-.77,2.38.13,2.59-1.5l1.91.07c.36,1,1.38,1.76,1.27,3-.07,1,1.72,1.85.35,3Z" transform="translate(-0.5 -0.3)"/><path class="cls-30" d="M18,13.37l1.48-.25c.59.24.56.76.53,1.25,0,.67.29.88.91.76l.5.1.08.55a2,2,0,0,0-.07,1.36c.2.84-.75,1.93.55,2.54a1.29,1.29,0,0,0,.43.13c.27.91-.44,1.6-.53,2.43a2,2,0,0,0-1.42.42c-.85-.37-1.92.62-2.65-.45a3.4,3.4,0,0,0,0-2c.68-2.43.26-3.07-2.31-3.57l-.18-1A6.06,6.06,0,0,1,18,13.37Z" transform="translate(-0.5 -0.3)"/><path class="cls-31" d="M21.53,15.77l-.08-.55.14-.52.42,0,0,.93Z" transform="translate(-0.5 -0.3)"/><path class="cls-32" d="M21.59,14.7l-.14.52-.5-.1Z" transform="translate(-0.5 -0.3)"/><path class="cls-33" d="M38.51,22.72c-.21,1.63-1.88.73-2.59,1.5L35,23.65c1.61-1.12.79-2.54.5-3.9,1.31-1.7,2.2-.62,3.09.47C39,21.07,38.59,21.89,38.51,22.72Z" transform="translate(-0.5 -0.3)"/><path class="cls-34" d="M21.91,22.23c.09-.83.8-1.53.53-2.43l.09-2.19,1.45,0c2.2,0,4.39,0,6.59.1.7,0,1.49-.22,2,.5-1.06.31-1,1.21-1.1,2.06-1-.1-1.16.47-.81,1.22.2.42.8.59.91,1.13C28.36,22.61,25.11,23.19,21.91,22.23Z" transform="translate(-0.5 -0.3)"/><path class="cls-35" d="M22.53,17.61l-.09,2.19a1.29,1.29,0,0,1-.43-.13c-.11-.86.3-1.84-.55-2.54a2,2,0,0,1,.07-1.36l.51-.08,0,0a1.07,1.07,0,0,0,.52,1.05Z" transform="translate(-0.5 -0.3)"/><path class="cls-36" d="M22.51,16.77A1.07,1.07,0,0,1,22,15.72C22.62,15.85,22.63,16.28,22.51,16.77Z" transform="translate(-0.5 -0.3)"/><path class="cls-37" d="M17.87,20.23a3.4,3.4,0,0,1,0,2c-2.52.77-5.1.47-7.67.45-.47,0-.57-.51-.61-.93a2.7,2.7,0,0,1,2.6-.34c1.78.59,2.88-.17,3.75-1.59C16.57,19.92,17.14,20.45,17.87,20.23Z" transform="translate(-0.5 -0.3)"/><path class="cls-38" d="M17.87,20.23c-.73.22-1.31-.31-2-.43-.47-.23-.41-.73-.59-1.11l.24-2C18.13,17.15,18.55,17.8,17.87,20.23Z" transform="translate(-0.5 -0.3)"/><path class="cls-39" d="M18,13.37a6.06,6.06,0,0,0-2.65,2.3,1.76,1.76,0,0,1-1-1l.09-1.43A4.32,4.32,0,0,1,17,12.62C17.46,12.74,17.88,12.86,18,13.37Z" transform="translate(-0.5 -0.3)"/><path class="cls-36" d="M21.46,17.13c.84.7.43,1.68.55,2.54C20.72,19.06,21.67,18,21.46,17.13Z" transform="translate(-0.5 -0.3)"/></g></g></svg>