<svg xmlns="http://www.w3.org/2000/svg" viewBox="0 0 54.5 34.93"><defs><style>.cls-1{fill:#fff;}.cls-2{fill:#2b2b2f;}.cls-3{fill:#f6971e;}.cls-4{fill:#f3f2f2;}.cls-5{fill:#12bcd7;}.cls-6{fill:#d7d6d7;}.cls-7{fill:#898387;}.cls-8{fill:#e1e0e0;}.cls-9{fill:#010101;}.cls-10{fill:#fdfcfc;}.cls-11{fill:#87878a;}.cls-12{fill:#cccfd3;}.cls-13{fill:#55555b;}.cls-14{fill:#e8e7e7;}.cls-15{fill:#969699;}.cls-16{fill:#394c56;}.cls-17{fill:#488cc7;}.cls-18{fill:#01a4bc;}.cls-19{fill:#28282f;}.cls-20{fill:#044b5e;}.cls-21{fill:#87878d;}.cls-22{fill:#d5d4d5;}.cls-23{fill:#75757a;}.cls-24{fill:#e7e7e7;}.cls-25{fill:#484c58;}.cls-26{fill:#4b4b50;}.cls-27{fill:#858486;}.cls-28{fill:#a53d39;}.cls-29{fill:#e3e3e4;}.cls-30{fill:#837f81;}.cls-31{fill:#84686b;}.cls-32{fill:#542b35;}.cls-33{fill:#6d6f77;}.cls-34{fill:#203e62;}.cls-35{fill:#c9c9ca;}.cls-36{fill:#fefeff;}.cls-37{fill:#111625;}.cls-38{fill:#3d4e66;}.cls-39{fill:#858587;}.cls-40{fill:#868589;}.cls-41{fill:#8e8d8f;}.cls-42{fill:#c4c4c6;}.cls-43{fill:#808085;}.cls-44{fill:#a8a8aa;}.cls-45{fill:#f0efef;}.cls-46{fill:#ecebeb;}.cls-47{fill:#5b5b5f;}.cls-48{fill:#747477;}.cls-49{fill:#f7c170;}.cls-50{fill:#d0d0d1;}.cls-51{fill:#88898b;}.cls-52{fill:#77777b;}.cls-53{fill:#c5c9d3;}.cls-54{fill:#e4e3e3;}.cls-55{fill:#fbfcfd;}.cls-56{fill:#75645a;}.cls-57{fill:#b16c28;}.cls-58{fill:#ce3a43;}.cls-59{fill:#d87e25;}.cls-60{fill:#70535a;}.cls-61{fill:#dd8824;}.cls-62{fill:#995524;}.cls-63{fill:#9d5925;}.cls-64{fill:#bac3d4;}.cls-65{fill:#8a8d98;}.cls-66{fill:#736663;}.cls-67{fill:#764826;}.cls-68{fill:#53787a;}.cls-69{fill:#70492c;}.cls-70{fill:#737479;}.cls-71{fill:#ef3746;}.cls-72{fill:#5c5c61;}.cls-73{fill:#6d3716;}.cls-74{fill:#6a3d17;}.cls-75{fill:#49260f;}.cls-76{fill:#2b1e15;}.cls-77{fill:#38333a;}.cls-78{fill:#eb3443;}.cls-79{fill:#ee3342;}.cls-80{fill:#6d6d6f;}.cls-81{fill:#6c6c6e;}.cls-82{fill:#f3818b;}.cls-83{fill:#f99c24;}.cls-84{fill:#00b9d6;}.cls-85{fill:#5c5c62;}.cls-86{fill:#e0dede;}.cls-87{fill:#7c8496;}.cls-88{fill:#fdfdfd;}.cls-89{fill:#313137;}.cls-90{fill:#44444a;}.cls-91{fill:#5a5a60;}.cls-92{fill:#7f6f71;}.cls-93{fill:#068aa2;}.cls-94{fill:#667e81;}.cls-95{fill:#b1202b;}.cls-96{fill:#f8fbfe;}.cls-97{fill:#574f4a;}.cls-98{fill:#ca6e29;}.cls-99{fill:#563413;}.cls-100{fill:#524d4d;}.cls-101{fill:#f6951f;}.cls-102{fill:#ee3441;}.cls-103{fill:#656b7c;}.cls-104{fill:#ee9122;}.cls-105{fill:#79451e;}.cls-106{fill:#781928;}.cls-107{fill:#832734;}</style></defs><title>pct3</title><g id="Warstwa_2" data-name="Warstwa 2"><g id="Warstwa_1-2" data-name="Warstwa 1"><path class="cls-1" d="M.5,35.47V.53H55V35.47ZM13,13l-.66.06c-.86-.24-1.14.29-1.3,1-.08.34.14.45.4.52l0,.89L12,16a1.13,1.13,0,0,1,.46.11c.6.64,1.37.34,2.08.38H15l1,.48L16,17c1.89,1.11,4,.17,5.91.55a.57.57,0,0,1,0,.36c-1.85.24-3.75-.22-5.59.65h5.59c.11.46-.16,1.4.87.7,1.19-.81.46-2,.67-3.08,1-.72,1.74-1.46.07-2.26-1.08-1.79-2-.43-3,.13L19,12l.1-1.06c.28-.5,1.19-.11,1.3-.88-2.08-.92-3-.58-2.92,1.05l.11,1.38c-.64.31-.78,1-1.07,1.53l-.48.49-.13-.67c0-.26-.08-.35-.33-.33l0-.5c-.46-1.22-1.21-1.14-2.08-.44C13.18,12.56,12.81,12.49,13,13ZM37.51,26.89c-.57.33-.87.65,0,1l1.39.55c1.23-.05,1.08-.65.55-1.4V25.9a1.87,1.87,0,0,0,0-.41c-.19-.45-.29-1.08-1-.5-.56.13-.54.54-.49,1q0,.23,0,.46Zm-10-6,.95.49.55.12c.95.83,1.73,1,2.11-.51L33,18.94c-.23,1,.58,1.49,1.08,2.13l1.48.89c.2.52-.34,1.5.72,1.48s.44-1,.69-1.51,1.26-.12.89-1.54-1.59-.83-1.79-1.72l.45-.66c.68-.12,1.51.32,2-.56V8.62H28.57c0,.33-.08.49-.08.65q0,4.09,0,8.18,0,.53,0,1.06l-.41,1a2.21,2.21,0,0,0-.16.47.91.91,0,0,0-.42.1c-.38,0-.57.2-.47.54C27.07,20.72,27.35,20.8,27.51,20.9ZM13,19.49c-1-1.08-2.28-.31-3.41-.48a.62.62,0,0,0-.57.46c-1.13,1.73-.2,3.63-.48,5.43l1,1.17c.37.72-.42,1.69.48,2.3H18V26l0-.49v-.58c-.22-1.8.59-3.67-.41-5.41L16.52,19c-.91-.26-1.57.52-2.41.58l-.69,0A1.39,1.39,0,0,0,13,19.49Zm10.48,6.93.59-.9c1.71-1.06,1.36-2.41.39-3.69s-2.8-1.15-4.16,0-1,2.24.11,3.32a3.14,3.14,0,0,1,.45.84c.44.65-.31,2,1.22,2C23.1,28,23.52,27.42,23.46,26.42ZM46.08,23a1.12,1.12,0,0,0,1.4-.08c.51.21,1,.58,1.58.48.31,0,.91-.12.8-.34-.73-1.46.15-3.18-.8-4.57-1.22.69.07,2.31-1.13,3a2.36,2.36,0,0,0-1.88-.58c-.28-.81.42-1.83-.51-2.51h0c-.08-.54.23-1.21-.51-1.53L43.59,16c-.2,1,.45.89.86,1-.5,1.62-1.55.69-2.49.6s-2.45-1.14-2.89.86c-.14.46-.15.87.42,1L39.65,22c-.26,1.09.23,1.42,1.27,1.38,1.53-.06,3.06,0,4.59,0C45.83,23.49,46,23.28,46.08,23ZM27.51,24C26.74,26,26.87,26.24,29,26c.83-.67.39-1.61.89-2.65C28.83,23.64,28,23.13,27.51,24Zm3,2.85c-1.7.44-3.5-.16-5.18.69h8c.2-.13.42-.39.6-.37.66.08,1.26.2,1.42-.72a1.73,1.73,0,0,0-.77-1.87c-.81-.56-1.5-.53-2,.46C31.2,24.87,30.42,25.37,30.48,26.8Zm-5-15.89a8,8,0,0,0,0,6c.57.26.92,1.17,1.78.62.38,0,.66-.17.66-.53,0-2,0-4.08,0-6.11,0-1.26-.84-.88-1.52-.83C25.72,9.83,25.43,10.17,25.49,10.91Zm13.73,4.54c3,.52,3.68,0,3.16-1.87C41.78,14.84,41.78,14.84,39.22,15.45ZM26.88,7.54c-.71,0-.86.44-.84,1s.29.94.9.85.93-.38.89-1A1,1,0,0,0,26.88,7.54Zm12.66,6.39c1.36-.86,1.79-1.64,1.38-2.71a.59.59,0,0,0-.85-.22C39,11.71,39.64,12.68,39.54,13.94Zm-5.3-6.12a11,11,0,0,0-5.46,0ZM23.37,12.43c.53,0,1-.1,1.06-.74S24.1,11,23.63,11s-1,.06-1.05.72C22.57,12.18,22.9,12.41,23.37,12.43ZM43.26,9.75c-.17-.38-.38-.74-.88-.63a.84.84,0,0,0-.72.85.78.78,0,0,0,.74.82C43.07,10.82,43,10.19,43.26,9.75ZM7.11,24.19h.35v-4H7.11Z" transform="translate(-0.5 -0.53)"/><path class="cls-2" d="M28.51,17.44q0-4.09,0-8.18c0-.16,0-.32.08-.65h9.92v8.83Zm5.07-8.37c-4-.21-4.78.47-4.08,3.63-1,.89.31,1.81,0,2.71-.62.65-.92,1.32.29,1.5.74.11,1.63.36,2.26-.43H35c2,.73,2.57.54,3-1l0-3.17c-.18-1,.21-2.13-.27-3.16a8.39,8.39,0,0,0-3.19-.11Z" transform="translate(-0.5 -0.53)"/><path class="cls-3" d="M20.84,26a3.14,3.14,0,0,0-.45-.84c-1.12-1.09-1.44-2.18-.11-3.32s3.25-1.23,4.16,0,1.31,2.63-.39,3.69c-.7-.39-.51-1.07-.56-1.67-.12-1.2-.73-1-1.43-.49-.21.87.27,1.87-.48,2.64Z" transform="translate(-0.5 -0.53)"/><path class="cls-4" d="M19,12,20.52,14c.18.61-.52,1.45.47,1.86l.63.59c-1.79,1-3.74.25-5.6.51L16,16.92c.93-1.4,3,.19,3.81-1.43-.55-1.68-2.16-1-3.27-1.51.3-.55.43-1.22,1.07-1.53l.71.85C18.72,12.94,18.25,12.13,19,12Z" transform="translate(-0.5 -0.53)"/><path class="cls-5" d="M39.65,22l-.16-2.46,5.48,0c.95.95.06,1.41-.52,1.94l-.43.43C42.55,21.35,41.07,20.62,39.65,22Z" transform="translate(-0.5 -0.53)"/><path class="cls-6" d="M28.51,17.44h10c-.46.88-1.3.44-2,.56-1.18.29-2.74-.85-3.52.93L31.12,21c-.27-.7.38-1.94-1.12-1.92l-1.5-.58Z" transform="translate(-0.5 -0.53)"/><path class="cls-7" d="M39.65,22c1.43-1.4,2.9-.67,4.37-.1h.57a1.65,1.65,0,0,1,.92,1.46c-1.53,0-3.06,0-4.59,0C39.88,23.44,39.39,23.1,39.65,22Z" transform="translate(-0.5 -0.53)"/><path class="cls-8" d="M13.42,19.51l.69,0A3.09,3.09,0,0,0,14.59,22l-.53,1.74c.88,0,1.64.28,2.38-.13.21-.9-.85-1-.91-1.67,1.66-.57.82-2,1-3l1.05.54v4.93h-4Z" transform="translate(-0.5 -0.53)"/><path class="cls-9" d="M13.53,24.43h4V19.5c1,1.74.19,3.61.41,5.41H8.52c.28-1.8-.65-3.71.48-5.43L9.09,24c1.18,1.12,2.59.27,3.89.46Z" transform="translate(-0.5 -0.53)"/><path class="cls-10" d="M16.5,14c1.11.47,2.72-.17,3.27,1.51-.83,1.62-2.89,0-3.81,1.43l-1-.48.5-.88,0-.52c.26-.12.47-.28.43-.61l.09,0Z" transform="translate(-0.5 -0.53)"/><path class="cls-11" d="M36.07,18.67c.2.89,1.44.38,1.79,1.72s-.57,1.09-.89,1.54c-.48-.59-.94,0-1.41,0l-1.48-.89A5.9,5.9,0,0,1,36.07,18.67Z" transform="translate(-0.5 -0.53)"/><path class="cls-12" d="M32.52,25c.46-1,1.15-1,2-.46a1.73,1.73,0,0,1,.77,1.87c-.16.93-.76.8-1.42.72-.18,0-.4.24-.6.37l-.77-.91Z" transform="translate(-0.5 -0.53)"/><path class="cls-13" d="M45,19.54l-5.48,0c-.57-.18-.55-.59-.42-1l6.47-.08h0C45.52,18.89,45.45,19.32,45,19.54Z" transform="translate(-0.5 -0.53)"/><path class="cls-14" d="M36.07,18.67a5.9,5.9,0,0,0-2,2.41c-.5-.64-1.31-1.12-1.08-2.13.78-1.79,2.34-.65,3.52-.93Z" transform="translate(-0.5 -0.53)"/><path class="cls-15" d="M14.59,22a3.09,3.09,0,0,1-.48-2.49c.83-.06,1.49-.84,2.41-.58-.17,1.06.67,2.44-1,3Z" transform="translate(-0.5 -0.53)"/><path class="cls-16" d="M26.48,10c.68,0,1.53-.43,1.52.83,0,2,0,4.08,0,6.11,0,.37-.29.55-.66.53a4.32,4.32,0,0,0,0-2.5c-.58-1.52.88-3.33-.77-4.56Q26.48,10.26,26.48,10Z" transform="translate(-0.5 -0.53)"/><path class="cls-17" d="M21.62,16.48,21,15.89c-.06-1.84,1.11-2.08,2.56-2,1.67.8.94,1.54-.07,2.26a1.45,1.45,0,0,0-1.55.32A1.07,1.07,0,0,0,21.62,16.48Z" transform="translate(-0.5 -0.53)"/><path class="cls-18" d="M26.5,10.47c1.64,1.23.19,3,.77,4.56a4.32,4.32,0,0,1,0,2.5c-.86.56-1.2-.36-1.78-.62l.46-.49C27.07,14.52,26.21,12.44,26.5,10.47Z" transform="translate(-0.5 -0.53)"/><path class="cls-19" d="M18,26v2.39H10c1-1,2.54.22,3.48-.92H15c.63.79,1.41.53,2.33.32,0-.6-.23-1.26.16-1.82l.23,0Z" transform="translate(-0.5 -0.53)"/><path class="cls-20" d="M26,16.42l-.46.49a8,8,0,0,1,0-6C26.58,12.66,25.73,14.59,26,16.42Z" transform="translate(-0.5 -0.53)"/><path class="cls-21" d="M45.55,18.43l-6.47.08c.44-2,1.86-1,2.89-.86s2,1,2.49-.6L45,16.9C45.78,17.21,45.46,17.89,45.55,18.43Z" transform="translate(-0.5 -0.53)"/><path class="cls-22" d="M9.09,24,9,19.48A.62.62,0,0,1,9.57,19a4,4,0,0,1,.54,2,.54.54,0,0,0,0,.47c0,.32.13.45.41.51.28.71-.77,1.18-.34,1.92Z" transform="translate(-0.5 -0.53)"/><path class="cls-23" d="M18,26l-.23,0-.23,0c-.84.16-1.82-.41-2.5.51-1.22.29-2.28-.63-3.49-.46l-1.6-.1c2.65-.94,5.38-.2,8.07-.41Z" transform="translate(-0.5 -0.53)"/><path class="cls-24" d="M18,25.5c-2.69.21-5.42-.53-8.07.41a1.07,1.07,0,0,1-.35.17l-1-1.17H18Z" transform="translate(-0.5 -0.53)"/><path class="cls-25" d="M21.93,16.49a1.45,1.45,0,0,1,1.55-.32c-.21,1,.52,2.27-.67,3.08-1,.7-.76-.24-.87-.7V17.9a.57.57,0,0,0,0-.36Z" transform="translate(-0.5 -0.53)"/><path class="cls-26" d="M9.56,26.09a1.07,1.07,0,0,0,.35-.17l1.6.1c-.86,2.6,1.33,1,2,1.45-.94,1.14-2.51-.09-3.48.92C9.14,27.77,9.93,26.81,9.56,26.09Z" transform="translate(-0.5 -0.53)"/><path class="cls-27" d="M32.48,26.58l.77.91h-8c1.68-.84,3.48-.25,5.18-.69A4.33,4.33,0,0,1,32.48,26.58Z" transform="translate(-0.5 -0.53)"/><path class="cls-1" d="M29,26c-2.12.23-2.26,0-1.48-2.06C28.86,24,29,24.94,29,26Z" transform="translate(-0.5 -0.53)"/><path class="cls-28" d="M17.47,11.08c-.09-1.63.84-2,2.92-1.05-.11.77-1,.37-1.3.88Z" transform="translate(-0.5 -0.53)"/><path class="cls-29" d="M47.93,21.52c1.2-.69-.09-2.32,1.13-3v4.91c-.61.11-1.07-.26-1.58-.48Z" transform="translate(-0.5 -0.53)"/><path class="cls-30" d="M45,19.54c.49-.22.55-.65.57-1.11.93.68.23,1.69.51,2.51l0,2.08c-.11.25-.25.46-.58.35a1.65,1.65,0,0,0-.92-1.46q-.06-.22-.14-.43C45,20.95,45.91,20.49,45,19.54Z" transform="translate(-0.5 -0.53)"/><path class="cls-31" d="M26,16.42c-.27-1.83.59-3.76-.5-5.51-.06-.74.22-1.08,1-.86q0,.21,0,.42C26.21,12.44,27.07,14.52,26,16.42Z" transform="translate(-0.5 -0.53)"/><path class="cls-32" d="M30,19.08c1.5,0,.85,1.22,1.12,1.92-.39,1.47-1.16,1.35-2.12.51l.6,0L30,21V20Z" transform="translate(-0.5 -0.53)"/><path class="cls-33" d="M20.84,26h.74c.35.79,1,.35,1.51.34a2,2,0,0,0,.38.08c.06,1-.36,1.58-1.4,1.6C20.53,28,21.28,26.66,20.84,26Z" transform="translate(-0.5 -0.53)"/><path class="cls-34" d="M39.22,15.45c2.56-.61,2.56-.61,3.16-1.87C42.91,15.47,42.24,16,39.22,15.45Z" transform="translate(-0.5 -0.53)"/><path class="cls-35" d="M46.08,23l0-2.08a2.36,2.36,0,0,1,1.88.58L47.48,23A1.12,1.12,0,0,1,46.08,23Z" transform="translate(-0.5 -0.53)"/><path class="cls-36" d="M26.88,7.54a1,1,0,0,1,.94.87c0,.58-.37.88-.89,1S26,9.11,26,8.52,26.17,7.55,26.88,7.54Z" transform="translate(-0.5 -0.53)"/><path class="cls-37" d="M23.55,13.91c-1.44-.1-2.62.14-2.56,2-1-.41-.29-1.24-.47-1.86C21.51,13.48,22.46,12.11,23.55,13.91Z" transform="translate(-0.5 -0.53)"/><path class="cls-38" d="M39.54,13.94c.1-1.25-.5-2.23.53-2.93a.59.59,0,0,1,.85.22C41.33,12.3,40.89,13.08,39.54,13.94Z" transform="translate(-0.5 -0.53)"/><path class="cls-39" d="M34.24,7.82H28.78A11,11,0,0,1,34.24,7.82Z" transform="translate(-0.5 -0.53)"/><path class="cls-40" d="M21.93,16.49v1c-2-.38-4,.55-5.91-.55,1.86-.25,3.81.53,5.6-.51A1.07,1.07,0,0,1,21.93,16.49Z" transform="translate(-0.5 -0.53)"/><path class="cls-41" d="M10.11,21a4,4,0,0,0-.54-2c1.14.17,2.4-.6,3.41.48l0,0c-1,0-2.33-.37-2,1.46Z" transform="translate(-0.5 -0.53)"/><path class="cls-42" d="M23.37,12.43c-.47,0-.8-.25-.79-.73,0-.66.54-.72,1.05-.72s.82.22.79.71S23.9,12.44,23.37,12.43Z" transform="translate(-0.5 -0.53)"/><path class="cls-43" d="M21.94,17.9v.65H16.35C18.19,17.67,20.08,18.13,21.94,17.9Z" transform="translate(-0.5 -0.53)"/><path class="cls-44" d="M49.06,23.43V18.52c.94,1.4.07,3.11.8,4.57C50,23.31,49.37,23.38,49.06,23.43Z" transform="translate(-0.5 -0.53)"/><path class="cls-45" d="M32.48,26.58a4.33,4.33,0,0,0-2,.22c-.06-1.44.72-1.93,2-1.82Z" transform="translate(-0.5 -0.53)"/><path class="cls-46" d="M43.26,9.75c-.21.43-.19,1.07-.86,1a.78.78,0,0,1-.74-.82.84.84,0,0,1,.72-.85C42.88,9,43.09,9.37,43.26,9.75Z" transform="translate(-0.5 -0.53)"/><path class="cls-47" d="M35.55,22c.47,0,.93-.62,1.41,0-.25.5.37,1.49-.69,1.51S35.76,22.48,35.55,22Z" transform="translate(-0.5 -0.53)"/><path class="cls-48" d="M7.11,24.19v-4h.35v4Z" transform="translate(-0.5 -0.53)"/><path class="cls-49" d="M23.46,26.42a2,2,0,0,1-.38-.08c-.41-1,.64-2.44-1-3,.7-.48,1.31-.71,1.43.49.06.6-.13,1.29.56,1.67Z" transform="translate(-0.5 -0.53)"/><path class="cls-50" d="M29,26c0-1.07-.13-2-1.48-2.06.54-.82,1.32-.32,2.37-.6C29.38,24.4,29.82,25.34,29,26Z" transform="translate(-0.5 -0.53)"/><path class="cls-51" d="M17.47,11.08l1.62-.18L19,12c-.74.17-.27,1-.71,1.35l-.71-.85Z" transform="translate(-0.5 -0.53)"/><path class="cls-52" d="M13.53,24.43H13l.05-5,0,0a1.39,1.39,0,0,1,.44,0Z" transform="translate(-0.5 -0.53)"/><path class="cls-53" d="M13.44,12.53c.87-.7,1.62-.78,2.08.44l-.66,0a.71.71,0,0,0-.89.32,2.41,2.41,0,0,0-.44.19l0-.59Q13.46,12.72,13.44,12.53Z" transform="translate(-0.5 -0.53)"/><path class="cls-54" d="M38,26.43q0-.23,0-.46c.57-.12.45-.59.49-1,.71-.58.81,0,1,.5-.2-.09-.37,0-.38.17s.23.15.35.23v.61Z" transform="translate(-0.5 -0.53)"/><path class="cls-55" d="M14.58,16.44c-.71,0-1.48.27-2.08-.38a.69.69,0,0,0,.52-.61c.33,0,.47-.2.51-.51l-.06.05L14,15Z" transform="translate(-0.5 -0.53)"/><path class="cls-56" d="M14.58,16.44,14,15v-.11L15,15l.12,0a.5.5,0,0,0,.37.6l-.5.88Z" transform="translate(-0.5 -0.53)"/><path class="cls-57" d="M15.56,13.48c.24,0,.37.07.33.33l-.39.58a3,3,0,0,1-.48.1H14L14,14c.27-.07.5-.2.53-.52l.62,0,.23,0Z" transform="translate(-0.5 -0.53)"/><path class="cls-58" d="M30,19.08q0,.44,0,.88a3.41,3.41,0,0,1-.45,0c-.27-.77-.92-.42-1.43-.5l.41-1Z" transform="translate(-0.5 -0.53)"/><path class="cls-59" d="M38.9,28.42l-1.39-.55L38,27H39Z" transform="translate(-0.5 -0.53)"/><path class="cls-60" d="M28.46,21.39l-.95-.49q0-.43,0-.86a.91.91,0,0,1,.42-.1l.67.09-.07.89A3.79,3.79,0,0,1,28.46,21.39Z" transform="translate(-0.5 -0.53)"/><path class="cls-61" d="M11.08,14c.16-.69.44-1.22,1.3-1a2.79,2.79,0,0,0,.1.46h0c-.36,0-.49.2-.54.51h0a1.15,1.15,0,0,0-.47.06A2.2,2.2,0,0,0,11.08,14Z" transform="translate(-0.5 -0.53)"/><path class="cls-62" d="M38.9,28.42,39,27.05l.2-.06.21,0C40,27.77,40.13,28.36,38.9,28.42Z" transform="translate(-0.5 -0.53)"/><path class="cls-63" d="M45,16.9l-.58.14c-.41-.13-1.06,0-.86-1Z" transform="translate(-0.5 -0.53)"/><path class="cls-64" d="M39.46,27l-.21,0-.2.06H38a2.48,2.48,0,0,1-.46-.15l.47-.46,1.48.08Z" transform="translate(-0.5 -0.53)"/><path class="cls-65" d="M11.55,14A1.14,1.14,0,0,1,12,14a1.8,1.8,0,0,1,0,.43l0,.59,0,.53-.14-.09a2.19,2.19,0,0,1-.43,0l0-.89A3.81,3.81,0,0,1,11.55,14Z" transform="translate(-0.5 -0.53)"/><path class="cls-66" d="M28.59,20l-.67-.09a2.21,2.21,0,0,1,.16-.47c.51.08,1.17-.27,1.43.5h0l-.54.11A1.06,1.06,0,0,0,28.59,20Z" transform="translate(-0.5 -0.53)"/><path class="cls-67" d="M37.51,26.89A2.48,2.48,0,0,0,38,27l-.46.82C36.64,27.54,36.94,27.22,37.51,26.89Z" transform="translate(-0.5 -0.53)"/><path class="cls-68" d="M28.46,21.39a3.76,3.76,0,0,0,.06-.48l.23,0,.23,0,.53.09,0,0,.12.51-.6,0Z" transform="translate(-0.5 -0.53)"/><path class="cls-69" d="M13,15.45a.69.69,0,0,1-.52.61A1.13,1.13,0,0,0,12,16l-.1-.51.14.09.9-.06Z" transform="translate(-0.5 -0.53)"/><path class="cls-70" d="M38.49,25c0,.39.07.86-.49,1C38,25.54,37.94,25.12,38.49,25Z" transform="translate(-0.5 -0.53)"/><path class="cls-71" d="M27.51,20q0,.43,0,.86c-.17-.1-.45-.18-.48-.32C26.94,20.24,27.12,20,27.51,20Z" transform="translate(-0.5 -0.53)"/><path class="cls-72" d="M39.47,25.9c-.12-.08-.36-.16-.35-.23s.18-.27.38-.17A1.87,1.87,0,0,1,39.47,25.9Z" transform="translate(-0.5 -0.53)"/><path class="cls-73" d="M15.56,13.48l-.22-.07-.23,0L14.85,13l.66,0Z" transform="translate(-0.5 -0.53)"/><path class="cls-9" d="M12.49,13.48a2.79,2.79,0,0,1-.1-.46L13,13l-.07,0C13,13.3,12.82,13.46,12.49,13.48Z" transform="translate(-0.5 -0.53)"/><path class="cls-74" d="M13.44,12.53q0,.19.05.39l-.51,0L13,13C12.81,12.49,13.18,12.56,13.44,12.53Z" transform="translate(-0.5 -0.53)"/><path class="cls-75" d="M11.55,14a3.81,3.81,0,0,0-.07.49c-.26-.07-.49-.18-.4-.52A2.2,2.2,0,0,1,11.55,14Z" transform="translate(-0.5 -0.53)"/><path class="cls-76" d="M15.5,14.39l.39-.58.13.67-.09,0A.76.76,0,0,1,15.5,14.39Z" transform="translate(-0.5 -0.53)"/><path class="cls-1" d="M11.94,15.45,12,16l-.53-.54A2.19,2.19,0,0,0,11.94,15.45Z" transform="translate(-0.5 -0.53)"/><path class="cls-77" d="M35,16.48H32c-.33-1.6-1.65-.83-2.55-1.07.33-.9-.95-1.81,0-2.71l1-.05a4.87,4.87,0,0,0,4-.1l3.42-.21,0,3.17C37,15.77,35.49,14.66,35,16.48Z" transform="translate(-0.5 -0.53)"/><path class="cls-78" d="M37.94,12.34l-3.42.21L32,12.4l2.5-3.34a8.39,8.39,0,0,1,3.19.11C38.15,10.21,37.75,11.3,37.94,12.34Z" transform="translate(-0.5 -0.53)"/><path class="cls-79" d="M30.47,12.65l-1,.05c-.7-3.16.06-3.84,4.08-3.63-.81,1.16-2.27,1.82-2.63,3.34Z" transform="translate(-0.5 -0.53)"/><path class="cls-80" d="M29.49,15.41c.9.24,2.22-.53,2.55,1.07-.62.79-1.51.54-2.26.43C28.57,16.72,28.87,16.05,29.49,15.41Z" transform="translate(-0.5 -0.53)"/><path class="cls-81" d="M35,16.48c.53-1.82,2-.71,3-1C37.53,17,37,17.2,35,16.48Z" transform="translate(-0.5 -0.53)"/><path class="cls-82" d="M31,12.4c.36-1.52,1.82-2.17,2.63-3.34h.89L32,12.4Z" transform="translate(-0.5 -0.53)"/><path class="cls-83" d="M22.06,23.35c1.67.54.62,2,1,3-.53,0-1.16.46-1.51-.34C22.33,25.22,21.85,24.23,22.06,23.35Z" transform="translate(-0.5 -0.53)"/><path class="cls-84" d="M44.45,21.49q.07.21.14.43H44Z" transform="translate(-0.5 -0.53)"/><path class="cls-85" d="M14.59,22l.94-.06c.06.67,1.12.77.91,1.67-.74.41-1.5.16-2.38.13Z" transform="translate(-0.5 -0.53)"/><path class="cls-86" d="M13,19.47l-.05,5c-1.29-.18-2.71.67-3.89-.46l1.05-.08c.74-.15,1.55.16,2.23-.22.12-.88-.88-1-.88-1.7.09-.25,1.12.38.5-.53-.17-.48-.62-.42-1-.51C10.7,19.09,12,19.5,13,19.47Z" transform="translate(-0.5 -0.53)"/><path class="cls-87" d="M15.5,14.39a.76.76,0,0,0,.42,0c0,.33-.16.49-.43.61a1.13,1.13,0,0,0-.41-.08L15,15l.05-.5A3.07,3.07,0,0,0,15.5,14.39Z" transform="translate(-0.5 -0.53)"/><path class="cls-88" d="M15.09,15a1.13,1.13,0,0,1,.41.08l0,.52A.5.5,0,0,1,15.09,15Z" transform="translate(-0.5 -0.53)"/><path class="cls-89" d="M13.52,27.47c-.68-.47-2.87,1.15-2-1.45,1.21-.16,2.27.76,3.49.46,0,.33.61.66,0,1Z" transform="translate(-0.5 -0.53)"/><path class="cls-90" d="M15,27.47c.6-.33,0-.66,0-1,.68-.92,1.66-.35,2.5-.51-.39.56-.18,1.22-.16,1.82C16.42,28,15.64,28.26,15,27.47Z" transform="translate(-0.5 -0.53)"/><path class="cls-91" d="M11.49,22c0,.69,1,.82.88,1.7-.67.39-1.49.07-2.23.22-.44-.74.62-1.21.34-1.92Z" transform="translate(-0.5 -0.53)"/><path class="cls-92" d="M11.49,22h-1c-.28-.06-.45-.2-.41-.51l1.92,0C12.61,22.35,11.57,21.72,11.49,22Z" transform="translate(-0.5 -0.53)"/><path class="cls-93" d="M12,21.44l-1.92,0a.54.54,0,0,1,0-.47l.88-.06C11.36,21,11.82,21,12,21.44Z" transform="translate(-0.5 -0.53)"/><path class="cls-94" d="M29.52,20A3.41,3.41,0,0,0,30,20q0,.53,0,1.06l-.5-.06,0,0V20Z" transform="translate(-0.5 -0.53)"/><path class="cls-95" d="M29.48,20.95,30,21l-.37.45Z" transform="translate(-0.5 -0.53)"/><path class="cls-96" d="M13,12.95l.51,0,0,.59a.75.75,0,0,0,.07.46l-.13,1,.06-.05-.53,0L13,15c-.08-.65-.62-.45-1-.57A1.83,1.83,0,0,0,12,14h0a.58.58,0,0,0,.54-.51h0C12.82,13.46,13,13.3,13,12.95Z" transform="translate(-0.5 -0.53)"/><path class="cls-97" d="M13.6,14a.75.75,0,0,1-.07-.46,2.41,2.41,0,0,1,.44-.19l.54.15c0,.32-.25.45-.53.52Z" transform="translate(-0.5 -0.53)"/><path class="cls-98" d="M14.5,13.47,14,13.32a.71.71,0,0,1,.89-.32l.26.43Z" transform="translate(-0.5 -0.53)"/><path class="cls-99" d="M13.6,14,14,14l.07.52a4.15,4.15,0,0,1-.07.43V15l-.51,0Z" transform="translate(-0.5 -0.53)"/><path class="cls-100" d="M13,14.91l.53,0c0,.3-.18.5-.51.51l0,0Z" transform="translate(-0.5 -0.53)"/><path class="cls-101" d="M14,14.93A4.15,4.15,0,0,0,14,14.5h1L15,15Z" transform="translate(-0.5 -0.53)"/><path class="cls-102" d="M29,20.9l-.23,0-.23,0,.07-.89a1.08,1.08,0,0,1,.39.06Q29,20.49,29,20.9Z" transform="translate(-0.5 -0.53)"/><path class="cls-103" d="M12.53,13.49A.58.58,0,0,1,12,14C12,13.69,12.17,13.46,12.53,13.49Z" transform="translate(-0.5 -0.53)"/><path class="cls-104" d="M13,14.91l0,.55-.9.06,0-.53,1,0Z" transform="translate(-0.5 -0.53)"/><path class="cls-105" d="M13,15l-1,0,0-.59C12.4,14.53,12.95,14.33,13,15Z" transform="translate(-0.5 -0.53)"/><path class="cls-106" d="M29,20.9q0-.41,0-.81l.54-.11q0,.51,0,1Z" transform="translate(-0.5 -0.53)"/><path class="cls-107" d="M31,12.4h1l2.55.15a4.87,4.87,0,0,1-4,.1Z" transform="translate(-0.5 -0.53)"/></g></g></svg>