<svg xmlns="http://www.w3.org/2000/svg" viewBox="0 0 355.75 355.69"><defs><style>.cls-1{fill:#4f6eb5;}.cls-2{fill:#244196;}.cls-3{fill:#45c2d7;}.cls-4{fill:#7cd0e7;}</style></defs><title>search-icon</title><g id="Warstwa_2" data-name="Warstwa 2"><g id="Warstwa_1-2" data-name="Warstwa 1"><path class="cls-1" d="M316.24,360.31,216.67,256.62l27.28-24.18L343.8,332.67l-22,27.64Z" transform="translate(-4.79 -4.62)"/><path class="cls-2" d="M343.8,332.67,243.94,232.44l13-16L360.54,316v5.54Z" transform="translate(-4.79 -4.62)"/><path class="cls-2" d="M45.23,40.15C93.56-2.55,146.74-7.55,198.38,29.45c58.87,42.18,64.83,100,35.33,163.49l-16.85,17.52L199.3,187.9c31.8-43,32-86.41-5.89-124.2-41.26-41.16-86.87-35.44-131.16-2.07Z" transform="translate(-4.79 -4.62)"/><path class="cls-1" d="M45.23,40.15l17,21.48a28.34,28.34,0,0,0-.4,3.64c-38.68,47-37,94.48,8.47,133,40.45,34.24,85.16,34.75,123.33-8.9l5.65-1.47,17.55,22.57-23.63,23.08c-63.78,29.34-122.1,23.53-163.92-36.08C-8.86,143.05-1.64,88.4,45.23,40.15Z" transform="translate(-4.79 -4.62)"/><path class="cls-3" d="M193.23,233.55l23.63-23.08,16.85-17.52,23.18,23.5-12.95,16-27.27,24.18Z" transform="translate(-4.79 -4.62)"/><path class="cls-4" d="M61.85,65.27a28.34,28.34,0,0,1,.4-3.64c44.29-33.37,89.9-39.09,131.16,2.07,37.88,37.79,37.7,81.18,5.89,124.2l-5.65,1.47Z" transform="translate(-4.79 -4.62)"/></g></g></svg>