<svg xmlns="http://www.w3.org/2000/svg" viewBox="0 0 48.04 48.04"><defs><style>.cls-1{fill:#272324;}</style></defs><title>search</title><g id="Warstwa_2" data-name="Warstwa 2"><g id="Warstwa_1-2" data-name="Warstwa 1"><path class="cls-1" d="M24.5.72C28,2.1,31.63,3.31,34.53,6a20.13,20.13,0,0,1,4.32,24.28c-1.12,2.14-1,3.39.8,5,2.54,2.21,4.79,4.74,7.19,7.11,1.59,1.57,2.49,3.34.74,5.22-1.9,2-3.78,1.21-5.48-.52-2.63-2.67-5.32-5.28-7.93-8-1-1-1.7-1.29-3.14-.46A20.28,20.28,0,0,1,1.18,26.25c-.07-.3-.45-.52-.68-.78V17.22Q4.3,4.52,17,.72ZM7.2,21A13.52,13.52,0,0,0,20.64,34.7,13.5,13.5,0,0,0,34.49,21.09,13.51,13.51,0,0,0,20.67,7.42,13.54,13.54,0,0,0,7.2,21Z" transform="translate(-0.5 -0.72)"/></g></g></svg>