<svg xmlns="http://www.w3.org/2000/svg" viewBox="0 0 437.9 89.29"><defs><style>.cls-1{fill:#3ec1c9;}.cls-2{fill:#9a9898;}.cls-3{fill:#9b9999;}.cls-4{fill:#999797;}.cls-5{fill:#9c9a99;}.cls-6{fill:#959393;}.cls-7{fill:#969494;}.cls-8{fill:#979595;}.cls-9{fill:#989696;}.cls-10{fill:#dadada;}.cls-11{fill:#5a5756;}.cls-12{fill:#a5a3a4;}.cls-13{fill:#c9c8c8;}.cls-14{fill:#a09f9f;}.cls-15{fill:#c1c0c0;}.cls-16{fill:#9f9d9e;}.cls-17{fill:#949292;}.cls-18{fill:#929090;}.cls-19{fill:#6f6d6c;}.cls-20{fill:#9d9b9b;}.cls-21{fill:#747372;}.cls-22{fill:#848282;}.cls-23{fill:#5c5958;}.cls-24{fill:#8a8787;}.cls-25{fill:#656261;}.cls-26{fill:#757271;}.cls-27{fill:#737070;}.cls-28{fill:#797676;}.cls-29{fill:#757373;}.cls-30{fill:#9c9999;}.cls-31{fill:#d9d8d8;}.cls-32{fill:#b0afaf;}.cls-33{fill:#8e8b8b;}.cls-34{fill:#918f8f;}.cls-35{fill:#898888;}.cls-36{fill:#7e7b7b;}.cls-37{fill:#716e6e;}.cls-38{fill:#6f6d6d;}.cls-39{fill:#838181;}.cls-40{fill:#706d6d;}.cls-41{fill:#888686;}.cls-42{fill:#8f8d8d;}.cls-43{fill:#7e7c7c;}.cls-44{fill:#7e7c7b;}.cls-45{fill:#a09e9e;}.cls-46{fill:#6e6c6c;}.cls-47{fill:#8d8a8a;}.cls-48{fill:#9e9c9d;}.cls-49{fill:#8a8888;}.cls-50{fill:#7c7979;}.cls-51{fill:#777473;}.cls-52{fill:#7b7979;}.cls-53{fill:#7c7a79;}.cls-54{fill:#727070;}.cls-55{fill:#666262;}.cls-56{fill:#7f7d7c;}.cls-57{fill:#838180;}.cls-58{fill:#686565;}.cls-59{fill:#636161;}.cls-60{fill:#8e8c8c;}.cls-61{fill:#959494;}.cls-62{fill:#c0bfbe;}.cls-63{fill:#7f7c7c;}.cls-64{fill:#939090;}.cls-65{fill:#848281;}.cls-66{fill:#848080;}.cls-67{fill:#848181;}.cls-68{fill:#bdbcbc;}.cls-69{fill:#999696;}.cls-70{fill:#787575;}.cls-71{fill:#929091;}.cls-72{fill:#827f7f;}.cls-73{fill:#736f6f;}.cls-74{fill:#7f7d7d;}.cls-75{fill:#4e4b4a;}.cls-76{fill:#acabab;}.cls-77{fill:#939191;}.cls-78{fill:#b2b1b1;}.cls-79{fill:#979494;}.cls-80{fill:#949393;}.cls-81{fill:#cccccb;}.cls-82{fill:#6b6867;}.cls-83{fill:#5f5d5d;}.cls-84{fill:#868484;}.cls-85{fill:#5e5b5a;}.cls-86{fill:#949191;}.cls-87{fill:#767373;}.cls-88{fill:#696767;}.cls-89{fill:#858282;}.cls-90{fill:#656262;}.cls-91{fill:#cc8c46;}.cls-92{fill:#90a072;}.cls-93{fill:#83a57e;}.cls-94{fill:#76a886;}.cls-95{fill:#686564;}.cls-96{fill:#ab975e;}.cls-97{fill:#ab965f;}.cls-98{fill:#9c9d6b;}.cls-99{fill:#706d6c;}.cls-100{fill:#c78f4c;}.cls-101{fill:#83a57d;}.cls-102{fill:#7aa681;}.cls-103{fill:#76aa86;}.cls-104{fill:#83a37b;}.cls-105{fill:#696565;}.cls-106{fill:#e28338;}.cls-107{fill:#ab9961;}.cls-108{fill:#5c5959;}.cls-109{fill:#8aa176;}.cls-110{fill:#7aa581;}.cls-111{fill:#706c6c;}.cls-112{fill:#565453;}.cls-113{fill:#676464;}.cls-114{fill:#bc9153;}.cls-115{fill:#c68d4b;}.cls-116{fill:#5a5757;}.cls-117{fill:#5b5858;}.cls-118{fill:#42403f;}.cls-119{fill:#83a67d;}.cls-120{fill:#82a378;}.cls-121{fill:#bc9253;}.cls-122{fill:#dd883e;}</style></defs><title>solvo_logo_blue_transparent</title><g id="Warstwa_2" data-name="Warstwa 2"><g id="Warstwa_1-2" data-name="Warstwa 1"><path class="cls-1" d="M436.58,123.72c3,2.57,6.26,4.92,8.16,8.55,1,1.83.94,2-.15,4.06-.16.3-.63.43-.51.9a.64.64,0,0,0-.75.75.64.64,0,0,1-.75.75.64.64,0,0,0-.75.75c-.46-.11-.59.34-.88.5-2.49,1.33-2.49,1.33-5,0-.3-.16-.43-.61-.88-.5a.64.64,0,0,0-.75-.75.64.64,0,0,0-.75-.75.64.64,0,0,0-.75-.75.64.64,0,0,0-.75-.75,10.77,10.77,0,0,1-3.75-3.75.64.64,0,0,0-.75-.75.64.64,0,0,0-.75-.75.64.64,0,0,0-.75-.75.64.64,0,0,0-.75-.75c-1.09-2.1-3.41-3.15-4.5-5.25a.64.64,0,0,0-.75-.75.64.64,0,0,0-.75-.75.64.64,0,0,0-.75-.75.64.64,0,0,0-.75-.75.64.64,0,0,0-.75-.75.64.64,0,0,0-.75-.75.64.64,0,0,0-.75-.75l-.75-1.5a.64.64,0,0,0-.75-.75.64.64,0,0,0-.75-.75c-.8-.11-1.29-1.12-2.25-.75-.08-.21-.13-.57-.25-.59-.45-.1-.52.23-.5.59-2.89,1.48-5.8,2.85-9.16,3-1.79.1-3.34,1.16-5.44.22a20.05,20.05,0,0,0-5.15-1c-1.88-.25-3.29-1.6-5-2.24a.64.64,0,0,0-.75-.75l-1.5-.75a.64.64,0,0,0-.75-.75.64.64,0,0,0-.75-.75,4.06,4.06,0,0,1-2.25-2.25.64.64,0,0,0-.75-.75.64.64,0,0,0-.75-.75l-.75-1.5a.64.64,0,0,0-.75-.75l-2.25-4.26c-1-1.9-.72-4.09-1.48-6.07-1.34-3.51.4-6.72,1.22-10,.25-1,.21-2.11,1-2.92a.64.64,0,0,0,.75-.75l1.5-3a.64.64,0,0,0,.75-.75.64.64,0,0,0,.75-.75,7.6,7.6,0,0,1,3-3,.64.64,0,0,0,.75-.75.64.64,0,0,0,.75-.75l1.5-.75a.64.64,0,0,0,.75-.75,22.77,22.77,0,0,1,24.75,0,.64.64,0,0,0,.75.75l1.5.75a.64.64,0,0,0,.75.75.64.64,0,0,0,.75.75,7.6,7.6,0,0,1,3,3,.64.64,0,0,0,.75.75.64.64,0,0,0,.75.75l.75,1.5a.64.64,0,0,0,.75.75c1.7,2.71,2.26,5.82,2.93,8.85.3,1.36,1.65,2.83.74,4.1S423,97.6,422.49,99a41.08,41.08,0,0,1-1.43,3.89,22.7,22.7,0,0,1-1.83,3.54c.63,1.34,2,1.75,2.36,3a.64.64,0,0,0,.75.75.64.64,0,0,0,.75.75.64.64,0,0,0,.75.75.64.64,0,0,0,.75.75.64.64,0,0,0,.75.75.64.64,0,0,0,.75.75.64.64,0,0,0,.75.75.64.64,0,0,0,.75.75.64.64,0,0,0,.75.75c1.36.26,1.64,2,3,2.25a.64.64,0,0,0,.75.75.64.64,0,0,0,.75.75.64.64,0,0,0,.75.75.64.64,0,0,0,.75.75.64.64,0,0,0,.75.75.64.64,0,0,0,.75.75A.64.64,0,0,0,436.58,123.72Zm-22.5-30.2a3.92,3.92,0,0,0-.05-1.65,5.22,5.22,0,0,1-.74-1.58c-.58-4-2.14-7.43-5.79-9.49-3.84-2.17-7.74-4.09-12.43-2.86a20.22,20.22,0,0,0-8.38,4,11.72,11.72,0,0,0-3.26,4.92c-.8,2.56-2,5.16-1.56,7.95a21.38,21.38,0,0,0,1.54,5.71c.68,1.45,1.8,2.7,2.43,4.24a1.88,1.88,0,0,0,1.44,1,6.1,6.1,0,0,1,2.13,1.15,14.05,14.05,0,0,0,11.8,2.54c1.42-.34,7.52-2.93,8.06-3.91,1-1.77,2.66-3.19,3.2-5C413.13,98.33,414.21,96.14,414.08,93.52Z" transform="translate(-7.54 -68.31)"/><path class="cls-2" d="M13.58,137.22,8.39,148.34a58,58,0,0,0,11.68,5.41c1.12.33,2.46.35,3.26,1.46-2.62.52-4.86-.95-7.13-1.69-2.56-.84-4.89-2.51-7.44-3.59a2,2,0,0,1-1-2.75c1.54-3.34,3.13-6.65,4.72-10,0,0,.24,0,.36,0Z" transform="translate(-7.54 -68.31)"/><path class="cls-3" d="M67.58,85.47c.21,2.37-1.7,4-2,6.21-.19,1.17-1.66,1.89-.85,3.17-2.43,1.31-4-.67-5.78-1.2a12.71,12.71,0,0,1-4.82-2.18c3.09-.25,5.51,1.62,8.21,2.62.31.12.55.45,1.14.35,1.24-3.17,2.51-6.44,3.79-9.71,0,0,.23,0,.36,0Z" transform="translate(-7.54 -68.31)"/><path class="cls-3" d="M47.33,111c2.6-.56,4.76,1,7.1,1.63,3.05.76,5.89,2.38,8.82,3.62.36.15.66.29.58.76v.75a68.83,68.83,0,0,0-15.93-6C47.53,111.62,47.25,111.43,47.33,111Z" transform="translate(-7.54 -68.31)"/><path class="cls-4" d="M99.83,150c4.28,2.12,8.47,4.46,13.24,5.39.12,0,.18.4.26.61-2.33.33-4.33-.83-6.39-1.55a20.65,20.65,0,0,1-7.11-3.7Z" transform="translate(-7.54 -68.31)"/><path class="cls-5" d="M32.33,122.22a9.67,9.67,0,0,1-4.15-.72c-2.89-1.1-5.84-2-8.76-3-.37-.13-.67-.29-.58-.75V117c3.24,1.76,6.84,2.52,10.26,3.78C30.19,121.16,31.55,121.09,32.33,122.22Z" transform="translate(-7.54 -68.31)"/><path class="cls-2" d="M101.33,81.72c1.3-1.85,3.59-1.81,5.39-2.58,2.28-1,4.66-2.26,7.36-1.92-1.35,1.57-3.46,1.4-5.17,2.15-2.49,1.09-5.14,1.85-7.58,3.1Z" transform="translate(-7.54 -68.31)"/><path class="cls-5" d="M145.58,81.72c-3.53-1.33-6.93-3-10.67-3.75-.38-.07-.67-.28-.58-.75,2.71-.34,5,1,7.39,1.93,1.27.48,2.93.51,3.86,1.82Z" transform="translate(-7.54 -68.31)"/><path class="cls-6" d="M324.83,103.47c0-.49-.18-1.09,0-1.46,1.56-2.73,2.33-5.88,4.47-8.29h.75c-1.5,3.06-3,6.11-4.49,9.18C325.42,103.24,325.29,103.56,324.83,103.47Z" transform="translate(-7.54 -68.31)"/><path class="cls-7" d="M87.83,139.47c-2.27-3.14-4.33-7.6-4.5-9.75,2.1,2.41,2.88,5.54,4.49,8.22.29.49.51,1,.76,1.53Z" transform="translate(-7.54 -68.31)"/><path class="cls-8" d="M349.58,154.47c-.49,0-1.09.18-1.46,0-2.73-1.56-5.88-2.33-8.29-4.47v-.75c3.06,1.5,6.11,3,9.18,4.49C349.36,153.88,349.67,154,349.58,154.47Z" transform="translate(-7.54 -68.31)"/><path class="cls-9" d="M148.58,150.72c-2.49,1.82-5.09,3.4-8.25,3.75,1.93-1.81,4.5-2.45,6.72-3.74.49-.29,1-.51,1.53-.76Z" transform="translate(-7.54 -68.31)"/><path class="cls-9" d="M390.08,150.72c-2.49,1.82-5.09,3.4-8.25,3.75,1.93-1.81,4.5-2.45,6.72-3.74.49-.29,1-.51,1.53-.76Z" transform="translate(-7.54 -68.31)"/><path class="cls-9" d="M62.33,151.47c-2.49,1.82-5.09,3.4-8.25,3.75,1.93-1.81,4.5-2.45,6.72-3.74.49-.29,1-.51,1.53-.76Z" transform="translate(-7.54 -68.31)"/><path class="cls-7" d="M160.58,138c1.25-2.56,2.51-5.11,3.74-7.68.17-.35.29-.66.76-.57-.13.7.25,1.44-.24,2.13-1.38,1.92-1.75,4.42-3.51,6.12Z" transform="translate(-7.54 -68.31)"/><path class="cls-10" d="M199.58,122.22v11.12c-1-1.79-.69-3.67-.74-5.51s0-3.74,0-5.61Z" transform="translate(-7.54 -68.31)"/><path class="cls-2" d="M68.33,144.72c1.27-2.57,2.72-5.07,3.14-8,0-.11.4-.18.61-.26a12.11,12.11,0,0,1-3,8.25Z" transform="translate(-7.54 -68.31)"/><path class="cls-11" d="M198.83,88.47V78c1,0,.74.77.74,1.31,0,3.06,0,6.13,0,9.19Z" transform="translate(-7.54 -68.31)"/><path class="cls-9" d="M67.58,85.47V82.89c-1.43-1-3.35-1.19-4.5-2.67,1.94-.56,3.14,1.24,4.83,1.55.68.12.29,1.35,1,1.69C68.18,83.92,68.79,85.31,67.58,85.47Z" transform="translate(-7.54 -68.31)"/><path class="cls-12" d="M199.58,102v10.5h-.75V102Z" transform="translate(-7.54 -68.31)"/><path class="cls-13" d="M183.08,99.72v9.62c-1-1.53-.66-3.17-.73-4.77s0-3.24,0-4.86Z" transform="translate(-7.54 -68.31)"/><path class="cls-7" d="M341.33,82.47c2-1.47,4-3.06,6.75-3-1.15,1.75-3.43,1.62-4.92,2.89a3,3,0,0,1-1.83.86Z" transform="translate(-7.54 -68.31)"/><path class="cls-14" d="M407.33,128.22c-.75,2.05-1.5,4.11-2.25,6.16-.13.37-.28.67-.75.59h-.75c1-2.16,2.32-4.23,2.25-6.75Z" transform="translate(-7.54 -68.31)"/><path class="cls-13" d="M182.33,133.47v-9.62c1,1.53.66,3.17.73,4.77s0,3.24,0,4.86Z" transform="translate(-7.54 -68.31)"/><path class="cls-7" d="M84.08,102a5.33,5.33,0,0,1,.46-2.43c.86-1.42,1.35-3.07,2.54-4.32h.75C86.52,97.43,85.91,100,84.08,102Z" transform="translate(-7.54 -68.31)"/><path class="cls-8" d="M161.33,95.22c1.47,2,3.06,4,3,6.75-1.75-1.15-1.62-3.43-2.89-4.92a3,3,0,0,1-.86-1.83Z" transform="translate(-7.54 -68.31)"/><path class="cls-15" d="M198.83,112.47h.75v9.75h-.75Z" transform="translate(-7.54 -68.31)"/><path class="cls-13" d="M216.83,142.47h-9.62c1.53-1,3.17-.66,4.77-.73s3.24,0,4.86,0Z" transform="translate(-7.54 -68.31)"/><path class="cls-16" d="M183.08,99.72h-.75v-9h.75Z" transform="translate(-7.54 -68.31)"/><path class="cls-17" d="M240.83,90c-1.47-2-3.06-4-3-6.75C239.3,85.26,240.89,87.25,240.83,90Z" transform="translate(-7.54 -68.31)"/><path class="cls-3" d="M12.83,89.22c-.5,1-.77,2.33-1.56,3-1,.87,0,2.47-1.44,3H9.08c.75-1.8,1.51-3.6,2.24-5.41.15-.36.29-.67.76-.59Z" transform="translate(-7.54 -68.31)"/><path class="cls-16" d="M216.83,142.47v-.75h9v.75Z" transform="translate(-7.54 -68.31)"/><path class="cls-17" d="M308.33,105a5.33,5.33,0,0,1-.46,2.43c-.86,1.42-1.35,3.07-2.54,4.32a5.33,5.33,0,0,1,.46-2.43C306.65,107.86,307.14,106.21,308.33,105Z" transform="translate(-7.54 -68.31)"/><path class="cls-17" d="M300.83,84a5.33,5.33,0,0,1-.46,2.43c-.86,1.42-1.35,3.07-2.54,4.32a5.33,5.33,0,0,1,.46-2.43C299.15,86.86,299.64,85.21,300.83,84Z" transform="translate(-7.54 -68.31)"/><path class="cls-17" d="M257.33,128.22c-1.47-2-3.06-4-3-6.75C255.8,123.51,257.39,125.5,257.33,128.22Z" transform="translate(-7.54 -68.31)"/><path class="cls-16" d="M182.33,133.47h.75v9h-.75Z" transform="translate(-7.54 -68.31)"/><path class="cls-17" d="M283.58,123.72a5.33,5.33,0,0,1,.46-2.43c.86-1.42,1.35-3.07,2.54-4.32a5.33,5.33,0,0,1-.46,2.43C285.27,120.83,284.78,122.48,283.58,123.72Z" transform="translate(-7.54 -68.31)"/><path class="cls-4" d="M295.58,134.22a5.33,5.33,0,0,1,.46-2.43c.86-1.42,1.35-3.07,2.54-4.32a5.33,5.33,0,0,1-.46,2.43C297.27,131.33,296.78,133,295.58,134.22Z" transform="translate(-7.54 -68.31)"/><path class="cls-3" d="M72.08,129.72c-1.61-.22,0-2.22-1.42-2.55.19-1.67-1.12-2.77-1.58-4.2h.75A9,9,0,0,1,72.08,129.72Z" transform="translate(-7.54 -68.31)"/><path class="cls-18" d="M357.08,141.72a8.71,8.71,0,0,1-6-3A14.25,14.25,0,0,1,357.08,141.72Z" transform="translate(-7.54 -68.31)"/><path class="cls-4" d="M285.83,155.22c1.06-1.72,1.46-3.81,3-5.25a8.71,8.71,0,0,1-3,6Z" transform="translate(-7.54 -68.31)"/><path class="cls-19" d="M345.08,99.72a15.44,15.44,0,0,1,4.5-4.5V96a10.77,10.77,0,0,1-3.75,3.75Z" transform="translate(-7.54 -68.31)"/><path class="cls-7" d="M317.33,84c-.29-1.38.46-2.51,1.06-3.59a3.24,3.24,0,0,0,.44-1.66h1.5C319.28,80.44,318.87,82.53,317.33,84Z" transform="translate(-7.54 -68.31)"/><path class="cls-8" d="M303.83,78.72c-1.06,1.72-1.46,3.81-3,5.25a7,7,0,0,1,2.25-5.25Z" transform="translate(-7.54 -68.31)"/><path class="cls-8" d="M266.33,149.22c1.54,1.44,1.94,3.53,3,5.25h-.75A7,7,0,0,1,266.33,149.22Z" transform="translate(-7.54 -68.31)"/><path class="cls-8" d="M325.58,132c1.54,1.44,1.94,3.53,3,5.25h-.75A7,7,0,0,1,325.58,132Z" transform="translate(-7.54 -68.31)"/><path class="cls-17" d="M274.58,126.72a7,7,0,0,1,2.25,5.25A7,7,0,0,1,274.58,126.72Z" transform="translate(-7.54 -68.31)"/><path class="cls-17" d="M243.08,95.22A7,7,0,0,1,240.83,90,7,7,0,0,1,243.08,95.22Z" transform="translate(-7.54 -68.31)"/><path class="cls-20" d="M11.33,110.22c-1.23-.31-1.28-1.6-1.38-2.35s-.8-1.36-.87-2.15h.75c.2.08.58.15.58.24.07,1.62,1,2.88,1.67,4.26Z" transform="translate(-7.54 -68.31)"/><path class="cls-17" d="M257.33,128.22a7,7,0,0,1,2.25,5.25A7,7,0,0,1,257.33,128.22Z" transform="translate(-7.54 -68.31)"/><path class="cls-17" d="M261.83,138.72a7,7,0,0,1-2.25-5.25A7,7,0,0,1,261.83,138.72Z" transform="translate(-7.54 -68.31)"/><path class="cls-17" d="M295.58,96a7,7,0,0,1,2.25-5.25A7,7,0,0,1,295.58,96Z" transform="translate(-7.54 -68.31)"/><path class="cls-17" d="M247.58,105.72a7,7,0,0,1,2.25,5.25A7,7,0,0,1,247.58,105.72Z" transform="translate(-7.54 -68.31)"/><path class="cls-4" d="M259.58,91.47a7,7,0,0,1,2.25,5.25A7,7,0,0,1,259.58,91.47Z" transform="translate(-7.54 -68.31)"/><path class="cls-17" d="M267.83,111a7,7,0,0,1-2.25-5.25A7,7,0,0,1,267.83,111Z" transform="translate(-7.54 -68.31)"/><path class="cls-4" d="M255.08,81a7,7,0,0,1,2.25,5.25A7,7,0,0,1,255.08,81Z" transform="translate(-7.54 -68.31)"/><path class="cls-4" d="M293.33,139.47a7,7,0,0,1,2.25-5.25A7,7,0,0,1,293.33,139.47Z" transform="translate(-7.54 -68.31)"/><path class="cls-17" d="M291.08,106.47a7,7,0,0,1-2.25,5.25A7,7,0,0,1,291.08,106.47Z" transform="translate(-7.54 -68.31)"/><path class="cls-21" d="M381.83,137.22a7.6,7.6,0,0,1,3-3h.75a10.77,10.77,0,0,1-3.75,3.75Z" transform="translate(-7.54 -68.31)"/><path class="cls-22" d="M402.83,137.22a5.35,5.35,0,0,1-3,4.5A11.27,11.27,0,0,1,402.83,137.22Z" transform="translate(-7.54 -68.31)"/><path class="cls-22" d="M96.08,85.47a5.35,5.35,0,0,1,4.5-3A11.27,11.27,0,0,1,96.08,85.47Z" transform="translate(-7.54 -68.31)"/><path class="cls-17" d="M261.83,138.72a7,7,0,0,1,2.25,5.25A7,7,0,0,1,261.83,138.72Z" transform="translate(-7.54 -68.31)"/><path class="cls-4" d="M291.08,144.72a7,7,0,0,1,2.25-5.25A7,7,0,0,1,291.08,144.72Z" transform="translate(-7.54 -68.31)"/><path class="cls-23" d="M237.83,142.47h-6v-.75h5.82c.51,0,1,.05.93.75Z" transform="translate(-7.54 -68.31)"/><path class="cls-17" d="M310.58,99.72a7,7,0,0,1,2.25-5.25A7,7,0,0,1,310.58,99.72Z" transform="translate(-7.54 -68.31)"/><path class="cls-17" d="M264.08,144a7,7,0,0,1,2.25,5.25A7,7,0,0,1,264.08,144Z" transform="translate(-7.54 -68.31)"/><path class="cls-4" d="M291.08,144.72a7,7,0,0,1-2.25,5.25A7,7,0,0,1,291.08,144.72Z" transform="translate(-7.54 -68.31)"/><path class="cls-17" d="M315.08,89.22A7,7,0,0,1,317.33,84,7,7,0,0,1,315.08,89.22Z" transform="translate(-7.54 -68.31)"/><path class="cls-24" d="M199.58,102h-.75V95.22h.75Z" transform="translate(-7.54 -68.31)"/><path class="cls-17" d="M245.33,100.47a7,7,0,0,1-2.25-5.25A7,7,0,0,1,245.33,100.47Z" transform="translate(-7.54 -68.31)"/><path class="cls-23" d="M183.08,155.22c-.7.05-.75-.42-.75-.93q0-2.91,0-5.82h.75Z" transform="translate(-7.54 -68.31)"/><path class="cls-17" d="M293.33,101.22A7,7,0,0,1,295.58,96,7,7,0,0,1,293.33,101.22Z" transform="translate(-7.54 -68.31)"/><path class="cls-25" d="M183.08,155.22h6.75V156H184C183.5,156,183,155.92,183.08,155.22Z" transform="translate(-7.54 -68.31)"/><path class="cls-25" d="M238.58,155.22c.05.7-.42.75-.93.75h-5.82v-.75h6.75Z" transform="translate(-7.54 -68.31)"/><path class="cls-4" d="M257.33,86.22a7,7,0,0,1,2.25,5.25A7,7,0,0,1,257.33,86.22Z" transform="translate(-7.54 -68.31)"/><path class="cls-17" d="M252.08,116.22a7,7,0,0,1-2.25-5.25A7,7,0,0,1,252.08,116.22Z" transform="translate(-7.54 -68.31)"/><path class="cls-17" d="M308.33,105a7,7,0,0,1,2.25-5.25A7,7,0,0,1,308.33,105Z" transform="translate(-7.54 -68.31)"/><path class="cls-17" d="M270.08,116.22a7,7,0,0,1-2.25-5.25A7,7,0,0,1,270.08,116.22Z" transform="translate(-7.54 -68.31)"/><path class="cls-17" d="M245.33,100.47a7,7,0,0,1,2.25,5.25A7,7,0,0,1,245.33,100.47Z" transform="translate(-7.54 -68.31)"/><path class="cls-17" d="M265.58,105.72a7,7,0,0,1-2.25-5.25A7,7,0,0,1,265.58,105.72Z" transform="translate(-7.54 -68.31)"/><path class="cls-17" d="M286.58,117a7,7,0,0,1,2.25-5.25A7,7,0,0,1,286.58,117Z" transform="translate(-7.54 -68.31)"/><path class="cls-26" d="M199.58,95.22h-.75V88.47h.75Z" transform="translate(-7.54 -68.31)"/><path class="cls-17" d="M303.08,117a7,7,0,0,1,2.25-5.25A7,7,0,0,1,303.08,117Z" transform="translate(-7.54 -68.31)"/><path class="cls-17" d="M291.08,106.47a7,7,0,0,1,2.25-5.25A7,7,0,0,1,291.08,106.47Z" transform="translate(-7.54 -68.31)"/><path class="cls-27" d="M340,119.84v-6.49C340.84,115.49,340.45,117.67,340,119.84Z" transform="translate(-7.54 -68.31)"/><path class="cls-17" d="M254.33,121.47a7,7,0,0,1-2.25-5.25A7,7,0,0,1,254.33,121.47Z" transform="translate(-7.54 -68.31)"/><path class="cls-17" d="M272.33,121.47a7,7,0,0,1-2.25-5.25A7,7,0,0,1,272.33,121.47Z" transform="translate(-7.54 -68.31)"/><path class="cls-17" d="M315.08,89.22a7,7,0,0,1-2.25,5.25A7,7,0,0,1,315.08,89.22Z" transform="translate(-7.54 -68.31)"/><path class="cls-4" d="M368.33,77.22a7,7,0,0,1-2.25,5.25c-.29-1.38.46-2.51,1.06-3.59a3.24,3.24,0,0,0,.44-1.66Z" transform="translate(-7.54 -68.31)"/><path class="cls-17" d="M300.83,122.22a7,7,0,0,1,2.25-5.25A7,7,0,0,1,300.83,122.22Z" transform="translate(-7.54 -68.31)"/><path class="cls-17" d="M272.33,121.47a7,7,0,0,1,2.25,5.25A7,7,0,0,1,272.33,121.47Z" transform="translate(-7.54 -68.31)"/><path class="cls-23" d="M182.33,84.72q0-2.91,0-5.82c0-.51.05-1,.75-.93v6.75Z" transform="translate(-7.54 -68.31)"/><path class="cls-17" d="M300.83,122.22a7,7,0,0,1-2.25,5.25A7,7,0,0,1,300.83,122.22Z" transform="translate(-7.54 -68.31)"/><path class="cls-17" d="M283.58,123.72a7,7,0,0,1-2.25,5.25A7,7,0,0,1,283.58,123.72Z" transform="translate(-7.54 -68.31)"/><path class="cls-28" d="M183.08,148.47h-.75v-6h.75Z" transform="translate(-7.54 -68.31)"/><path class="cls-29" d="M93.08,145.47c2,0,2.77,1.66,3.75,3C94.79,148.46,94.06,146.81,93.08,145.47Z" transform="translate(-7.54 -68.31)"/><path class="cls-29" d="M91.58,144c-1.34-1-3-1.7-3-3.75C89.93,141.2,91.58,141.92,91.58,144Z" transform="translate(-7.54 -68.31)"/><path class="cls-28" d="M231.83,141.72v.75h-6v-.75Z" transform="translate(-7.54 -68.31)"/><path class="cls-30" d="M46.58,126c-1.9,0-3.8,0-5.25-1.5C43.23,124.45,45.13,124.42,46.58,126Z" transform="translate(-7.54 -68.31)"/><path class="cls-31" d="M201.08,155.22H207c-1.91,1-3.92.62-5.88.75Z" transform="translate(-7.54 -68.31)"/><path class="cls-32" d="M201.08,155.22V156h-6v-.75Z" transform="translate(-7.54 -68.31)"/><path class="cls-29" d="M338.33,84.72c-1,1.34-1.7,3-3.75,3C335.56,86.38,336.29,84.73,338.33,84.72Z" transform="translate(-7.54 -68.31)"/><path class="cls-29" d="M333.08,89.22c0,2-1.66,2.77-3,3.75C330.09,90.92,331.74,90.2,333.08,89.22Z" transform="translate(-7.54 -68.31)"/><path class="cls-7" d="M236.33,78.72c.53,1.49,1.85,2.72,1.5,4.5a7.2,7.2,0,0,1-2.25-4.5Z" transform="translate(-7.54 -68.31)"/><path class="cls-33" d="M24.08,79.47a7.2,7.2,0,0,1-4.5,2.25C20.52,79.84,22.19,79.44,24.08,79.47Z" transform="translate(-7.54 -68.31)"/><path class="cls-28" d="M182.33,84.72h.75v6h-.75Z" transform="translate(-7.54 -68.31)"/><path class="cls-32" d="M226.58,156h-6v-.75h6Z" transform="translate(-7.54 -68.31)"/><path class="cls-31" d="M220.58,155.22V156h-5.88C216.62,155,218.62,155.35,220.58,155.22Z" transform="translate(-7.54 -68.31)"/><path class="cls-34" d="M341.33,107.22c0-1.89.37-3.57,2.25-4.5A7.2,7.2,0,0,1,341.33,107.22Z" transform="translate(-7.54 -68.31)"/><path class="cls-35" d="M69.08,145.47a7.6,7.6,0,0,1-3,3c-.11-1.65,1-2.34,2.25-3Z" transform="translate(-7.54 -68.31)"/><path class="cls-3" d="M27.08,78c1.36-1.1,3-.69,4.5-.75-.08.2-.18.59-.24.59-1.52-.15-2.77,1-4.26.91Z" transform="translate(-7.54 -68.31)"/><path class="cls-36" d="M156.08,144a7.6,7.6,0,0,1,3-3c.11,1.65-1,2.34-2.25,3Z" transform="translate(-7.54 -68.31)"/><path class="cls-7" d="M348.08,79.47c1.07-1.79,2.84-1.48,4.5-1.5A5.93,5.93,0,0,1,348.08,79.47Z" transform="translate(-7.54 -68.31)"/><path class="cls-37" d="M236.33,78.72h-.75c.08-.63-.34-1.53.89-1.51s2.41,0,3.61,0V78h-2.85C236.72,78,236.28,78.05,236.33,78.72Z" transform="translate(-7.54 -68.31)"/><path class="cls-8" d="M324.08,127.47a5.93,5.93,0,0,1,1.5,4.5C323.79,130.9,324.11,129.13,324.08,127.47Z" transform="translate(-7.54 -68.31)"/><path class="cls-7" d="M84.08,102a5.93,5.93,0,0,1-1.5,4.5C82.61,104.81,82.29,103,84.08,102Z" transform="translate(-7.54 -68.31)"/><path class="cls-36" d="M151.58,148.47a7.6,7.6,0,0,1,3-3v.75C153.92,147.42,153.23,148.58,151.58,148.47Z" transform="translate(-7.54 -68.31)"/><path class="cls-38" d="M27.08,102.72a7.6,7.6,0,0,1,3,3C28.15,105.34,27.46,104.65,27.08,102.72Z" transform="translate(-7.54 -68.31)"/><path class="cls-39" d="M50.33,127.47c.23,0,.53-.09.69,0,1,.72,2,1.48,3.06,2.23h-.75C51.69,129.83,51,128.67,50.33,127.47Z" transform="translate(-7.54 -68.31)"/><path class="cls-40" d="M407.33,128.22h-1.5c0-.65-.37-.75-.88-.75h-2.12v-.75c.71,0,1.43,0,2.14,0A2,2,0,0,1,407.33,128.22Z" transform="translate(-7.54 -68.31)"/><path class="cls-3" d="M323.33,109.47c.06-1.53-.35-3.14.75-4.5h.75c.05,1.49-1.06,2.74-.91,4.26C323.93,109.29,323.54,109.39,323.33,109.47Z" transform="translate(-7.54 -68.31)"/><path class="cls-41" d="M150.08,84c-1.54-.27-3.07-.55-3.75-2.25C147.87,82,149.4,82.27,150.08,84Z" transform="translate(-7.54 -68.31)"/><path class="cls-3" d="M33.83,122.22c1.49-.05,2.74,1.06,4.26.91.06,0,.16.38.24.59-1.53-.06-3.14.35-4.5-.75Z" transform="translate(-7.54 -68.31)"/><path class="cls-3" d="M165.83,105.72c1.1,1.36.69,3,.75,4.5-.2-.08-.59-.18-.59-.24.15-1.52-1-2.77-.91-4.26Z" transform="translate(-7.54 -68.31)"/><path class="cls-36" d="M96.08,85.47a7.6,7.6,0,0,1-3,3v-.75C93.74,86.52,94.44,85.36,96.08,85.47Z" transform="translate(-7.54 -68.31)"/><path class="cls-42" d="M195.08,155.22V156h-5.25v-.75Z" transform="translate(-7.54 -68.31)"/><path class="cls-43" d="M92.33,89.22a7.6,7.6,0,0,1-3,3c-.11-1.65,1-2.34,2.25-3Z" transform="translate(-7.54 -68.31)"/><path class="cls-42" d="M226.58,156v-.75h5.25V156Z" transform="translate(-7.54 -68.31)"/><path class="cls-44" d="M11.33,110.22h.75c.26,1.36,2,1.64,2.25,3h-.75C12.38,112.56,11.22,111.87,11.33,110.22Z" transform="translate(-7.54 -68.31)"/><path class="cls-45" d="M357.83,91.47c.08-.2.18-.59.24-.59,1.52.15,2.77-1,4.26-.91v.75C361,91.82,359.37,91.41,357.83,91.47Z" transform="translate(-7.54 -68.31)"/><path class="cls-46" d="M27.08,95.22c.38-1.93,1.07-2.62,3-3A7.6,7.6,0,0,1,27.08,95.22Z" transform="translate(-7.54 -68.31)"/><path class="cls-44" d="M62.33,151.47v-.75c1.36-.26,1.64-2,3-2.25v.75C64.67,150.42,64,151.58,62.33,151.47Z" transform="translate(-7.54 -68.31)"/><path class="cls-36" d="M18.08,117c-1.65.11-2.34-1-3-2.25V114A7.6,7.6,0,0,1,18.08,117Z" transform="translate(-7.54 -68.31)"/><path class="cls-9" d="M48.83,142.47a3.44,3.44,0,0,1,3-1.5h.75C51.71,142.4,50.31,142.54,48.83,142.47Z" transform="translate(-7.54 -68.31)"/><path class="cls-47" d="M42.2,156.85h4.63c-1.73,1.14-3.21.25-4.59.75Z" transform="translate(-7.54 -68.31)"/><path class="cls-47" d="M322.78,124.47v-4.58c1,.75.45,1.63.54,2.39a20.35,20.35,0,0,1,0,2.24Z" transform="translate(-7.54 -68.31)"/><path class="cls-44" d="M155.33,87.72c-1.65.11-2.34-1-3-2.25C154,85.36,154.67,86.52,155.33,87.72Z" transform="translate(-7.54 -68.31)"/><path class="cls-48" d="M363.83,89.22a4,4,0,0,0,.76-2.87c-.06-.51.09-.93.74-.88q0,1.43,0,2.85c0,.51-.09.95-.75.9Z" transform="translate(-7.54 -68.31)"/><path class="cls-49" d="M358.73,156.81h4.38C360.75,157.73,360.22,157.71,358.73,156.81Z" transform="translate(-7.54 -68.31)"/><path class="cls-29" d="M330.08,140.22c1.2.66,2.36,1.35,2.25,3C331.13,142.56,330,141.87,330.08,140.22Z" transform="translate(-7.54 -68.31)"/><path class="cls-9" d="M63.08,80.22c-1.48.07-2.87-.07-3.75-1.5C60.81,78.65,62.21,78.79,63.08,80.22Z" transform="translate(-7.54 -68.31)"/><path class="cls-43" d="M158.33,91.47c-1.2-.66-2.36-1.35-2.25-3C157.29,89.13,158.45,89.82,158.33,91.47Z" transform="translate(-7.54 -68.31)"/><path class="cls-36" d="M63.83,117.72V117c1.65-.11,2.34,1,3,2.25-.58,0-1.15.09-1.63-.46S64.57,117.69,63.83,117.72Z" transform="translate(-7.54 -68.31)"/><path class="cls-50" d="M389.33,127.47c0-.67.39-.75.9-.75h2.85v.75c-1.3,0-2.65-.24-3.75.75Z" transform="translate(-7.54 -68.31)"/><path class="cls-36" d="M397.58,144.72c-.11-1.65,1-2.34,2.25-3C399.95,143.37,398.79,144.06,397.58,144.72Z" transform="translate(-7.54 -68.31)"/><path class="cls-51" d="M367.58,143.22h-4.5v-.75h4.5Z" transform="translate(-7.54 -68.31)"/><path class="cls-47" d="M31.58,157.1a7.4,7.4,0,0,1,4.5,0A7.4,7.4,0,0,1,31.58,157.1Z" transform="translate(-7.54 -68.31)"/><path class="cls-9" d="M19.58,139.47c1.48-.07,2.87.07,3.75,1.5C21.86,141,20.46,140.9,19.58,139.47Z" transform="translate(-7.54 -68.31)"/><path class="cls-17" d="M261.83,96.72c1.43.88,1.57,2.27,1.5,3.75C261.9,99.59,261.76,98.2,261.83,96.72Z" transform="translate(-7.54 -68.31)"/><path class="cls-52" d="M160.58,94.47c-1.2-.66-2.36-1.35-2.25-3C159.54,92.13,160.7,92.82,160.58,94.47Z" transform="translate(-7.54 -68.31)"/><path class="cls-53" d="M99.83,150v.75c-1.65.11-2.34-1-3-2.25.58,0,1.15-.09,1.63.46S99.1,150,99.83,150Z" transform="translate(-7.54 -68.31)"/><path class="cls-52" d="M390.83,150c.66-1.2,1.35-2.36,3-2.25C393.17,148.92,392.48,150.08,390.83,150Z" transform="translate(-7.54 -68.31)"/><path class="cls-17" d="M342.83,129.72c-1.43-.88-1.57-2.27-1.5-3.75C342.76,126.85,342.9,128.24,342.83,129.72Z" transform="translate(-7.54 -68.31)"/><path class="cls-17" d="M279.83,132a3.44,3.44,0,0,1,1.5-3c.07,1.48-.07,2.87-1.5,3.75Z" transform="translate(-7.54 -68.31)"/><path class="cls-47" d="M323.25,109.62V114C322.32,111.64,322.34,111.1,323.25,109.62Z" transform="translate(-7.54 -68.31)"/><path class="cls-49" d="M367.73,156.85H372C370.58,157.75,369.13,157.32,367.73,156.85Z" transform="translate(-7.54 -68.31)"/><path class="cls-29" d="M336.08,147c1.65-.11,2.34,1,3,2.25C337.44,149.33,336.74,148.17,336.08,147Z" transform="translate(-7.54 -68.31)"/><path class="cls-36" d="M396.83,145.47c-.66,1.2-1.35,2.36-3,2.25C394.49,146.52,395.19,145.36,396.83,145.47Z" transform="translate(-7.54 -68.31)"/><path class="cls-15" d="M402.83,126.72v.75H399.2C400.34,126.49,401.62,126.83,402.83,126.72Z" transform="translate(-7.54 -68.31)"/><path class="cls-54" d="M348.08,135.72a4.06,4.06,0,0,1,2.25,2.25,1.85,1.85,0,0,1-2.25-1.5Z" transform="translate(-7.54 -68.31)"/><path class="cls-55" d="M41.33,144H37.58v-.75h3.75Z" transform="translate(-7.54 -68.31)"/><path class="cls-56" d="M237.83,142.47h.75c.65,0,.75.37.75.88,0,.71,0,1.41,0,2.12h-.75A4,4,0,0,0,237.83,142.47Z" transform="translate(-7.54 -68.31)"/><path class="cls-3" d="M28.73,142.56h3.63C30.15,143.43,30.15,143.43,28.73,142.56Z" transform="translate(-7.54 -68.31)"/><path class="cls-7" d="M30.08,105.72a3.44,3.44,0,0,1,3,1.5C31.8,107.28,30.5,107.38,30.08,105.72Z" transform="translate(-7.54 -68.31)"/><path class="cls-3" d="M81.83,110.22q0-1.43,0-2.85c0-.51.09-.95.75-.9q0,1.43,0,2.85C82.58,109.83,82.5,110.27,81.83,110.22Z" transform="translate(-7.54 -68.31)"/><path class="cls-54" d="M345.08,132.72a4.06,4.06,0,0,1,2.25,2.25h-.75A1.85,1.85,0,0,1,345.08,132.72Z" transform="translate(-7.54 -68.31)"/><path class="cls-37" d="M273.08,156h-2.85c-.51,0-.95-.09-.9-.75h3.75Z" transform="translate(-7.54 -68.31)"/><path class="cls-3" d="M56.33,78H53.48c-.51,0-.95-.09-.9-.75h2.85C55.95,77.22,56.38,77.3,56.33,78Z" transform="translate(-7.54 -68.31)"/><path class="cls-15" d="M240.08,78v-.75h3.63C242.58,78.2,241.3,77.86,240.08,78Z" transform="translate(-7.54 -68.31)"/><path class="cls-15" d="M249.83,78H246.2c1.14-1,2.42-.64,3.63-.75Z" transform="translate(-7.54 -68.31)"/><path class="cls-37" d="M249.83,78v-.75h2.85c.51,0,.95.09.9.75Z" transform="translate(-7.54 -68.31)"/><path class="cls-7" d="M375.83,141a3.44,3.44,0,0,1,3-1.5C378.41,141.13,377.11,141,375.83,141Z" transform="translate(-7.54 -68.31)"/><path class="cls-57" d="M55.21,136.47a5.2,5.2,0,0,1,0-3.75A5.2,5.2,0,0,1,55.21,136.47Z" transform="translate(-7.54 -68.31)"/><path class="cls-17" d="M27.08,78v.75a4,4,0,0,1-3,.75A3.44,3.44,0,0,1,27.08,78Z" transform="translate(-7.54 -68.31)"/><path class="cls-33" d="M377.14,156.38a7.86,7.86,0,0,1-4.24.06A5.31,5.31,0,0,1,377.14,156.38Z" transform="translate(-7.54 -68.31)"/><path class="cls-58" d="M320.33,78.72h-1.5c-.06-1.12-.93-.64-1.5-.75v-.75C318.61,77.16,319.91,77.06,320.33,78.72Z" transform="translate(-7.54 -68.31)"/><path class="cls-3" d="M27.08,156H24.23c-.51,0-.95-.09-.9-.75h2.85C26.7,155.22,27.13,155.3,27.08,156Z" transform="translate(-7.54 -68.31)"/><path class="cls-33" d="M135.64,156.38a7.86,7.86,0,0,1-4.24.06A5.31,5.31,0,0,1,135.64,156.38Z" transform="translate(-7.54 -68.31)"/><path class="cls-56" d="M238.58,155.22h-.75a4,4,0,0,0,.75-3h.75c0,.71,0,1.41,0,2.12C239.34,154.85,239.23,155.27,238.58,155.22Z" transform="translate(-7.54 -68.31)"/><path class="cls-8" d="M333.08,144a4.06,4.06,0,0,1,2.25,2.25C333.65,146.06,333.24,145.65,333.08,144Z" transform="translate(-7.54 -68.31)"/><path class="cls-3" d="M81.83,123c.67,0,.75.39.75.9q0,1.43,0,2.85c-.67,0-.75-.39-.75-.9Q81.84,124.4,81.83,123Z" transform="translate(-7.54 -68.31)"/><path class="cls-3" d="M50.94,90.63H47.3C49.52,89.76,49.52,89.76,50.94,90.63Z" transform="translate(-7.54 -68.31)"/><path class="cls-33" d="M113.48,156.06h3.63C114.9,156.93,114.9,156.93,113.48,156.06Z" transform="translate(-7.54 -68.31)"/><path class="cls-3" d="M358.58,156.72h-2.85c-.51,0-.95-.09-.9-.75h2.85C358.2,156,358.63,156.05,358.58,156.72Z" transform="translate(-7.54 -68.31)"/><path class="cls-3" d="M166.58,123q0,1.43,0,2.85c0,.51-.09.95-.75.9q0-1.43,0-2.85C165.83,123.36,165.92,122.92,166.58,123Z" transform="translate(-7.54 -68.31)"/><path class="cls-33" d="M51.11,156.43a2.71,2.71,0,0,1-.95.27c-.92-.1-1.91.33-2.93-.35C48.61,155.53,49.85,156.3,51.11,156.43Z" transform="translate(-7.54 -68.31)"/><path class="cls-33" d="M36.28,76.06A7.86,7.86,0,0,1,40.52,76,5.31,5.31,0,0,1,36.28,76.06Z" transform="translate(-7.54 -68.31)"/><path class="cls-33" d="M27.23,156.06h3.63C28.65,156.93,28.65,156.93,27.23,156.06Z" transform="translate(-7.54 -68.31)"/><path class="cls-33" d="M46.44,76.38H42.8C45,75.51,45,75.51,46.44,76.38Z" transform="translate(-7.54 -68.31)"/><path class="cls-7" d="M355.58,92.22a3.44,3.44,0,0,1-3,1.5C353,92.06,354.3,92.16,355.58,92.22Z" transform="translate(-7.54 -68.31)"/><path class="cls-15" d="M282.83,156H279.2c1.14-1,2.42-.64,3.63-.75Z" transform="translate(-7.54 -68.31)"/><path class="cls-59" d="M52.58,141h-.75a4.06,4.06,0,0,1,2.25-2.25v.75A1.84,1.84,0,0,1,52.58,141Z" transform="translate(-7.54 -68.31)"/><path class="cls-15" d="M273.08,156v-.75h3.63C275.58,156.2,274.3,155.86,273.08,156Z" transform="translate(-7.54 -68.31)"/><path class="cls-15" d="M393.08,127.47v-.75h3.63C395.58,127.7,394.3,127.36,393.08,127.47Z" transform="translate(-7.54 -68.31)"/><path class="cls-9" d="M16.58,138a3.44,3.44,0,0,1,3,1.5C18.3,139.53,17,139.63,16.58,138Z" transform="translate(-7.54 -68.31)"/><path class="cls-60" d="M33.08,90.72a3.44,3.44,0,0,1-3,1.5C30.5,90.56,31.8,90.66,33.08,90.72Z" transform="translate(-7.54 -68.31)"/><path class="cls-61" d="M37.58,143.22V144H34C35.55,142.89,36.63,143.39,37.58,143.22Z" transform="translate(-7.54 -68.31)"/><path class="cls-61" d="M41.33,144v-.75h3.61C43.36,144.3,42.29,143.8,41.33,144Z" transform="translate(-7.54 -68.31)"/><path class="cls-62" d="M238.58,145.47h.75v3.61C238.25,147.5,238.75,146.43,238.58,145.47Z" transform="translate(-7.54 -68.31)"/><path class="cls-63" d="M149.33,150a1.85,1.85,0,0,1,2.25-1.5A1.85,1.85,0,0,1,149.33,150Z" transform="translate(-7.54 -68.31)"/><path class="cls-62" d="M239.33,152.22h-.75v-3.61C239.66,150.19,239.17,151.26,239.33,152.22Z" transform="translate(-7.54 -68.31)"/><path class="cls-47" d="M120.09,76.33c1-1,2-.42,2.93-.37C122.06,76.79,121.07,76.23,120.09,76.33Z" transform="translate(-7.54 -68.31)"/><path class="cls-47" d="M128.52,76.38h-2.88c-.34-.26-.28-.59,0-.57C126.57,75.89,127.71,75.18,128.52,76.38Z" transform="translate(-7.54 -68.31)"/><path class="cls-64" d="M360.64,76.11A4.24,4.24,0,0,1,364,76,3.4,3.4,0,0,1,360.64,76.11Z" transform="translate(-7.54 -68.31)"/><path class="cls-65" d="M367.58,77.22,365.12,76c1.08-.1,2-.89,2.47.51Z" transform="translate(-7.54 -68.31)"/><path class="cls-66" d="M34.58,77.22h-3c0-.65.37-.75.88-.75h2.12Z" transform="translate(-7.54 -68.31)"/><path class="cls-67" d="M166.58,110.22c.65,0,.75.37.75.88,0,.71,0,1.41,0,2.12h-.75Z" transform="translate(-7.54 -68.31)"/><path class="cls-68" d="M46.58,76.47h3v.75H47.47C47,77.22,46.54,77.12,46.58,76.47Z" transform="translate(-7.54 -68.31)"/><path class="cls-67" d="M49.58,77.22v-.75H51.7c.51,0,.93.1.88.75Z" transform="translate(-7.54 -68.31)"/><path class="cls-67" d="M117.08,77.22h-3c0-.65.37-.75.88-.75h2.12Z" transform="translate(-7.54 -68.31)"/><path class="cls-68" d="M117.08,77.22v-.75h3c0,.65-.37.75-.88.75Z" transform="translate(-7.54 -68.31)"/><path class="cls-68" d="M128.33,76.47h3v.75h-2.12C128.7,77.22,128.29,77.12,128.33,76.47Z" transform="translate(-7.54 -68.31)"/><path class="cls-67" d="M131.33,77.22v-.75h2.12c.51,0,.93.1.88.75Z" transform="translate(-7.54 -68.31)"/><path class="cls-66" d="M358.58,77.22h-3c0-.65.37-.75.88-.75h2.12Z" transform="translate(-7.54 -68.31)"/><path class="cls-63" d="M160.58,138.72a1.85,1.85,0,0,1-1.5,2.25A1.85,1.85,0,0,1,160.58,138.72Z" transform="translate(-7.54 -68.31)"/><path class="cls-67" d="M81.83,110.22v3h-.75c0-.71,0-1.41,0-2.12C81.08,110.59,81.18,110.17,81.83,110.22Z" transform="translate(-7.54 -68.31)"/><path class="cls-69" d="M47.33,111H45.22c-.51,0-.93-.1-.88-.75h2.12C47,110.22,47.38,110.32,47.33,111Z" transform="translate(-7.54 -68.31)"/><path class="cls-9" d="M54.08,155.22c0,.65-.37.75-.88.75H51.08c0-.65.37-.75.88-.75Z" transform="translate(-7.54 -68.31)"/><path class="cls-9" d="M138.08,155.22c0,.65-.37.75-.88.75h-2.12c0-.65.37-.75.88-.75Z" transform="translate(-7.54 -68.31)"/><path class="cls-70" d="M282.83,156v-.75h3V156Z" transform="translate(-7.54 -68.31)"/><path class="cls-8" d="M354.83,156h-2.12c-.51,0-.93-.1-.88-.75H354C354.46,155.22,354.88,155.32,354.83,156Z" transform="translate(-7.54 -68.31)"/><path class="cls-9" d="M379.58,155.22c0,.65-.37.75-.88.75h-2.12c0-.65.37-.75.88-.75Z" transform="translate(-7.54 -68.31)"/><path class="cls-67" d="M120.83,157.47h-3.61c1.58-1.08,2.66-.58,3.61-.75Z" transform="translate(-7.54 -68.31)"/><path class="cls-62" d="M120.83,157.47v-.75h3.61C122.86,157.8,121.79,157.3,120.83,157.47Z" transform="translate(-7.54 -68.31)"/><path class="cls-62" d="M127.58,157.47H124c1.58-1.08,2.66-.58,3.61-.75Z" transform="translate(-7.54 -68.31)"/><path class="cls-67" d="M127.58,157.47v-.75h3.61C129.61,157.8,128.54,157.3,127.58,157.47Z" transform="translate(-7.54 -68.31)"/><path class="cls-71" d="M42.83,89.22h3.61c-1.58,1.08-2.66.58-3.61.75Z" transform="translate(-7.54 -68.31)"/><path class="cls-69" d="M355.58,77.22c0,.65-.37.75-.88.75h-2.12c0-.65.37-.75.88-.75Z" transform="translate(-7.54 -68.31)"/><path class="cls-9" d="M59.33,78.72H57.22c-.51,0-.93-.1-.88-.75h2.12C59,78,59.38,78.07,59.33,78.72Z" transform="translate(-7.54 -68.31)"/><path class="cls-4" d="M255.08,81c-1.27-.23-.73-1.68-1.5-2.25h.75C255.78,79.07,254.8,80.23,255.08,81Z" transform="translate(-7.54 -68.31)"/><path class="cls-63" d="M17.33,83.22a1.85,1.85,0,0,1,2.25-1.5A1.85,1.85,0,0,1,17.33,83.22Z" transform="translate(-7.54 -68.31)"/><path class="cls-69" d="M366.08,82.47c0,.71,0,1.41,0,2.12,0,.51-.1.93-.75.88,0-.71,0-1.41,0-2.12C365.33,82.84,365.43,82.42,366.08,82.47Z" transform="translate(-7.54 -68.31)"/><path class="cls-72" d="M17.33,83.22a1.85,1.85,0,0,1-2.25,1.5A1.85,1.85,0,0,1,17.33,83.22Z" transform="translate(-7.54 -68.31)"/><path class="cls-63" d="M340.58,83.22a1.85,1.85,0,0,1-2.25,1.5A1.85,1.85,0,0,1,340.58,83.22Z" transform="translate(-7.54 -68.31)"/><path class="cls-63" d="M150.08,84a1.85,1.85,0,0,1,2.25,1.5A1.85,1.85,0,0,1,150.08,84Z" transform="translate(-7.54 -68.31)"/><path class="cls-72" d="M15.08,84.72A1.85,1.85,0,0,1,13.58,87,1.85,1.85,0,0,1,15.08,84.72Z" transform="translate(-7.54 -68.31)"/><path class="cls-56" d="M12.83,89.22h-.75A1.85,1.85,0,0,1,13.58,87C14,87.93,12.94,88.42,12.83,89.22Z" transform="translate(-7.54 -68.31)"/><path class="cls-71" d="M40.58,90H37c1.58-1.08,2.66-.58,3.61-.75Z" transform="translate(-7.54 -68.31)"/><path class="cls-69" d="M32.89,90.36a4.24,4.24,0,0,1,3.39-.12A3.4,3.4,0,0,1,32.89,90.36Z" transform="translate(-7.54 -68.31)"/><path class="cls-69" d="M54.08,91.47H52c-.51,0-.93-.1-.88-.75H53.2C53.71,90.72,54.13,90.82,54.08,91.47Z" transform="translate(-7.54 -68.31)"/><path class="cls-63" d="M87.83,94.47a1.85,1.85,0,0,1,1.5-2.25A1.85,1.85,0,0,1,87.83,94.47Z" transform="translate(-7.54 -68.31)"/><path class="cls-63" d="M352.58,93.72a1.85,1.85,0,0,1-2.25,1.5A1.85,1.85,0,0,1,352.58,93.72Z" transform="translate(-7.54 -68.31)"/><path class="cls-73" d="M25.93,97.61a3.51,3.51,0,0,1,.11,3.08A3.27,3.27,0,0,1,25.93,97.61Z" transform="translate(-7.54 -68.31)"/><path class="cls-63" d="M345.08,100.47a1.85,1.85,0,0,1-1.5,2.25A1.85,1.85,0,0,1,345.08,100.47Z" transform="translate(-7.54 -68.31)"/><path class="cls-69" d="M341.24,107v2.88c-.26.34-.59.28-.57,0C340.75,109,340,107.84,341.24,107Z" transform="translate(-7.54 -68.31)"/><path class="cls-69" d="M35.33,108h2.12c.51,0,.93.1.88.75H36.22C35.7,108.72,35.29,108.62,35.33,108Z" transform="translate(-7.54 -68.31)"/><path class="cls-69" d="M41.33,109.47H39.22c-.51,0-.93-.1-.88-.75h2.12C41,108.72,41.38,108.82,41.33,109.47Z" transform="translate(-7.54 -68.31)"/><path class="cls-69" d="M44.33,110.22H42.22c-.51,0-.93-.1-.88-.75h2.12C44,109.47,44.38,109.57,44.33,110.22Z" transform="translate(-7.54 -68.31)"/><path class="cls-62" d="M81.08,120v-3.61c1.08,1.58.58,2.66.75,3.61Z" transform="translate(-7.54 -68.31)"/><path class="cls-62" d="M166.58,120v-3.61c1.08,1.58.58,2.66.75,3.61Z" transform="translate(-7.54 -68.31)"/><path class="cls-69" d="M341,126.16a4.24,4.24,0,0,1-.12-3.39A3.4,3.4,0,0,1,341,126.16Z" transform="translate(-7.54 -68.31)"/><path class="cls-69" d="M41.33,124.47H39.22c-.51,0-.93-.1-.88-.75h2.12C41,123.72,41.38,123.82,41.33,124.47Z" transform="translate(-7.54 -68.31)"/><path class="cls-69" d="M324.08,127.47c-.65,0-.75-.37-.75-.88,0-.71,0-1.41,0-2.12.65,0,.75.37.75.88C324.08,126.06,324.08,126.76,324.08,127.47Z" transform="translate(-7.54 -68.31)"/><path class="cls-7" d="M82.58,126.72c.65,0,.75.37.75.88,0,.71,0,1.41,0,2.12-.65,0-.75-.37-.75-.88C82.59,128.13,82.58,127.43,82.58,126.72Z" transform="translate(-7.54 -68.31)"/><path class="cls-7" d="M165.08,129.72c0-.71,0-1.41,0-2.12,0-.51.1-.93.75-.88,0,.71,0,1.41,0,2.12C165.84,129.35,165.73,129.77,165.08,129.72Z" transform="translate(-7.54 -68.31)"/><path class="cls-62" d="M166.58,113.22h.75v3.61C166.25,115.25,166.75,114.18,166.58,113.22Z" transform="translate(-7.54 -68.31)"/><path class="cls-63" d="M387.08,131.22a1.85,1.85,0,0,1,1.5-2.25A1.85,1.85,0,0,1,387.08,131.22Z" transform="translate(-7.54 -68.31)"/><path class="cls-20" d="M72.23,129.73c1,1,.42,2,.37,2.93C71.77,131.7,72.32,130.7,72.23,129.73Z" transform="translate(-7.54 -68.31)"/><path class="cls-63" d="M342.83,129.72a1.85,1.85,0,0,1,1.5,2.25A1.85,1.85,0,0,1,342.83,129.72Z" transform="translate(-7.54 -68.31)"/><path class="cls-74" d="M387.08,131.22a1.85,1.85,0,0,1-1.5,2.25A1.85,1.85,0,0,1,387.08,131.22Z" transform="translate(-7.54 -68.31)"/><path class="cls-20" d="M72.17,136.66v-2.88c.26-.34.59-.28.57,0C72.66,134.7,73.37,135.85,72.17,136.66Z" transform="translate(-7.54 -68.31)"/><path class="cls-56" d="M403.58,135h.75a1.85,1.85,0,0,1-1.5,2.25C402.47,136.26,403.48,135.77,403.58,135Z" transform="translate(-7.54 -68.31)"/><path class="cls-62" d="M81.08,113.22h.75v3.61C80.75,115.25,81.25,114.18,81.08,113.22Z" transform="translate(-7.54 -68.31)"/><path class="cls-63" d="M328.58,138a1.85,1.85,0,0,1,1.5,2.25A1.85,1.85,0,0,1,328.58,138Z" transform="translate(-7.54 -68.31)"/><path class="cls-63" d="M378.83,139.47a1.85,1.85,0,0,1,2.25-1.5A1.85,1.85,0,0,1,378.83,139.47Z" transform="translate(-7.54 -68.31)"/><path class="cls-67" d="M81.08,120h.75v3c-.65,0-.75-.37-.75-.88C81.09,121.38,81.08,120.68,81.08,120Z" transform="translate(-7.54 -68.31)"/><path class="cls-69" d="M28.58,142.47H26.47c-.51,0-.93-.1-.88-.75H27.7C28.21,141.72,28.63,141.82,28.58,142.47Z" transform="translate(-7.54 -68.31)"/><path class="cls-67" d="M166.58,120h.75c0,.71,0,1.41,0,2.12,0,.51-.1.93-.75.88Z" transform="translate(-7.54 -68.31)"/><path class="cls-69" d="M357.08,141.72h2.12c.51,0,.93.1.88.75H358C357.45,142.47,357,142.37,357.08,141.72Z" transform="translate(-7.54 -68.31)"/><path class="cls-69" d="M373.58,141.72c0,.65-.37.75-.88.75h-2.12c0-.65.37-.75.88-.75Z" transform="translate(-7.54 -68.31)"/><path class="cls-68" d="M363.08,142.47v.75H361c-.51,0-.93-.1-.88-.75Z" transform="translate(-7.54 -68.31)"/><path class="cls-68" d="M367.58,143.22v-.75h3c0,.65-.37.75-.88.75Z" transform="translate(-7.54 -68.31)"/><path class="cls-75" d="M346.58,135h.75a.64.64,0,0,1,.75.75v.75A1.84,1.84,0,0,1,346.58,135Z" transform="translate(-7.54 -68.31)"/><path class="cls-76" d="M9.08,104.22c.09-.71-.22-1.46.34-2.28.65.73.31,1.56.41,2.28Z" transform="translate(-7.54 -68.31)"/><path class="cls-8" d="M165.08,104.22c-1.45-.35-.46-1.51-.75-2.25C165.78,102.32,164.8,103.48,165.08,104.22Z" transform="translate(-7.54 -68.31)"/><path class="cls-77" d="M54.08,129.72c1.4.46.61,1.38.54,2.21-.85-.32-.42-1-.54-1.46Z" transform="translate(-7.54 -68.31)"/><path class="cls-9" d="M379.58,155.22c.35-1.45,1.51-.46,2.25-.75C381.48,155.92,380.32,154.93,379.58,155.22Z" transform="translate(-7.54 -68.31)"/><path class="cls-78" d="M34.58,77.22v-.75h2.25C36.48,77.92,35.32,76.93,34.58,77.22Z" transform="translate(-7.54 -68.31)"/><path class="cls-78" d="M358.58,77.22v-.75h2.25C360.48,77.92,359.32,76.93,358.58,77.22Z" transform="translate(-7.54 -68.31)"/><path class="cls-79" d="M46.58,126c.74.29,1.9-.7,2.25.75C48.1,126.43,46.93,127.42,46.58,126Z" transform="translate(-7.54 -68.31)"/><path class="cls-55" d="M185.33,78h-2.25c.35-1.45,1.51-.46,2.25-.75Z" transform="translate(-7.54 -68.31)"/><path class="cls-80" d="M185.33,78v-.75h2.25V78Z" transform="translate(-7.54 -68.31)"/><path class="cls-81" d="M187.58,78v-.75c.71.09,1.46-.22,2.28.34C189.13,78.21,188.31,77.87,187.58,78Z" transform="translate(-7.54 -68.31)"/><path class="cls-81" d="M194.33,78c-.71-.09-1.46.22-2.28-.34.73-.65,1.56-.31,2.28-.41Z" transform="translate(-7.54 -68.31)"/><path class="cls-80" d="M194.33,78v-.75h2.25V78Z" transform="translate(-7.54 -68.31)"/><path class="cls-55" d="M196.58,78v-.75c.74.29,1.9-.7,2.25.75Z" transform="translate(-7.54 -68.31)"/><path class="cls-25" d="M306.08,78h-2.25c.35-1.45,1.51-.46,2.25-.75Z" transform="translate(-7.54 -68.31)"/><path class="cls-80" d="M306.08,78v-.75h2.25V78Z" transform="translate(-7.54 -68.31)"/><path class="cls-81" d="M308.33,78v-.75c.71.09,1.46-.22,2.28.34C309.88,78.21,309.06,77.87,308.33,78Z" transform="translate(-7.54 -68.31)"/><path class="cls-81" d="M315.08,78c-.71-.09-1.46.22-2.28-.34.73-.65,1.56-.31,2.28-.41Z" transform="translate(-7.54 -68.31)"/><path class="cls-9" d="M23.33,141c.74.29,1.9-.7,2.25.75C24.85,141.43,23.68,142.42,23.33,141Z" transform="translate(-7.54 -68.31)"/><path class="cls-7" d="M33.08,107.22c.74.29,1.9-.7,2.25.75C34.6,107.68,33.43,108.67,33.08,107.22Z" transform="translate(-7.54 -68.31)"/><path class="cls-82" d="M40.58,90v-.75h2.25V90Z" transform="translate(-7.54 -68.31)"/><path class="cls-83" d="M13.58,137.22h-.75c.35-1.45,1.51-.46,2.25-.75v.75Z" transform="translate(-7.54 -68.31)"/><path class="cls-84" d="M15.08,137.22v-.75a1.84,1.84,0,0,1,1.5,1.5C16,137.86,15.15,138.34,15.08,137.22Z" transform="translate(-7.54 -68.31)"/><path class="cls-9" d="M49.38,142.33c-1.25,1.16-2,1.09-2.77.57C47.23,142.06,48.11,142.64,49.38,142.33Z" transform="translate(-7.54 -68.31)"/><path class="cls-77" d="M54.08,139.47v-2.39C55,138.49,55,138.49,54.08,139.47Z" transform="translate(-7.54 -68.31)"/><path class="cls-7" d="M373.58,141.72c.35-1.45,1.51-.46,2.25-.75C375.48,142.42,374.32,141.43,373.58,141.72Z" transform="translate(-7.54 -68.31)"/><path class="cls-22" d="M362.33,90.72V90l1.5-.75V90C363.77,91.09,362.9,90.61,362.33,90.72Z" transform="translate(-7.54 -68.31)"/><path class="cls-76" d="M9.83,96.72c-.09.71.22,1.46-.34,2.28-.65-.73-.31-1.56-.41-2.28Z" transform="translate(-7.54 -68.31)"/><path class="cls-7" d="M355.58,92.22c.35-1.45,1.51-.46,2.25-.75C357.48,92.92,356.32,91.93,355.58,92.22Z" transform="translate(-7.54 -68.31)"/><path class="cls-80" d="M315.08,78v-.75h2.25V78Z" transform="translate(-7.54 -68.31)"/><path class="cls-9" d="M138.08,155.22c.35-1.45,1.51-.46,2.25-.75C140,155.92,138.82,154.93,138.08,155.22Z" transform="translate(-7.54 -68.31)"/><path class="cls-8" d="M349.58,154.47c.74.29,1.9-.7,2.25.75C351.1,154.93,349.93,155.92,349.58,154.47Z" transform="translate(-7.54 -68.31)"/><path class="cls-85" d="M69.83,123h-.75v-1.5C70.21,121.53,69.72,122.4,69.83,123Z" transform="translate(-7.54 -68.31)"/><path class="cls-86" d="M33.83,122.22V123c-.57-.11-1.44.37-1.5-.75Z" transform="translate(-7.54 -68.31)"/><path class="cls-87" d="M9.83,96.72H9.08v-1.5h.75Z" transform="translate(-7.54 -68.31)"/><path class="cls-79" d="M48.83,126.72c.57.11,1.44-.37,1.5.75C49.76,127.36,48.9,127.84,48.83,126.72Z" transform="translate(-7.54 -68.31)"/><path class="cls-87" d="M9.08,104.22h.75v1.5H9.08Z" transform="translate(-7.54 -68.31)"/><path class="cls-6" d="M324.83,105h-.75c.11-.57-.37-1.44.75-1.5Z" transform="translate(-7.54 -68.31)"/><path class="cls-8" d="M165.83,105.72h-.75v-1.5C166.21,104.28,165.72,105.15,165.83,105.72Z" transform="translate(-7.54 -68.31)"/><path class="cls-88" d="M389.33,127.47v.75a.64.64,0,0,1-.75.75C388.7,128.4,388.21,127.53,389.33,127.47Z" transform="translate(-7.54 -68.31)"/><path class="cls-89" d="M27.07,95.88a.62.62,0,0,1-.43.77,3.67,3.67,0,0,1-.29-.92.64.64,0,0,1,.38-.49C27.44,95.13,26.91,95.71,27.07,95.88Z" transform="translate(-7.54 -68.31)"/><path class="cls-89" d="M26.75,102.73a.9.9,0,0,1-.35-1.19c.11-.31.38-.36.47-.13a8.33,8.33,0,0,1,.21,1C27.18,102.72,27.08,102.84,26.75,102.73Z" transform="translate(-7.54 -68.31)"/><path class="cls-90" d="M381.83,137.22V138h-.75A.64.64,0,0,1,381.83,137.22Z" transform="translate(-7.54 -68.31)"/><path class="cls-91" d="M432.83,120a.64.64,0,0,1-.75-.75A.64.64,0,0,1,432.83,120Z" transform="translate(-7.54 -68.31)"/><path class="cls-92" d="M432.83,137.22a.64.64,0,0,1,.75.75A.64.64,0,0,1,432.83,137.22Z" transform="translate(-7.54 -68.31)"/><path class="cls-93" d="M443.33,138a.64.64,0,0,1,.75-.75A.64.64,0,0,1,443.33,138Z" transform="translate(-7.54 -68.31)"/><path class="cls-94" d="M428.33,116.22a.64.64,0,0,1-.75-.75A.64.64,0,0,1,428.33,116.22Z" transform="translate(-7.54 -68.31)"/><path class="cls-95" d="M160.58,138h.75a.64.64,0,0,1-.75.75Z" transform="translate(-7.54 -68.31)"/><path class="cls-96" d="M414.08,117a.64.64,0,0,1,.75.75A.64.64,0,0,1,414.08,117Z" transform="translate(-7.54 -68.31)"/><path class="cls-90" d="M350.33,138a.64.64,0,0,1,.75.75A.64.64,0,0,1,350.33,138Z" transform="translate(-7.54 -68.31)"/><path class="cls-97" d="M426.83,114.72a.64.64,0,0,1-.75-.75A.64.64,0,0,1,426.83,114.72Z" transform="translate(-7.54 -68.31)"/><path class="cls-97" d="M433.58,138a.64.64,0,0,1,.75.75A.64.64,0,0,1,433.58,138Z" transform="translate(-7.54 -68.31)"/><path class="cls-98" d="M435.08,122.22a.64.64,0,0,1-.75-.75A.64.64,0,0,1,435.08,122.22Z" transform="translate(-7.54 -68.31)"/><path class="cls-99" d="M68.33,120.72a.64.64,0,0,1-.75-.75A.64.64,0,0,1,68.33,120.72Z" transform="translate(-7.54 -68.31)"/><path class="cls-99" d="M13.58,113.22h.75V114A.64.64,0,0,1,13.58,113.22Z" transform="translate(-7.54 -68.31)"/><path class="cls-100" d="M434.33,138.72a.64.64,0,0,1,.75.75A.64.64,0,0,1,434.33,138.72Z" transform="translate(-7.54 -68.31)"/><path class="cls-101" d="M441.83,139.47a.64.64,0,0,1,.75-.75A.64.64,0,0,1,441.83,139.47Z" transform="translate(-7.54 -68.31)"/><path class="cls-97" d="M417.83,121.47a.64.64,0,0,1,.75.75A.64.64,0,0,1,417.83,121.47Z" transform="translate(-7.54 -68.31)"/><path class="cls-95" d="M87.83,139.47h.75v.75A.64.64,0,0,1,87.83,139.47Z" transform="translate(-7.54 -68.31)"/><path class="cls-102" d="M436.58,123.72a.64.64,0,0,1-.75-.75A.64.64,0,0,1,436.58,123.72Z" transform="translate(-7.54 -68.31)"/><path class="cls-96" d="M413.33,116.22a.64.64,0,0,1,.75.75A.64.64,0,0,1,413.33,116.22Z" transform="translate(-7.54 -68.31)"/><path class="cls-97" d="M434.33,121.47a.64.64,0,0,1-.75-.75A.64.64,0,0,1,434.33,121.47Z" transform="translate(-7.54 -68.31)"/><path class="cls-103" d="M422.33,110.22a.64.64,0,0,1-.75-.75A.64.64,0,0,1,422.33,110.22Z" transform="translate(-7.54 -68.31)"/><path class="cls-104" d="M378.83,109.47a.64.64,0,0,1,.75.75A.64.64,0,0,1,378.83,109.47Z" transform="translate(-7.54 -68.31)"/><path class="cls-105" d="M199.69,141.24,200,141a2.34,2.34,0,0,1,.23.5c0,.06-.15.16-.23.25Z" transform="translate(-7.54 -68.31)"/><path class="cls-106" d="M425.33,113.22a.64.64,0,0,1-.75-.75A.64.64,0,0,1,425.33,113.22Z" transform="translate(-7.54 -68.31)"/><path class="cls-104" d="M381.83,112.47a.64.64,0,0,1,.75.75A.64.64,0,0,1,381.83,112.47Z" transform="translate(-7.54 -68.31)"/><path class="cls-107" d="M378.08,108.72a.64.64,0,0,1,.75.75A.64.64,0,0,1,378.08,108.72Z" transform="translate(-7.54 -68.31)"/><path class="cls-108" d="M54.08,129.72v.75a.64.64,0,0,1-.75-.75Z" transform="translate(-7.54 -68.31)"/><path class="cls-109" d="M419.33,123a.64.64,0,0,1,.75.75A.64.64,0,0,1,419.33,123Z" transform="translate(-7.54 -68.31)"/><path class="cls-99" d="M15.08,114v.75a.64.64,0,0,1-.75-.75Z" transform="translate(-7.54 -68.31)"/><path class="cls-110" d="M420.08,123.72a.64.64,0,0,1,.75.75A.64.64,0,0,1,420.08,123.72Z" transform="translate(-7.54 -68.31)"/><path class="cls-100" d="M425.33,129.72a.64.64,0,0,1,.75.75A.64.64,0,0,1,425.33,129.72Z" transform="translate(-7.54 -68.31)"/><path class="cls-90" d="M333.08,144a.64.64,0,0,1-.75-.75A.64.64,0,0,1,333.08,144Z" transform="translate(-7.54 -68.31)"/><path class="cls-111" d="M91.58,144a.64.64,0,0,1,.75.75A.64.64,0,0,1,91.58,144Z" transform="translate(-7.54 -68.31)"/><path class="cls-111" d="M156.08,144h.75a.64.64,0,0,1-.75.75Z" transform="translate(-7.54 -68.31)"/><path class="cls-107" d="M383.33,73.47a.64.64,0,0,1-.75.75A.64.64,0,0,1,383.33,73.47Z" transform="translate(-7.54 -68.31)"/><path class="cls-90" d="M345.08,99.72h.75a.64.64,0,0,1-.75.75Z" transform="translate(-7.54 -68.31)"/><path class="cls-112" d="M69.08,145.47h-.75v-.75h.75Z" transform="translate(-7.54 -68.31)"/><path class="cls-111" d="M93.08,145.47a.64.64,0,0,1-.75-.75A.64.64,0,0,1,93.08,145.47Z" transform="translate(-7.54 -68.31)"/><path class="cls-111" d="M156.08,144.72a.64.64,0,0,1-.75.75A.64.64,0,0,1,156.08,144.72Z" transform="translate(-7.54 -68.31)"/><path class="cls-91" d="M416.33,120a.64.64,0,0,1,.75.75A.64.64,0,0,1,416.33,120Z" transform="translate(-7.54 -68.31)"/><path class="cls-99" d="M396.83,145.47a.64.64,0,0,1,.75-.75A.64.64,0,0,1,396.83,145.47Z" transform="translate(-7.54 -68.31)"/><path class="cls-107" d="M413.33,74.22a.64.64,0,0,1-.75-.75A.64.64,0,0,1,413.33,74.22Z" transform="translate(-7.54 -68.31)"/><path class="cls-90" d="M349.58,96v-.75h.75A.64.64,0,0,1,349.58,96Z" transform="translate(-7.54 -68.31)"/><path class="cls-104" d="M382.58,74.22a.64.64,0,0,1-.75.75A.64.64,0,0,1,382.58,74.22Z" transform="translate(-7.54 -68.31)"/><path class="cls-111" d="M154.58,146.22v-.75h.75A.64.64,0,0,1,154.58,146.22Z" transform="translate(-7.54 -68.31)"/><path class="cls-97" d="M426.08,130.47a.64.64,0,0,1,.75.75A.64.64,0,0,1,426.08,130.47Z" transform="translate(-7.54 -68.31)"/><path class="cls-104" d="M414.08,75a.64.64,0,0,1-.75-.75A.64.64,0,0,1,414.08,75Z" transform="translate(-7.54 -68.31)"/><path class="cls-90" d="M335.33,146.22a.64.64,0,0,1,.75.75A.64.64,0,0,1,335.33,146.22Z" transform="translate(-7.54 -68.31)"/><path class="cls-113" d="M161.33,95.22h-.75v-.75A.64.64,0,0,1,161.33,95.22Z" transform="translate(-7.54 -68.31)"/><path class="cls-95" d="M87.83,95.22h-.75a.64.64,0,0,1,.75-.75Z" transform="translate(-7.54 -68.31)"/><path class="cls-95" d="M330.08,93.72h-.75a.64.64,0,0,1,.75-.75Z" transform="translate(-7.54 -68.31)"/><path class="cls-99" d="M65.33,149.22v-.75h.75A.64.64,0,0,1,65.33,149.22Z" transform="translate(-7.54 -68.31)"/><path class="cls-95" d="M367.58,77.22v-.75a.64.64,0,0,1,.75.75Z" transform="translate(-7.54 -68.31)"/><path class="cls-95" d="M18.83,117v.75a.64.64,0,0,1-.75-.75Z" transform="translate(-7.54 -68.31)"/><path class="cls-114" d="M433.58,120.72a.64.64,0,0,1-.75-.75A.64.64,0,0,1,433.58,120.72Z" transform="translate(-7.54 -68.31)"/><path class="cls-92" d="M426.83,131.22a.64.64,0,0,1,.75.75A.64.64,0,0,1,426.83,131.22Z" transform="translate(-7.54 -68.31)"/><path class="cls-115" d="M424.58,112.47a.64.64,0,0,1-.75-.75A.64.64,0,0,1,424.58,112.47Z" transform="translate(-7.54 -68.31)"/><path class="cls-95" d="M339.83,149.22V150a.64.64,0,0,1-.75-.75Z" transform="translate(-7.54 -68.31)"/><path class="cls-97" d="M423.83,111.72a.64.64,0,0,1-.75-.75A.64.64,0,0,1,423.83,111.72Z" transform="translate(-7.54 -68.31)"/><path class="cls-92" d="M423.08,111a.64.64,0,0,1-.75-.75A.64.64,0,0,1,423.08,111Z" transform="translate(-7.54 -68.31)"/><path class="cls-116" d="M277.52,132.41c-.09.09-.21.25-.24.23a1,1,0,0,1-.44-.34c-.15-.31,0-.47.32-.32C277.31,132.06,277.4,132.26,277.52,132.41Z" transform="translate(-7.54 -68.31)"/><path class="cls-117" d="M279.83,132v.75c-.36,0-.7,0-.59-.5C279.27,132.1,279.63,132.05,279.83,132Z" transform="translate(-7.54 -68.31)"/><path class="cls-115" d="M426.08,114a.64.64,0,0,1-.75-.75A.64.64,0,0,1,426.08,114Z" transform="translate(-7.54 -68.31)"/><path class="cls-90" d="M344.33,132a.64.64,0,0,1,.75.75A.64.64,0,0,1,344.33,132Z" transform="translate(-7.54 -68.31)"/><path class="cls-113" d="M390.08,150.72V150h.75A.64.64,0,0,1,390.08,150.72Z" transform="translate(-7.54 -68.31)"/><path class="cls-118" d="M363.83,90v-.75h.75A.64.64,0,0,1,363.83,90Z" transform="translate(-7.54 -68.31)"/><path class="cls-119" d="M411.08,72.72a.64.64,0,0,1-.75-.75A.64.64,0,0,1,411.08,72.72Z" transform="translate(-7.54 -68.31)"/><path class="cls-120" d="M410.33,115.47c0-.36,0-.7.5-.59.12,0,.17.39.25.59Z" transform="translate(-7.54 -68.31)"/><path class="cls-118" d="M268.58,154.47h.75v.75A.64.64,0,0,1,268.58,154.47Z" transform="translate(-7.54 -68.31)"/><path class="cls-98" d="M418.58,122.22a.64.64,0,0,1,.75.75A.64.64,0,0,1,418.58,122.22Z" transform="translate(-7.54 -68.31)"/><path class="cls-119" d="M376.58,106.47a.64.64,0,0,1,.75.75A.64.64,0,0,1,376.58,106.47Z" transform="translate(-7.54 -68.31)"/><path class="cls-118" d="M254.33,78.72h-.75V78A.64.64,0,0,1,254.33,78.72Z" transform="translate(-7.54 -68.31)"/><path class="cls-103" d="M427.58,132a.64.64,0,0,1,.75.75A.64.64,0,0,1,427.58,132Z" transform="translate(-7.54 -68.31)"/><path class="cls-92" d="M427.58,115.47a.64.64,0,0,1-.75-.75A.64.64,0,0,1,427.58,115.47Z" transform="translate(-7.54 -68.31)"/><path class="cls-99" d="M68.33,120.72a.64.64,0,0,1,.75.75A.64.64,0,0,1,68.33,120.72Z" transform="translate(-7.54 -68.31)"/><path class="cls-119" d="M385.58,72a.64.64,0,0,1-.75.75A.64.64,0,0,1,385.58,72Z" transform="translate(-7.54 -68.31)"/><path class="cls-103" d="M432.08,136.47a.64.64,0,0,1,.75.75A.64.64,0,0,1,432.08,136.47Z" transform="translate(-7.54 -68.31)"/><path class="cls-111" d="M333.83,88.47a.64.64,0,0,1-.75.75A.64.64,0,0,1,333.83,88.47Z" transform="translate(-7.54 -68.31)"/><path class="cls-99" d="M92.33,89.22h-.75a.64.64,0,0,1,.75-.75Z" transform="translate(-7.54 -68.31)"/><path class="cls-111" d="M333.83,88.47a.64.64,0,0,1,.75-.75A.64.64,0,0,1,333.83,88.47Z" transform="translate(-7.54 -68.31)"/><path class="cls-99" d="M155.33,87.72a.64.64,0,0,1,.75.75A.64.64,0,0,1,155.33,87.72Z" transform="translate(-7.54 -68.31)"/><path class="cls-121" d="M417.08,120.72a.64.64,0,0,1,.75.75A.64.64,0,0,1,417.08,120.72Z" transform="translate(-7.54 -68.31)"/><path class="cls-99" d="M93.08,87.72v.75h-.75A.64.64,0,0,1,93.08,87.72Z" transform="translate(-7.54 -68.31)"/><path class="cls-93" d="M375.83,82.47a.64.64,0,0,1-.75.75A.64.64,0,0,1,375.83,82.47Z" transform="translate(-7.54 -68.31)"/><path class="cls-95" d="M341.33,82.47v.75h-.75A.64.64,0,0,1,341.33,82.47Z" transform="translate(-7.54 -68.31)"/><path class="cls-109" d="M435.83,123a.64.64,0,0,1-.75-.75A.64.64,0,0,1,435.83,123Z" transform="translate(-7.54 -68.31)"/><path class="cls-119" d="M384.83,114.72a.64.64,0,0,1,.75.75A.64.64,0,0,1,384.83,114.72Z" transform="translate(-7.54 -68.31)"/><path class="cls-107" d="M382.58,113.22a.64.64,0,0,1,.75.75A.64.64,0,0,1,382.58,113.22Z" transform="translate(-7.54 -68.31)"/><path class="cls-95" d="M101.33,81.72v.75h-.75A.64.64,0,0,1,101.33,81.72Z" transform="translate(-7.54 -68.31)"/><path class="cls-119" d="M420.08,81.72a.64.64,0,0,1-.75-.75A.64.64,0,0,1,420.08,81.72Z" transform="translate(-7.54 -68.31)"/><path class="cls-95" d="M145.58,81.72V81a.64.64,0,0,1,.75.75Z" transform="translate(-7.54 -68.31)"/><path class="cls-107" d="M418.58,79.47a.64.64,0,0,1-.75-.75A.64.64,0,0,1,418.58,79.47Z" transform="translate(-7.54 -68.31)"/><path class="cls-107" d="M378.08,78.72a.64.64,0,0,1-.75.75A.64.64,0,0,1,378.08,78.72Z" transform="translate(-7.54 -68.31)"/><path class="cls-104" d="M417.83,78.72a.64.64,0,0,1-.75-.75A.64.64,0,0,1,417.83,78.72Z" transform="translate(-7.54 -68.31)"/><path class="cls-104" d="M378.83,78a.64.64,0,0,1-.75.75A.64.64,0,0,1,378.83,78Z" transform="translate(-7.54 -68.31)"/><path class="cls-118" d="M303.83,78.72h-.75a.64.64,0,0,1,.75-.75Z" transform="translate(-7.54 -68.31)"/><path class="cls-122" d="M432.08,119.22a.64.64,0,0,1-.75-.75A.64.64,0,0,1,432.08,119.22Z" transform="translate(-7.54 -68.31)"/><path class="cls-90" d="M385.58,134.22h-.75a.64.64,0,0,1,.75-.75Z" transform="translate(-7.54 -68.31)"/><path class="cls-99" d="M66.83,119.22a.64.64,0,0,1,.75.75A.64.64,0,0,1,66.83,119.22Z" transform="translate(-7.54 -68.31)"/><path class="cls-122" d="M415.58,119.22a.64.64,0,0,1,.75.75A.64.64,0,0,1,415.58,119.22Z" transform="translate(-7.54 -68.31)"/><path class="cls-95" d="M327.83,137.22h.75V138A.64.64,0,0,1,327.83,137.22Z" transform="translate(-7.54 -68.31)"/><path class="cls-95" d="M148.58,150.72V150h.75A.64.64,0,0,1,148.58,150.72Z" transform="translate(-7.54 -68.31)"/></g></g></svg>