<svg xmlns="http://www.w3.org/2000/svg" viewBox="0 0 42.96 57.09"><defs><style>.cls-1{fill:#3fc1c8;}.cls-2{fill:#070707;}.cls-3{fill:#050605;}</style></defs><title>solvo_blue_fav2</title><g id="Warstwa_2" data-name="Warstwa 2"><g id="Warstwa_1-2" data-name="Warstwa 1"><path class="cls-1" d="M42.07,21.48a3.28,3.28,0,0,1,1.78,1.79l-1.77,6.22c-3.35-.36-6.26-2.66-9.79-2.22-2.91-1.22-5.7-1.52-8.16,1-2.66,3.06-2.56,3.62,1.07,6.46l17,5.18,2.83,3.44c3.5,10.59-2.88,16.64-13.66,18C24.86,62.12,18.77,60,13,56.9a15.11,15.11,0,0,1,3-6.58c5.45,3.26,11.41,4,17.72,3,1.42-1,2.94-2,3.31-4.22-.73-2.66-2.91-3.69-5.39-4.37-3.34-.93-6.72-1.76-10-2.83C14.33,39.52,12,35.2,14,27.76c.13-.48.18-1,.27-1.47l4.1-4.57C24,18.9,30.09,19.37,36.11,19.45Z" transform="translate(-12.24 -4.4)"/><path class="cls-2" d="M42.07,21.48l-6-2a7.81,7.81,0,0,0-4.68-8C24.33,8,18.06,12.92,18.36,21.71l-4.1,4.57C11,20.09,11.73,14.83,16.12,9.87,20.85,4.52,26.89,3.1,32.69,5.58,39.35,8.43,42.63,14.19,42.07,21.48Z" transform="translate(-12.24 -4.4)"/><path class="cls-3" d="M25.2,34.71c-3.64-2.84-3.73-3.41-1.07-6.46a9.86,9.86,0,0,0,8.16-1c3.53-.44,6.44,1.86,9.79,2.22,4.26,4.67,9.8,8.16,13.12,13.3a5.35,5.35,0,0,1-4,4.81c-3-.37-3.87-3.27-6.12-4.26L42.22,39.9l-7-7.65C32,34.41,28.62,34.59,25.2,34.71Z" transform="translate(-12.24 -4.4)"/></g></g></svg>