<svg xmlns="http://www.w3.org/2000/svg" viewBox="0 0 38.96 48.04"><defs><style>.cls-1{fill:#2c292a;}.cls-2{fill:#2e2c2d;}.cls-3{fill:#2f2c2e;}.cls-4{fill:#434344;}.cls-5{fill:#4d4e50;}.cls-6{fill:#525254;}.cls-7{fill:#535355;}.cls-8{fill:#474749;}.cls-9{fill:#4f5052;}</style></defs><title>solving_problems</title><g id="Warstwa_2" data-name="Warstwa 2"><g id="Warstwa_1-2" data-name="Warstwa 1"><path class="cls-1" d="M23.38.47C27,1.82,28.79,5.28,31.52,7.66a3.51,3.51,0,0,1-.08,4.51c-1.58,1.31-2.22,3.31-3.75,4.56s-3.4,2.48-5.24,3.8c-1.83.14-3.92.74-4.87-1.88,1.6-2.61,1.85-2.68,5.81-1.79,6.3-3.34,6.53-9.43.41-13.42C21.88,5.38,20.25,7.91,17.09,8c-.85-1-.65-1.81.38-2.16a8.05,8.05,0,0,0,3.71-2.88c-2.95-.32-4.76,1-6.42,2.93-1.82,2.11-.59,4.88-1.67,7-1.36.68-2.26.14-3.08-.81a9.45,9.45,0,0,1-.16-4c2.73-2.6,4.68-6,8.27-7.59Z" transform="translate(-5.41 -0.47)"/><path class="cls-2" d="M16.94,23.23c2.51,2.08,2.51,2.08,5.4,2l2.29-2.07c2.51.57,5.08.72,6.71,3.19l-.72,1.12c-1.89.05-2.94-2.18-5.65-1.19-2.39,1.93-5.55,2.29-8.65-.42-4,.59-4.83,1.31-5.67,4.79s-1.59,6.69-2.35,9.91c1.86,1.56,5-1,6.24,2.52A29.84,29.84,0,0,1,5.41,43c1.08-4.66,2-9,3.09-13.32S12.69,23.5,16.94,23.23Z" transform="translate(-5.41 -0.47)"/><path class="cls-3" d="M29.13,43.29c-4-7-3.74-10.31,1.16-13.65.69,0,1.68,0,2.67,0,3.55.15,5.39,2.09,5.43,5.69,0,2.82-1.06,5.28-2.44,7.79A36.19,36.19,0,0,1,29.13,43.29Zm1.2-11.17C28,35,28.1,37.37,30.67,41H34.3c2.56-4.58,2.53-6.4-.08-8.92A8.9,8.9,0,0,0,30.33,32.12Z" transform="translate(-5.41 -0.47)"/><path class="cls-4" d="M35.91,46.12c-1.51,1.19-2.23,2.67-4,2.35-1.21-.21-1.34-1.74-2.53-1.78.08-.49,0-.85.16-.94C31.52,44.39,33.51,44.33,35.91,46.12Z" transform="translate(-5.41 -0.47)"/><path class="cls-5" d="M34,26.93c.5-1,.38-2.2,1.14-3a1.29,1.29,0,0,1,1.66.38c.56,1.31-.22,2.55-1,3.74C34.89,28.28,34.5,27.83,34,26.93Z" transform="translate(-5.41 -0.47)"/><path class="cls-6" d="M38.41,29.79c-.55-2.12,1.08-2.68,1.94-3.65,1-.06,1.4.47,1.71,1.43C41.16,28.52,40.6,30,38.41,29.79Z" transform="translate(-5.41 -0.47)"/><path class="cls-7" d="M44.37,33.05a5.23,5.23,0,0,1-4.31.33c-.58-1.27.11-1.81,1-2C42.33,31.19,43.73,31,44.37,33.05Z" transform="translate(-5.41 -0.47)"/><path class="cls-8" d="M25.47,10.7c-1.25,1.66-2.38,1.37-3.63.58C23.25,9.22,23.25,9.22,25.47,10.7Z" transform="translate(-5.41 -0.47)"/><path class="cls-9" d="M19.65,11.41a2.42,2.42,0,0,1-3,0,1.34,1.34,0,0,1,1.31-1.81C19.07,9.52,19.8,10.1,19.65,11.41Z" transform="translate(-5.41 -0.47)"/></g></g></svg>