<svg xmlns="http://www.w3.org/2000/svg" viewBox="0 0 60 60"><defs><style>.cls-1,.cls-2{fill:none;stroke:#6b35d3;stroke-miterlimit:10;}.cls-1{stroke-width:2px;}</style></defs><title>catico</title><g id="Warstwa_2" data-name="Warstwa 2"><path class="cls-1" d="M45.77,58.5V45.86c-.41-6.5,3.59-12.32,3.76-12.57a20.5,20.5,0,0,0,4-11.12,24.1,24.1,0,0,0-2.35-10.28v0C46.25.9,31.16,1.5,31,1.51h0c-12.79-.19-17.22,8.22-17.4,8.58-.55,1.37-2.26,6.5-2.28,6.55a8.6,8.6,0,0,0-.42,4.56,3.24,3.24,0,0,1,.31,3.09.05.05,0,0,1,0,0L8.6,28.19l0,0c-2,2.3-2.06,3.24-2.07,3.38s0,.05,0,.1c0,.95,1.85,1.63,2.51,1.79l.1,0a1.72,1.72,0,0,1,.89,1,1,1,0,0,1-.13.79,1.69,1.69,0,0,0,.45,2.39.41.41,0,0,1,.16.29.39.39,0,0,1-.1.31c-.45.51-.05,1.44,0,1.62A4,4,0,0,1,11.06,43a4.06,4.06,0,0,0,.76,3.64l0,0c1,1.1,4.47,1.2,5.72,1.15,2.31-.05,3.9.4,4.74,1.31a2,2,0,0,1,.58,1.47V58.5"/><path class="cls-2" d="M21,8.17a2.26,2.26,0,0,0-2.54,2.35S13.66,13,15.68,17.05a2.19,2.19,0,0,0,1.05,2.74s-.39,3.59,5.94,3.2a2.89,2.89,0,0,0,3,3.26s2.29,1.51,5.95,0c0,0-.59,1.77,2.67,3.07a14.79,14.79,0,0,1,3.07,5h1.83a6.33,6.33,0,0,0-1-3.33s1.57.46,2.09-.65c0,0,4.83,1.05,4.7-1.63A1.82,1.82,0,0,0,45.85,26S49,27,49,24c0,0,2.29-1,.72-4.11,0,0,1.11-2-.52-2.94,0,0-.52-3.46-2.61-4.05,0,0-.2-3.59-2.55-3.59,0,0-2.74-6.07-10-3.85a3.05,3.05,0,0,0-3.79-.13S27.83,4.12,27,6.15c0,0-2-1.11-2.74.39A2.62,2.62,0,0,0,21,8.17Z"/></g></svg>