<svg id="Warstwa_1" data-name="Warstwa 1" xmlns="http://www.w3.org/2000/svg" viewBox="0 0 60 60"><defs><style>.cls-1{fill:none;stroke:#6b35d3;stroke-miterlimit:10;stroke-width:2px;}</style></defs><title>catico</title><path class="cls-1" d="M26.74,58.5H6.57A1.42,1.42,0,0,1,5.28,57V1.5H44.69A1.42,1.42,0,0,1,46,3V17.73M21.6,58.5H16.94M54.72,40.87A15.39,15.39,0,1,1,39.33,25.48c1.57,0,4,0,5.27,1.9.56.8,1.55,3-1.42,6a2.47,2.47,0,1,0,3.49,3.5c2-2,3.59-2.17,4.6-2a4,4,0,0,1,2.86,2.46,8.45,8.45,0,0,1,.59,3.56Zm-20,3.48a3.2,3.2,0,0,1-2.26.93h0a3.19,3.19,0,1,1,2.26-5.44,3.2,3.2,0,0,1,0,4.51Zm5.62,1.12a3.19,3.19,0,0,1-2.26,5.44,3.19,3.19,0,0,1-2.25-5.45,3.19,3.19,0,0,1,4.51,0Zm-7.85-8.88A3.19,3.19,0,1,1,38,34.34,3.21,3.21,0,0,1,37,36.59a3.13,3.13,0,0,1-2.25.94h0a3.17,3.17,0,0,1-2.25-.94Zm15.34,6.35a3.19,3.19,0,0,1-2.25,5.44h0a3.19,3.19,0,1,1,0-6.38h0a3.13,3.13,0,0,1,2.25.94Zm6.61.09M10.72,11.08H29.43M10.72,15.4h9.36m-9.36,4.32H30.15"/></svg>